%
M48
M72
T01C0.0157
T02C0.0197
T03C0.0200
T04C0.0236
T05C0.0354
T06C0.0394
T07C0.0400
T08C0.0433
T09C0.0472
T10C0.0520
T11C0.1260
%
T01
X11779Y11168
X11779Y11680
T02
X16345Y11778
X16345Y12487
X16857Y12487
X34121Y13038
X34613Y13038
X34121Y11286
X41975Y11483
X41975Y11955
X42999Y11955
X42999Y11483
T03
X30046Y12546
X30046Y13046
X30046Y13546
X30046Y14046
X30046Y14546
T04
X31070Y14160
X31385Y14554
X32448Y13924
X32782Y14278
X33294Y14298
X31424Y12743
X30637Y11680
X29928Y10696
X29495Y10302
X28983Y10105
X27527Y10262
X25952Y10026
X25401Y10026
X23826Y9711
X23471Y10420
X24259Y11325
X25952Y11680
X26345Y11306
X25538Y12113
X22645Y13176
X22172Y12310
X21523Y12310
X21267Y11483
X16857Y11778
X16345Y10774
X15991Y9829
X17054Y9829
X12802Y12034
X13196Y13097
X13393Y13570
X14003Y13806
X12999Y14416
X12723Y15223
X14062Y16010
X16345Y13806
X16857Y13806
X20145Y13786
X20755Y15262
X22763Y15184
X23826Y16010
X24141Y16640
X21621Y17428
X19653Y17034
X25558Y14869
X26562Y14770
X26719Y14003
X24928Y14042
X27605Y16010
X29259Y13885
X33353Y15971
X35243Y17349
X41306Y14751
X41897Y16010
X37448Y14121
X38196Y13373
X37763Y12900
X36542Y12625
X34613Y11995
X34121Y11995
X34121Y10577
X37290Y9987
X39023Y10932
X41306Y10979
X41700Y10459
X41857Y9633
X43196Y9554
X40676Y12231
X39239Y12231
X37290Y8963
X35716Y3885
X39259Y3885
X42881Y3885
X32172Y3885
X28629Y3885
X25086Y3885
X21542Y3885
X17999Y3885
X14456Y3885
X10912Y3885
X24377Y8963
T05
X29062Y15538
X8590Y15538
T06
X7212Y13294
X7212Y8806
X7605Y7877
X7605Y6877
X7605Y5877
X43235Y5877
X43235Y6877
X43235Y7877
T07
X31664Y17030
X30664Y17030
X29664Y17030
X28664Y17030
X27664Y17030
X26664Y17030
T08
X7212Y11936
X7212Y10164
T09
X37605Y16207
X38605Y16207
X39605Y16207
X39605Y17207
X38605Y17207
X37605Y17207
T10
X40873Y17152
X42448Y17152
X43877Y13696
X43861Y11349
T11
X7290Y4514
X7290Y16727
X43747Y16727
X43747Y4514
M30
