G75*
G70*
%OFA0B0*%
%FSLAX24Y24*%
%IPPOS*%
%LPD*%
%AMOC8*
5,1,8,0,0,1.08239X$1,22.5*
%
%ADD10C,0.0394*%
%ADD11R,0.0669X0.0157*%
%ADD12R,0.0177X0.0394*%
%ADD13R,0.0500X0.0220*%
%ADD14R,0.0220X0.0500*%
%ADD15C,0.0740*%
%ADD16R,0.0787X0.0512*%
%ADD17R,0.1250X0.1850*%
%ADD18R,0.0500X0.0120*%
%ADD19R,0.1181X0.3819*%
%ADD20C,0.0591*%
%ADD21C,0.0500*%
%ADD22R,0.1575X0.1024*%
%ADD23R,0.0098X0.0236*%
%ADD24R,0.0512X0.0630*%
%ADD25OC8,0.0850*%
%ADD26R,0.0512X0.0787*%
%ADD27OC8,0.0720*%
%ADD28R,0.0630X0.0512*%
%ADD29C,0.1000*%
%ADD30R,0.0276X0.0354*%
%ADD31R,0.0512X0.0591*%
%ADD32R,0.0354X0.0276*%
%ADD33R,0.0276X0.0098*%
%ADD34R,0.0098X0.0276*%
%ADD35R,0.1063X0.1063*%
%ADD36R,0.0787X0.0472*%
%ADD37C,0.0700*%
%ADD38R,0.0276X0.0197*%
%ADD39R,0.0197X0.0276*%
%ADD40C,0.0160*%
%ADD41C,0.0120*%
%ADD42C,0.0100*%
%ADD43C,0.0396*%
%ADD44C,0.0317*%
%ADD45C,0.0357*%
%ADD46C,0.0240*%
%ADD47C,0.0080*%
%ADD48C,0.0320*%
D10*
X030046Y012546D03*
X030046Y013046D03*
X030046Y013546D03*
X030046Y014046D03*
X030046Y014546D03*
X043835Y015428D03*
X008694Y017156D03*
D11*
X023538Y013734D03*
X023538Y013144D03*
X023538Y012553D03*
D12*
X023961Y012553D03*
X023115Y012553D03*
X023115Y013144D03*
X023115Y013734D03*
X023961Y013734D03*
X023961Y013144D03*
D13*
G36*
X024760Y012676D02*
X024408Y013028D01*
X024564Y013184D01*
X024916Y012832D01*
X024760Y012676D01*
G37*
G36*
X024983Y012899D02*
X024631Y013251D01*
X024787Y013407D01*
X025139Y013055D01*
X024983Y012899D01*
G37*
G36*
X025206Y013121D02*
X024854Y013473D01*
X025010Y013629D01*
X025362Y013277D01*
X025206Y013121D01*
G37*
G36*
X025428Y013344D02*
X025076Y013696D01*
X025232Y013852D01*
X025584Y013500D01*
X025428Y013344D01*
G37*
G36*
X025651Y013567D02*
X025299Y013919D01*
X025455Y014075D01*
X025807Y013723D01*
X025651Y013567D01*
G37*
G36*
X025874Y013790D02*
X025522Y014142D01*
X025678Y014298D01*
X026030Y013946D01*
X025874Y013790D01*
G37*
G36*
X026097Y014012D02*
X025745Y014364D01*
X025901Y014520D01*
X026253Y014168D01*
X026097Y014012D01*
G37*
G36*
X026319Y014235D02*
X025967Y014587D01*
X026123Y014743D01*
X026475Y014391D01*
X026319Y014235D01*
G37*
G36*
X028709Y011845D02*
X028357Y012197D01*
X028513Y012353D01*
X028865Y012001D01*
X028709Y011845D01*
G37*
G36*
X028487Y011622D02*
X028135Y011974D01*
X028291Y012130D01*
X028643Y011778D01*
X028487Y011622D01*
G37*
G36*
X028264Y011399D02*
X027912Y011751D01*
X028068Y011907D01*
X028420Y011555D01*
X028264Y011399D01*
G37*
G36*
X028041Y011177D02*
X027689Y011529D01*
X027845Y011685D01*
X028197Y011333D01*
X028041Y011177D01*
G37*
G36*
X027818Y010954D02*
X027466Y011306D01*
X027622Y011462D01*
X027974Y011110D01*
X027818Y010954D01*
G37*
G36*
X027596Y010731D02*
X027244Y011083D01*
X027400Y011239D01*
X027752Y010887D01*
X027596Y010731D01*
G37*
G36*
X027373Y010509D02*
X027021Y010861D01*
X027177Y011017D01*
X027529Y010665D01*
X027373Y010509D01*
G37*
G36*
X027150Y010286D02*
X026798Y010638D01*
X026954Y010794D01*
X027306Y010442D01*
X027150Y010286D01*
G37*
D14*
G36*
X026123Y010286D02*
X025967Y010442D01*
X026319Y010794D01*
X026475Y010638D01*
X026123Y010286D01*
G37*
G36*
X025901Y010509D02*
X025745Y010665D01*
X026097Y011017D01*
X026253Y010861D01*
X025901Y010509D01*
G37*
G36*
X025678Y010731D02*
X025522Y010887D01*
X025874Y011239D01*
X026030Y011083D01*
X025678Y010731D01*
G37*
G36*
X025455Y010954D02*
X025299Y011110D01*
X025651Y011462D01*
X025807Y011306D01*
X025455Y010954D01*
G37*
G36*
X025232Y011177D02*
X025076Y011333D01*
X025428Y011685D01*
X025584Y011529D01*
X025232Y011177D01*
G37*
G36*
X025010Y011399D02*
X024854Y011555D01*
X025206Y011907D01*
X025362Y011751D01*
X025010Y011399D01*
G37*
G36*
X024787Y011622D02*
X024631Y011778D01*
X024983Y012130D01*
X025139Y011974D01*
X024787Y011622D01*
G37*
G36*
X024564Y011845D02*
X024408Y012001D01*
X024760Y012353D01*
X024916Y012197D01*
X024564Y011845D01*
G37*
G36*
X028068Y013121D02*
X027912Y013277D01*
X028264Y013629D01*
X028420Y013473D01*
X028068Y013121D01*
G37*
G36*
X028291Y012899D02*
X028135Y013055D01*
X028487Y013407D01*
X028643Y013251D01*
X028291Y012899D01*
G37*
G36*
X028513Y012676D02*
X028357Y012832D01*
X028709Y013184D01*
X028865Y013028D01*
X028513Y012676D01*
G37*
G36*
X027845Y013344D02*
X027689Y013500D01*
X028041Y013852D01*
X028197Y013696D01*
X027845Y013344D01*
G37*
G36*
X027622Y013567D02*
X027466Y013723D01*
X027818Y014075D01*
X027974Y013919D01*
X027622Y013567D01*
G37*
G36*
X027400Y013790D02*
X027244Y013946D01*
X027596Y014298D01*
X027752Y014142D01*
X027400Y013790D01*
G37*
G36*
X027177Y014012D02*
X027021Y014168D01*
X027373Y014520D01*
X027529Y014364D01*
X027177Y014012D01*
G37*
G36*
X026954Y014235D02*
X026798Y014391D01*
X027150Y014743D01*
X027306Y014587D01*
X026954Y014235D01*
G37*
D15*
X026664Y017030D03*
X027664Y017030D03*
X028664Y017030D03*
X029664Y017030D03*
X030664Y017030D03*
X031664Y017030D03*
D16*
X036637Y015255D03*
X042637Y015255D03*
D17*
X042224Y007703D03*
X040704Y007703D03*
X038680Y007703D03*
X037160Y007703D03*
X035137Y007703D03*
X033617Y007703D03*
X031594Y007703D03*
X030074Y007703D03*
X028050Y007703D03*
X026530Y007703D03*
X024507Y007703D03*
X022987Y007703D03*
X020964Y007703D03*
X019444Y007703D03*
X017420Y007703D03*
X015900Y007703D03*
X013877Y007703D03*
X012357Y007703D03*
X010334Y007703D03*
X008814Y007703D03*
X008814Y005263D03*
X010334Y005263D03*
X012357Y005263D03*
X013877Y005263D03*
X015900Y005263D03*
X017420Y005263D03*
X019444Y005263D03*
X020964Y005263D03*
X022987Y005263D03*
X024507Y005263D03*
X026530Y005263D03*
X028050Y005263D03*
X030074Y005263D03*
X031594Y005263D03*
X033617Y005263D03*
X035137Y005263D03*
X037160Y005263D03*
X038680Y005263D03*
X040704Y005263D03*
X042224Y005263D03*
D18*
X035531Y010453D03*
X035531Y010703D03*
X035531Y010963D03*
X035531Y011213D03*
X035531Y011473D03*
X035531Y011733D03*
X035531Y011983D03*
X035531Y012243D03*
X035531Y012493D03*
X035531Y012753D03*
X035531Y013013D03*
X035531Y013263D03*
X035531Y013523D03*
X035531Y013773D03*
X033191Y013773D03*
X033191Y013523D03*
X033191Y013263D03*
X033191Y013013D03*
X033191Y012753D03*
X033191Y012493D03*
X033191Y012243D03*
X033191Y011983D03*
X033191Y011733D03*
X033191Y011473D03*
X033191Y011213D03*
X033191Y010963D03*
X033191Y010703D03*
X033191Y010453D03*
X017771Y010480D03*
X017771Y010730D03*
X017771Y010990D03*
X017771Y011240D03*
X017771Y011500D03*
X017771Y011760D03*
X017771Y012010D03*
X017771Y012270D03*
X017771Y012520D03*
X017771Y012780D03*
X017771Y013040D03*
X017771Y013290D03*
X017771Y013550D03*
X017771Y013800D03*
X015431Y013800D03*
X015431Y013550D03*
X015431Y013290D03*
X015431Y013040D03*
X015431Y012780D03*
X015431Y012520D03*
X015431Y012270D03*
X015431Y012010D03*
X015431Y011760D03*
X015431Y011500D03*
X015431Y011240D03*
X015431Y010990D03*
X015431Y010730D03*
X015431Y010480D03*
D19*
X016601Y012140D03*
X034361Y012113D03*
D20*
X043235Y007877D03*
X043235Y006877D03*
X043235Y005877D03*
X007605Y005877D03*
X007605Y006877D03*
X007605Y007877D03*
D21*
X019231Y012385D03*
X037684Y012259D03*
D22*
X042471Y011727D03*
D23*
X042373Y010979D03*
X042176Y010979D03*
X041979Y010979D03*
X041782Y010979D03*
X042570Y010979D03*
X042767Y010979D03*
X042964Y010979D03*
X043160Y010979D03*
X043160Y012475D03*
X042964Y012475D03*
X042767Y012475D03*
X042570Y012475D03*
X042373Y012475D03*
X042176Y012475D03*
X041979Y012475D03*
X041782Y012475D03*
D24*
X043086Y010176D03*
X043873Y010176D03*
X035393Y015310D03*
X034605Y015310D03*
X017129Y015211D03*
X016342Y015211D03*
D25*
X040873Y017152D03*
X042448Y017152D03*
X043877Y013696D03*
X043861Y011349D03*
D26*
X042007Y013448D03*
X040550Y013448D03*
D27*
X039605Y016207D03*
X038605Y016207D03*
X037605Y016207D03*
X037605Y017207D03*
X038605Y017207D03*
X039605Y017207D03*
D28*
X043826Y012940D03*
X043826Y012152D03*
D29*
X029062Y015538D03*
X008590Y015538D03*
D30*
X016405Y014514D03*
X016916Y014514D03*
X019003Y013648D03*
X019515Y013648D03*
X021365Y014829D03*
X021877Y014829D03*
G36*
X024328Y014400D02*
X024523Y014595D01*
X024772Y014346D01*
X024577Y014151D01*
X024328Y014400D01*
G37*
G36*
X024690Y014762D02*
X024885Y014957D01*
X025134Y014708D01*
X024939Y014513D01*
X024690Y014762D01*
G37*
G36*
X028796Y010928D02*
X028601Y010733D01*
X028352Y010982D01*
X028547Y011177D01*
X028796Y010928D01*
G37*
G36*
X028434Y010566D02*
X028239Y010371D01*
X027990Y010620D01*
X028185Y010815D01*
X028434Y010566D01*
G37*
X036719Y013648D03*
X037231Y013648D03*
X035263Y014672D03*
X034751Y014672D03*
X040420Y014357D03*
X040932Y014357D03*
X041759Y014357D03*
X042271Y014357D03*
D31*
X042310Y003885D03*
X041641Y003885D03*
X038727Y003885D03*
X038058Y003885D03*
X035184Y003885D03*
X034515Y003885D03*
X031641Y003885D03*
X030971Y003885D03*
X028097Y003885D03*
X027428Y003885D03*
X024554Y003885D03*
X023885Y003885D03*
X021011Y003885D03*
X020342Y003885D03*
X017468Y003885D03*
X016798Y003885D03*
X013924Y003885D03*
X013255Y003885D03*
X010381Y003885D03*
X009712Y003885D03*
D32*
X019653Y015282D03*
X019653Y015794D03*
X020282Y015794D03*
X020282Y015282D03*
X031660Y015755D03*
X031660Y016266D03*
X032645Y016266D03*
X032645Y015755D03*
X042842Y014652D03*
X042842Y014140D03*
D33*
X022605Y015755D03*
X022605Y015951D03*
X022605Y016148D03*
X022605Y016345D03*
X022605Y016542D03*
X022605Y016739D03*
X021109Y016739D03*
X021109Y016542D03*
X021109Y016345D03*
X021109Y016148D03*
X021109Y015951D03*
X021109Y015755D03*
D34*
X021365Y015499D03*
X021562Y015499D03*
X021759Y015499D03*
X021956Y015499D03*
X022153Y015499D03*
X022349Y015499D03*
X022349Y016995D03*
X022153Y016995D03*
X021956Y016995D03*
X021759Y016995D03*
X021562Y016995D03*
X021365Y016995D03*
D35*
X021857Y016247D03*
D36*
X008235Y012428D03*
X008235Y011444D03*
X008235Y010656D03*
X008235Y009672D03*
D37*
X007562Y008806D02*
X006862Y008806D01*
X006862Y013294D02*
X007562Y013294D01*
D38*
X014495Y016050D03*
X015007Y016050D03*
X009574Y009711D03*
X009062Y009711D03*
D39*
X019141Y015302D03*
X019141Y015814D03*
X018944Y016640D03*
X018944Y017152D03*
D40*
X016342Y015211D02*
X016342Y014514D01*
X016405Y014514D01*
X016345Y014514D01*
X016345Y013806D01*
X016601Y013570D02*
X016601Y012140D01*
X016660Y011995D02*
X016582Y011916D01*
X016582Y011365D01*
X016857Y011778D01*
X016660Y011995D02*
X016660Y012333D01*
X016660Y012861D01*
X015721Y013800D01*
X015431Y013800D01*
X015431Y013550D02*
X015431Y013550D01*
X015431Y013290D02*
X013672Y013290D01*
X013393Y013570D01*
X012842Y014298D02*
X012999Y014416D01*
X012842Y014298D02*
X012842Y012703D01*
X013550Y012703D01*
X013747Y012782D01*
X015401Y012782D01*
X015431Y012780D01*
X015431Y012270D02*
X015392Y012231D01*
X013668Y012231D01*
X010755Y009278D01*
X010834Y009003D02*
X009653Y009003D01*
X008786Y008136D01*
X008814Y007703D01*
X010334Y007703D02*
X010361Y008058D01*
X014062Y011759D01*
X015429Y011759D01*
X015431Y011760D01*
X015416Y011995D02*
X015431Y012010D01*
X015416Y011995D02*
X013826Y011995D01*
X010834Y009003D01*
X011385Y008609D02*
X014298Y011522D01*
X015409Y011522D01*
X015431Y011500D01*
X015359Y011247D02*
X014574Y011247D01*
X012330Y008924D01*
X012357Y007703D01*
X013877Y007703D02*
X013905Y010105D01*
X014771Y010971D01*
X015412Y010971D01*
X015431Y010990D01*
X015427Y010735D02*
X014928Y010735D01*
X014928Y006562D01*
X015873Y005617D01*
X015900Y005263D01*
X017251Y004908D02*
X017448Y004908D01*
X017420Y005263D01*
X018471Y006562D02*
X019416Y005617D01*
X019444Y005263D01*
X020794Y005105D02*
X020991Y005105D01*
X020964Y005263D01*
X022015Y006562D02*
X022960Y005617D01*
X022987Y005263D01*
X024338Y005105D02*
X024534Y005105D01*
X024507Y005263D01*
X025479Y006483D02*
X026503Y005459D01*
X026530Y005263D01*
X027881Y005105D02*
X028078Y005105D01*
X028050Y005263D01*
X029219Y006404D02*
X030046Y005459D01*
X030074Y005263D01*
X031424Y005302D02*
X031621Y005302D01*
X031594Y005263D01*
X032763Y006483D02*
X033590Y005538D01*
X033617Y005263D01*
X034968Y005105D02*
X035164Y005105D01*
X035137Y005263D01*
X036109Y006562D02*
X037133Y005538D01*
X037160Y005263D01*
X038235Y005302D02*
X038708Y005302D01*
X038680Y005263D01*
X039653Y006640D02*
X040676Y005617D01*
X040704Y005263D01*
X039653Y006640D02*
X039653Y008766D01*
X036897Y011483D01*
X035581Y011483D01*
X035531Y011473D01*
X035531Y011213D02*
X035537Y011207D01*
X036582Y011207D01*
X038708Y009081D01*
X038680Y007703D01*
X037160Y007703D02*
X037133Y008215D01*
X036818Y008530D01*
X036818Y010420D01*
X036267Y010971D01*
X035539Y010971D01*
X035531Y010963D01*
X035563Y010735D02*
X035531Y010703D01*
X035563Y010735D02*
X036109Y010735D01*
X036109Y006562D01*
X035137Y007703D02*
X035164Y009475D01*
X035558Y009869D01*
X035558Y010426D01*
X035531Y010453D01*
X034574Y011286D02*
X034416Y011444D01*
X034361Y011499D01*
X034361Y012113D01*
X034361Y012388D01*
X034361Y013038D01*
X034613Y013038D01*
X034121Y013038D01*
X033191Y013013D02*
X033186Y013018D01*
X033191Y013263D02*
X033160Y013294D01*
X033191Y013523D02*
X033145Y013530D01*
X033191Y013773D02*
X034637Y013773D01*
X034637Y012388D01*
X034361Y012113D01*
X033191Y011983D02*
X033179Y011995D01*
X032133Y011995D01*
X029613Y009436D01*
X027763Y009436D01*
X026503Y008136D01*
X026530Y007703D01*
X028050Y007703D02*
X028078Y008136D01*
X028629Y009160D01*
X029692Y009160D01*
X032290Y011759D01*
X033166Y011759D01*
X033191Y011733D01*
X033191Y011473D02*
X033162Y011444D01*
X032369Y011444D01*
X029810Y008885D01*
X029219Y008885D01*
X029219Y006404D01*
X030074Y007703D02*
X029849Y008491D01*
X032527Y011207D01*
X033186Y011207D01*
X033191Y011213D01*
X033183Y010971D02*
X032684Y010971D01*
X031621Y009829D01*
X031594Y007703D01*
X032763Y006483D02*
X032763Y010715D01*
X033159Y010715D01*
X033191Y010703D01*
X033191Y010453D02*
X033196Y010448D01*
X033196Y009948D01*
X033590Y009554D01*
X033617Y007703D01*
X029495Y009751D02*
X032015Y012231D01*
X033179Y012231D01*
X033181Y012743D02*
X033191Y012753D01*
X033181Y012743D02*
X031503Y012743D01*
X031503Y012782D01*
X031424Y012743D01*
X030814Y012743D01*
X030637Y012566D01*
X028389Y011876D02*
X028389Y011841D01*
X027943Y011460D02*
X027054Y012349D01*
X027054Y012765D01*
X026219Y013600D01*
X026236Y013600D01*
X027054Y012782D01*
X027054Y012310D01*
X027943Y011421D01*
X028235Y011129D01*
X028400Y011129D01*
X028574Y010955D01*
X028212Y010593D02*
X027999Y010806D01*
X027999Y010892D01*
X027720Y011171D01*
X027720Y011208D01*
X027765Y011208D01*
X027943Y011421D02*
X027943Y011431D01*
X027943Y011460D01*
X027275Y010763D02*
X026739Y011299D01*
X026739Y011759D01*
X025122Y013375D01*
X025108Y013375D01*
X025330Y013598D02*
X025333Y013598D01*
X025716Y013215D01*
X025834Y013215D01*
X026219Y013600D01*
X025776Y014044D01*
X026221Y014489D02*
X026668Y014042D01*
X026719Y014003D01*
X027275Y014266D02*
X027278Y014266D01*
X027498Y014044D02*
X027528Y014044D01*
X027720Y013822D02*
X027720Y013821D01*
X028166Y013402D02*
X028166Y013375D01*
X029259Y013885D02*
X029259Y013904D01*
X025538Y012113D02*
X025108Y011682D01*
X025108Y011653D01*
X025108Y011623D01*
X025553Y011208D02*
X025578Y011208D01*
X025932Y011562D01*
X025952Y011680D01*
X026129Y011306D02*
X026345Y011306D01*
X026129Y011306D02*
X025809Y010985D01*
X025776Y010985D01*
X025776Y010972D01*
X025999Y010763D02*
X025999Y010742D01*
X026582Y009751D02*
X029495Y009751D01*
X026582Y009751D02*
X025479Y008609D01*
X025479Y006483D01*
X024507Y007703D02*
X024534Y008058D01*
X023668Y008885D01*
X022645Y008885D01*
X019574Y011985D01*
X017834Y011985D01*
X017771Y012010D01*
X017771Y011760D02*
X017773Y011759D01*
X019338Y011759D01*
X022960Y008136D01*
X022987Y007703D01*
X020964Y007703D02*
X020991Y008924D01*
X018708Y011207D01*
X017804Y011207D01*
X017791Y010971D02*
X018550Y010971D01*
X019416Y010105D01*
X019444Y007703D01*
X017420Y007703D02*
X017448Y009633D01*
X017763Y009948D01*
X017763Y010472D01*
X017771Y010480D01*
X017771Y010730D02*
X017776Y010735D01*
X018471Y010735D01*
X018471Y006562D01*
X015900Y007703D02*
X015873Y009239D01*
X015479Y009633D01*
X015479Y010432D01*
X015431Y010480D01*
X015431Y010730D02*
X015427Y010735D01*
X017771Y011500D02*
X017828Y011444D01*
X019180Y011444D01*
X022015Y008609D01*
X022015Y006562D01*
X021542Y003885D02*
X021011Y003885D01*
X017999Y003885D02*
X017468Y003885D01*
X014456Y003885D02*
X013924Y003885D01*
X013877Y005263D02*
X013905Y005302D01*
X013708Y005302D01*
X012357Y005263D02*
X012330Y005696D01*
X011385Y006640D01*
X011385Y008609D01*
X008786Y005696D02*
X008786Y005538D01*
X008814Y005263D01*
X010164Y004908D02*
X010361Y004908D01*
X010334Y005263D01*
X010381Y003885D02*
X010912Y003885D01*
X024554Y003885D02*
X025086Y003885D01*
X028097Y003885D02*
X028629Y003885D01*
X031641Y003885D02*
X032172Y003885D01*
X035184Y003885D02*
X035716Y003885D01*
X038058Y003885D02*
X038058Y003963D01*
X038235Y003963D01*
X038727Y003885D02*
X039259Y003885D01*
X040704Y007703D02*
X040597Y008215D01*
X037054Y011739D01*
X035557Y011739D01*
X035622Y011975D02*
X035531Y011983D01*
X035622Y011975D02*
X037212Y011975D01*
X040282Y009003D01*
X041306Y009003D01*
X042251Y008058D01*
X042224Y007703D01*
X042964Y010180D02*
X043086Y010176D01*
X043747Y010184D02*
X043873Y010176D01*
X041975Y011483D02*
X041975Y012022D01*
X042767Y012022D01*
X042471Y011727D01*
X042582Y011837D01*
X042723Y011837D01*
X042767Y011794D01*
X043590Y012152D02*
X043826Y012152D01*
X043747Y012782D02*
X043826Y012940D01*
X039298Y012270D02*
X039239Y012231D01*
X039298Y012270D02*
X039062Y012507D01*
X039062Y015751D01*
X038605Y016207D01*
X035448Y015255D02*
X035393Y015310D01*
X035263Y015180D01*
X035263Y014672D01*
X035448Y014487D01*
X035448Y013856D01*
X034751Y014262D02*
X034637Y014148D01*
X034637Y013773D01*
X034751Y014262D02*
X034751Y014672D01*
X034751Y015164D01*
X034605Y015310D01*
X034605Y015231D01*
X034613Y015223D01*
X035263Y014672D02*
X035302Y014633D01*
X038086Y013263D02*
X038196Y013373D01*
X038086Y013263D02*
X035531Y013263D01*
X038275Y012270D02*
X038432Y012428D01*
X038432Y012546D01*
X038393Y012585D01*
X038275Y012270D02*
X038275Y011680D01*
X033191Y010963D02*
X033183Y010971D01*
X022172Y012310D02*
X021442Y013040D01*
X017771Y013040D01*
X017771Y013290D02*
X017807Y013294D01*
X017773Y012782D02*
X017771Y012780D01*
X017771Y012522D02*
X017771Y012520D01*
X017771Y012522D02*
X018836Y012526D01*
X018889Y012404D01*
X019231Y012385D01*
X016582Y011916D02*
X016345Y011916D01*
X016345Y012487D01*
X016345Y011778D01*
D41*
X015431Y011240D02*
X015365Y011240D01*
X015359Y011247D01*
X017771Y011240D02*
X017804Y011207D01*
X017771Y010990D02*
X017791Y010971D01*
X021267Y011483D02*
X022960Y009790D01*
X023747Y009790D01*
X023826Y009711D01*
X024259Y010420D02*
X025270Y011431D01*
X025330Y011431D01*
X024259Y011325D02*
X024259Y011695D01*
X024298Y012546D02*
X023545Y012546D01*
X023538Y012553D01*
X024298Y012546D02*
X024662Y012910D01*
X024662Y012930D01*
X024885Y013153D02*
X024885Y013180D01*
X024338Y013727D01*
X023545Y013727D01*
X023538Y013734D01*
X023538Y013144D02*
X022677Y013144D01*
X022645Y013176D01*
X024550Y014373D02*
X024597Y014373D01*
X024928Y014042D01*
X025330Y013640D01*
X025330Y013598D01*
X025553Y013821D02*
X025553Y013850D01*
X025282Y014121D01*
X025282Y014436D01*
X025322Y014436D01*
X025401Y014357D01*
X025322Y014357D01*
X025282Y014436D02*
X025243Y014475D01*
X026221Y014489D02*
X026345Y014613D01*
X026405Y014613D01*
X026562Y014770D01*
X028393Y014987D02*
X028393Y015853D01*
X028708Y016168D01*
X029495Y016168D01*
X029653Y016325D01*
X029653Y017018D01*
X029664Y017030D01*
X035243Y017349D02*
X035251Y017341D01*
X036259Y017341D01*
X037393Y016207D01*
X037605Y016207D01*
X036582Y015388D02*
X036637Y015255D01*
X036719Y013648D02*
X036594Y013523D01*
X035531Y013523D01*
X035531Y013013D02*
X037650Y013013D01*
X037763Y012900D01*
X037684Y012259D02*
X037676Y012251D01*
X036286Y012251D01*
X036044Y012493D01*
X035531Y012493D01*
X035531Y012753D02*
X036414Y012753D01*
X036542Y012625D01*
X035557Y011739D02*
X035537Y011739D01*
X035531Y011733D01*
X034594Y012156D02*
X034361Y012388D01*
X033191Y012243D02*
X033179Y012231D01*
X033160Y013294D02*
X030298Y013294D01*
X030046Y013546D01*
X030046Y014046D02*
X030562Y013530D01*
X033145Y013530D01*
X032448Y013924D02*
X031306Y013924D01*
X031070Y014160D01*
X031385Y014554D02*
X030054Y014554D01*
X030046Y014546D01*
X031385Y014554D02*
X031700Y014554D01*
X031956Y014298D01*
X032782Y014298D01*
X032782Y014278D01*
X030637Y012566D02*
X030617Y012546D01*
X030046Y012546D01*
X028205Y013402D02*
X028166Y013402D01*
X021877Y014829D02*
X021857Y014810D01*
X021365Y014829D02*
X021365Y015499D01*
X020656Y015282D02*
X020282Y015282D01*
X019653Y015282D01*
X019633Y015302D02*
X019141Y015302D01*
X019653Y015794D02*
X020282Y015794D01*
X016857Y013806D02*
X016838Y013806D01*
X016601Y013570D01*
X015431Y013550D02*
X014259Y013550D01*
X014003Y013806D01*
X013253Y013040D02*
X013196Y013097D01*
X013253Y013040D02*
X015431Y013040D01*
X017771Y013550D02*
X018905Y013550D01*
X019003Y013648D01*
X019515Y013648D02*
X019849Y013648D01*
X025952Y010270D02*
X026221Y010540D01*
X025952Y010270D02*
X025952Y010026D01*
X012802Y012034D02*
X012172Y012034D01*
X012015Y012192D01*
X012015Y014302D01*
X009062Y009711D02*
X009062Y009672D01*
X008235Y009672D01*
X008314Y009278D02*
X008038Y009003D01*
X008038Y006286D01*
X008786Y005538D01*
X008314Y009278D02*
X010755Y009278D01*
X039298Y012192D02*
X041621Y009869D01*
X041857Y009633D01*
X041621Y009869D02*
X042172Y009869D01*
X042176Y009873D01*
X042176Y010979D01*
X041979Y010979D02*
X041975Y010975D01*
X042373Y010979D02*
X042373Y009353D01*
X042468Y009259D01*
X042566Y009160D01*
X044219Y009160D01*
X044534Y008845D01*
X044534Y014593D01*
X044456Y014672D01*
X043668Y014672D01*
X043432Y014436D01*
X042881Y015144D02*
X042881Y015262D01*
X042810Y015333D01*
X042692Y015333D01*
X042637Y015255D01*
X041897Y016010D02*
X040802Y016010D01*
X039605Y017207D01*
X042007Y013798D02*
X042007Y013522D01*
X041782Y012475D02*
X040834Y012472D01*
X039298Y012270D02*
X039298Y012192D01*
X042566Y010975D02*
X042570Y010979D01*
X042767Y010979D02*
X042767Y011794D01*
X043826Y012152D02*
X043861Y012038D01*
X043861Y011349D01*
X043424Y010979D02*
X043747Y010656D01*
X043747Y010184D01*
X042964Y010180D02*
X042964Y010979D01*
X043160Y010979D02*
X043424Y010979D01*
X043877Y012912D02*
X043826Y012940D01*
X043877Y012912D02*
X043877Y013696D01*
D42*
X006399Y008563D02*
X006399Y003623D01*
X009306Y003623D01*
X009306Y003835D01*
X009662Y003835D01*
X009662Y003935D01*
X009306Y003935D01*
X009306Y004168D01*
X008118Y004168D01*
X008105Y004181D01*
X008036Y004016D01*
X007789Y003768D01*
X007465Y003635D01*
X007115Y003635D01*
X006792Y003768D01*
X006544Y004016D01*
X006410Y004339D01*
X006410Y004689D01*
X006544Y005013D01*
X006792Y005260D01*
X007115Y005394D01*
X007465Y005394D01*
X007789Y005260D01*
X008019Y005030D01*
X008019Y005659D01*
X008000Y005613D01*
X007869Y005482D01*
X007698Y005411D01*
X007513Y005411D01*
X007342Y005482D01*
X007211Y005613D01*
X007140Y005784D01*
X007140Y005969D01*
X007211Y006140D01*
X007342Y006271D01*
X007513Y006342D01*
X007698Y006342D01*
X007808Y006296D01*
X007808Y006457D01*
X007698Y006411D01*
X007513Y006411D01*
X007342Y006482D01*
X007211Y006613D01*
X007140Y006784D01*
X007140Y006969D01*
X007211Y007140D01*
X007342Y007271D01*
X007513Y007342D01*
X007698Y007342D01*
X007808Y007296D01*
X007808Y007457D01*
X007698Y007411D01*
X007513Y007411D01*
X007342Y007482D01*
X007211Y007613D01*
X007140Y007784D01*
X007140Y007969D01*
X007211Y008140D01*
X007342Y008271D01*
X007377Y008286D01*
X006758Y008286D01*
X006567Y008365D01*
X006421Y008511D01*
X006399Y008563D01*
X006399Y008554D02*
X006403Y008554D01*
X006399Y008455D02*
X006477Y008455D01*
X006399Y008357D02*
X006587Y008357D01*
X006399Y008258D02*
X007329Y008258D01*
X007231Y008160D02*
X006399Y008160D01*
X006399Y008061D02*
X007178Y008061D01*
X007140Y007963D02*
X006399Y007963D01*
X006399Y007864D02*
X007140Y007864D01*
X007148Y007766D02*
X006399Y007766D01*
X006399Y007667D02*
X007188Y007667D01*
X007255Y007569D02*
X006399Y007569D01*
X006399Y007470D02*
X007370Y007470D01*
X007347Y007273D02*
X006399Y007273D01*
X006399Y007175D02*
X007246Y007175D01*
X007184Y007076D02*
X006399Y007076D01*
X006399Y006978D02*
X007144Y006978D01*
X007140Y006879D02*
X006399Y006879D01*
X006399Y006781D02*
X007141Y006781D01*
X007182Y006682D02*
X006399Y006682D01*
X006399Y006584D02*
X007240Y006584D01*
X007339Y006485D02*
X006399Y006485D01*
X006399Y006387D02*
X007808Y006387D01*
X007383Y006288D02*
X006399Y006288D01*
X006399Y006190D02*
X007261Y006190D01*
X007191Y006091D02*
X006399Y006091D01*
X006399Y005993D02*
X007150Y005993D01*
X007140Y005894D02*
X006399Y005894D01*
X006399Y005796D02*
X007140Y005796D01*
X007176Y005697D02*
X006399Y005697D01*
X006399Y005599D02*
X007225Y005599D01*
X007324Y005500D02*
X006399Y005500D01*
X006399Y005402D02*
X008019Y005402D01*
X008019Y005500D02*
X007887Y005500D01*
X007986Y005599D02*
X008019Y005599D01*
X008019Y005303D02*
X007685Y005303D01*
X007844Y005205D02*
X008019Y005205D01*
X008019Y005106D02*
X007943Y005106D01*
X006896Y005303D02*
X006399Y005303D01*
X006399Y005205D02*
X006736Y005205D01*
X006638Y005106D02*
X006399Y005106D01*
X006399Y005008D02*
X006542Y005008D01*
X006502Y004909D02*
X006399Y004909D01*
X006399Y004811D02*
X006461Y004811D01*
X006420Y004712D02*
X006399Y004712D01*
X006399Y004614D02*
X006410Y004614D01*
X006399Y004515D02*
X006410Y004515D01*
X006399Y004417D02*
X006410Y004417D01*
X006399Y004318D02*
X006419Y004318D01*
X006399Y004220D02*
X006460Y004220D01*
X006501Y004121D02*
X006399Y004121D01*
X006399Y004023D02*
X006542Y004023D01*
X006636Y003924D02*
X006399Y003924D01*
X006399Y003826D02*
X006735Y003826D01*
X006891Y003727D02*
X006399Y003727D01*
X006399Y003629D02*
X009306Y003629D01*
X009306Y003727D02*
X007689Y003727D01*
X007846Y003826D02*
X009306Y003826D01*
X009306Y004023D02*
X008039Y004023D01*
X008080Y004121D02*
X009306Y004121D01*
X009662Y003924D02*
X007945Y003924D01*
X010284Y004350D02*
X010284Y005213D01*
X010384Y005213D01*
X010384Y005313D01*
X011109Y005313D01*
X011109Y006208D01*
X011099Y006246D01*
X011079Y006280D01*
X011051Y006308D01*
X011017Y006328D01*
X010979Y006338D01*
X010384Y006338D01*
X010384Y005313D01*
X010284Y005313D01*
X010284Y006338D01*
X009689Y006338D01*
X009651Y006328D01*
X009617Y006308D01*
X009589Y006280D01*
X009588Y006279D01*
X009509Y006358D01*
X008292Y006358D01*
X008268Y006381D01*
X008268Y006608D01*
X009509Y006608D01*
X009574Y006673D01*
X009638Y006608D01*
X011029Y006608D01*
X011129Y006708D01*
X011129Y008472D01*
X011135Y008478D01*
X011135Y006591D01*
X011173Y006499D01*
X011243Y006428D01*
X011562Y006110D01*
X011562Y004268D01*
X011662Y004168D01*
X012849Y004168D01*
X012849Y003935D01*
X013205Y003935D01*
X013205Y003835D01*
X012849Y003835D01*
X012849Y003623D01*
X011172Y003623D01*
X011224Y003676D01*
X011281Y003811D01*
X011281Y003958D01*
X011224Y004093D01*
X011121Y004197D01*
X011056Y004223D01*
X011079Y004246D01*
X011099Y004280D01*
X011109Y004318D01*
X011109Y005213D01*
X010384Y005213D01*
X010384Y004350D01*
X010284Y004350D01*
X010284Y004417D02*
X010384Y004417D01*
X010384Y004515D02*
X010284Y004515D01*
X010284Y004614D02*
X010384Y004614D01*
X010384Y004712D02*
X010284Y004712D01*
X010284Y004811D02*
X010384Y004811D01*
X010384Y004909D02*
X010284Y004909D01*
X010284Y005008D02*
X010384Y005008D01*
X010384Y005106D02*
X010284Y005106D01*
X010284Y005205D02*
X010384Y005205D01*
X010384Y005303D02*
X011562Y005303D01*
X011562Y005205D02*
X011109Y005205D01*
X011109Y005106D02*
X011562Y005106D01*
X011562Y005008D02*
X011109Y005008D01*
X011109Y004909D02*
X011562Y004909D01*
X011562Y004811D02*
X011109Y004811D01*
X011109Y004712D02*
X011562Y004712D01*
X011562Y004614D02*
X011109Y004614D01*
X011109Y004515D02*
X011562Y004515D01*
X011562Y004417D02*
X011109Y004417D01*
X011109Y004318D02*
X011562Y004318D01*
X011610Y004220D02*
X011065Y004220D01*
X011196Y004121D02*
X012849Y004121D01*
X012849Y004023D02*
X011254Y004023D01*
X011281Y003924D02*
X013205Y003924D01*
X012849Y003826D02*
X011281Y003826D01*
X011246Y003727D02*
X012849Y003727D01*
X012849Y003629D02*
X011177Y003629D01*
X014600Y004223D02*
X014622Y004246D01*
X014642Y004280D01*
X014652Y004318D01*
X014652Y005213D01*
X013927Y005213D01*
X013927Y005313D01*
X013827Y005313D01*
X013152Y005313D01*
X013152Y005213D01*
X013827Y005213D01*
X013827Y005313D01*
X013827Y006338D01*
X013232Y006338D01*
X013194Y006328D01*
X013160Y006308D01*
X013132Y006280D01*
X013131Y006279D01*
X013053Y006358D01*
X012021Y006358D01*
X011771Y006608D01*
X013053Y006608D01*
X013117Y006673D01*
X013182Y006608D01*
X014573Y006608D01*
X014672Y006708D01*
X014672Y008698D01*
X014573Y008798D01*
X014140Y008798D01*
X014153Y010000D01*
X014678Y010525D01*
X014678Y006512D01*
X014716Y006420D01*
X014787Y006350D01*
X015105Y006031D01*
X015105Y004268D01*
X015205Y004168D01*
X016392Y004168D01*
X016392Y003935D01*
X016748Y003935D01*
X016748Y003835D01*
X016392Y003835D01*
X016392Y003623D01*
X014715Y003623D01*
X014768Y003676D01*
X014824Y003811D01*
X014824Y003958D01*
X014768Y004093D01*
X014664Y004197D01*
X014600Y004223D01*
X014608Y004220D02*
X015153Y004220D01*
X015105Y004318D02*
X014652Y004318D01*
X014652Y004417D02*
X015105Y004417D01*
X015105Y004515D02*
X014652Y004515D01*
X014652Y004614D02*
X015105Y004614D01*
X015105Y004712D02*
X014652Y004712D01*
X014652Y004811D02*
X015105Y004811D01*
X015105Y004909D02*
X014652Y004909D01*
X014652Y005008D02*
X015105Y005008D01*
X015105Y005106D02*
X014652Y005106D01*
X014652Y005205D02*
X015105Y005205D01*
X015105Y005303D02*
X013927Y005303D01*
X013927Y005313D02*
X014652Y005313D01*
X014652Y006208D01*
X014642Y006246D01*
X014622Y006280D01*
X014594Y006308D01*
X014560Y006328D01*
X014522Y006338D01*
X013927Y006338D01*
X013927Y005313D01*
X013927Y005402D02*
X013827Y005402D01*
X013827Y005500D02*
X013927Y005500D01*
X013927Y005599D02*
X013827Y005599D01*
X013827Y005697D02*
X013927Y005697D01*
X013927Y005796D02*
X013827Y005796D01*
X013827Y005894D02*
X013927Y005894D01*
X013927Y005993D02*
X013827Y005993D01*
X013827Y006091D02*
X013927Y006091D01*
X013927Y006190D02*
X013827Y006190D01*
X013827Y006288D02*
X013927Y006288D01*
X014614Y006288D02*
X014848Y006288D01*
X014946Y006190D02*
X014652Y006190D01*
X014652Y006091D02*
X015045Y006091D01*
X015105Y005993D02*
X014652Y005993D01*
X014652Y005894D02*
X015105Y005894D01*
X015105Y005796D02*
X014652Y005796D01*
X014652Y005697D02*
X015105Y005697D01*
X015105Y005599D02*
X014652Y005599D01*
X014652Y005500D02*
X015105Y005500D01*
X015105Y005402D02*
X014652Y005402D01*
X013827Y005303D02*
X013152Y005303D01*
X011562Y005402D02*
X011109Y005402D01*
X011109Y005500D02*
X011562Y005500D01*
X011562Y005599D02*
X011109Y005599D01*
X011109Y005697D02*
X011562Y005697D01*
X011562Y005796D02*
X011109Y005796D01*
X011109Y005894D02*
X011562Y005894D01*
X011562Y005993D02*
X011109Y005993D01*
X011109Y006091D02*
X011562Y006091D01*
X011482Y006190D02*
X011109Y006190D01*
X011071Y006288D02*
X011383Y006288D01*
X011285Y006387D02*
X008268Y006387D01*
X008268Y006485D02*
X011186Y006485D01*
X011138Y006584D02*
X008268Y006584D01*
X009579Y006288D02*
X009597Y006288D01*
X010284Y006288D02*
X010384Y006288D01*
X010384Y006190D02*
X010284Y006190D01*
X010284Y006091D02*
X010384Y006091D01*
X010384Y005993D02*
X010284Y005993D01*
X010284Y005894D02*
X010384Y005894D01*
X010384Y005796D02*
X010284Y005796D01*
X010284Y005697D02*
X010384Y005697D01*
X010384Y005599D02*
X010284Y005599D01*
X010284Y005500D02*
X010384Y005500D01*
X010384Y005402D02*
X010284Y005402D01*
X011992Y006387D02*
X014749Y006387D01*
X014689Y006485D02*
X011893Y006485D01*
X011795Y006584D02*
X014678Y006584D01*
X014678Y006682D02*
X014647Y006682D01*
X014672Y006781D02*
X014678Y006781D01*
X014672Y006879D02*
X014678Y006879D01*
X014672Y006978D02*
X014678Y006978D01*
X014672Y007076D02*
X014678Y007076D01*
X014672Y007175D02*
X014678Y007175D01*
X014672Y007273D02*
X014678Y007273D01*
X014672Y007372D02*
X014678Y007372D01*
X014672Y007470D02*
X014678Y007470D01*
X014672Y007569D02*
X014678Y007569D01*
X014672Y007667D02*
X014678Y007667D01*
X014672Y007766D02*
X014678Y007766D01*
X014672Y007864D02*
X014678Y007864D01*
X014672Y007963D02*
X014678Y007963D01*
X014672Y008061D02*
X014678Y008061D01*
X014672Y008160D02*
X014678Y008160D01*
X014672Y008258D02*
X014678Y008258D01*
X014672Y008357D02*
X014678Y008357D01*
X014672Y008455D02*
X014678Y008455D01*
X014672Y008554D02*
X014678Y008554D01*
X014672Y008652D02*
X014678Y008652D01*
X014678Y008751D02*
X014620Y008751D01*
X014678Y008849D02*
X014140Y008849D01*
X014141Y008948D02*
X014678Y008948D01*
X014678Y009046D02*
X014142Y009046D01*
X014144Y009145D02*
X014678Y009145D01*
X014678Y009243D02*
X014145Y009243D01*
X014146Y009342D02*
X014678Y009342D01*
X014678Y009440D02*
X014147Y009440D01*
X014148Y009539D02*
X014678Y009539D01*
X014678Y009637D02*
X014149Y009637D01*
X014150Y009736D02*
X014678Y009736D01*
X014678Y009834D02*
X014151Y009834D01*
X014153Y009933D02*
X014678Y009933D01*
X014678Y010031D02*
X014184Y010031D01*
X014283Y010130D02*
X014678Y010130D01*
X014678Y010228D02*
X014381Y010228D01*
X014480Y010327D02*
X014678Y010327D01*
X014678Y010425D02*
X014578Y010425D01*
X014677Y010524D02*
X014678Y010524D01*
X015991Y009829D02*
X017054Y009829D01*
X017696Y009528D02*
X017904Y009736D01*
X017975Y009806D01*
X018013Y009898D01*
X018013Y010250D01*
X018092Y010250D01*
X018191Y010350D01*
X018191Y010485D01*
X018221Y010485D01*
X018221Y006512D01*
X018260Y006420D01*
X018330Y006350D01*
X018649Y006031D01*
X018649Y004268D01*
X018748Y004168D01*
X019936Y004168D01*
X019936Y003935D01*
X020292Y003935D01*
X020292Y003835D01*
X019936Y003835D01*
X019936Y003623D01*
X018258Y003623D01*
X018311Y003676D01*
X018367Y003811D01*
X018367Y003958D01*
X018311Y004093D01*
X018208Y004197D01*
X018143Y004223D01*
X018165Y004246D01*
X018185Y004280D01*
X018195Y004318D01*
X018195Y005213D01*
X017470Y005213D01*
X017470Y004350D01*
X017370Y004350D01*
X017370Y005213D01*
X017470Y005213D01*
X017470Y005313D01*
X017370Y005313D01*
X017370Y006338D01*
X016776Y006338D01*
X016738Y006328D01*
X016703Y006308D01*
X016675Y006280D01*
X016675Y006279D01*
X016596Y006358D01*
X015485Y006358D01*
X015235Y006608D01*
X016596Y006608D01*
X016660Y006673D01*
X016725Y006608D01*
X018116Y006608D01*
X018215Y006708D01*
X018215Y008698D01*
X018116Y008798D01*
X017686Y008798D01*
X017696Y009528D01*
X017708Y009539D02*
X018221Y009539D01*
X018221Y009637D02*
X017806Y009637D01*
X017905Y009736D02*
X018221Y009736D01*
X018221Y009834D02*
X017987Y009834D01*
X018013Y009933D02*
X018221Y009933D01*
X018221Y010031D02*
X018013Y010031D01*
X018013Y010130D02*
X018221Y010130D01*
X018221Y010228D02*
X018013Y010228D01*
X018168Y010327D02*
X018221Y010327D01*
X018221Y010425D02*
X018191Y010425D01*
X016582Y011050D02*
X016345Y010774D01*
X016582Y011050D02*
X016582Y011365D01*
X016601Y012140D02*
X016637Y012333D01*
X016660Y012333D01*
X017773Y012782D02*
X019456Y012782D01*
X022960Y009278D01*
X024023Y009278D01*
X024377Y008963D01*
X025729Y008508D02*
X025735Y008514D01*
X025735Y006708D01*
X025835Y006608D01*
X027226Y006608D01*
X027290Y006673D01*
X027355Y006608D01*
X028746Y006608D01*
X028845Y006708D01*
X028845Y008698D01*
X028746Y008798D01*
X028718Y008798D01*
X028778Y008910D01*
X028969Y008910D01*
X028969Y006413D01*
X028967Y006371D01*
X028969Y006363D01*
X028969Y006354D01*
X028985Y006316D01*
X028999Y006277D01*
X029004Y006271D01*
X029008Y006263D01*
X029037Y006233D01*
X029279Y005957D01*
X029279Y004268D01*
X029378Y004168D01*
X030566Y004168D01*
X030566Y003935D01*
X030921Y003935D01*
X030921Y003835D01*
X030566Y003835D01*
X030566Y003623D01*
X028888Y003623D01*
X028941Y003676D01*
X028997Y003811D01*
X028997Y003958D01*
X028941Y004093D01*
X028837Y004197D01*
X028773Y004223D01*
X028795Y004246D01*
X028815Y004280D01*
X028825Y004318D01*
X028825Y005213D01*
X028100Y005213D01*
X028100Y004350D01*
X028000Y004350D01*
X028000Y005213D01*
X028100Y005213D01*
X028100Y005313D01*
X028000Y005313D01*
X028000Y006338D01*
X027406Y006338D01*
X027367Y006328D01*
X027333Y006308D01*
X027305Y006280D01*
X027305Y006279D01*
X027226Y006358D01*
X025958Y006358D01*
X025729Y006586D01*
X025729Y008508D01*
X025729Y008455D02*
X025735Y008455D01*
X025729Y008357D02*
X025735Y008357D01*
X025729Y008258D02*
X025735Y008258D01*
X025729Y008160D02*
X025735Y008160D01*
X025729Y008061D02*
X025735Y008061D01*
X025729Y007963D02*
X025735Y007963D01*
X025729Y007864D02*
X025735Y007864D01*
X025729Y007766D02*
X025735Y007766D01*
X025729Y007667D02*
X025735Y007667D01*
X025729Y007569D02*
X025735Y007569D01*
X025729Y007470D02*
X025735Y007470D01*
X025729Y007372D02*
X025735Y007372D01*
X025729Y007273D02*
X025735Y007273D01*
X025729Y007175D02*
X025735Y007175D01*
X025729Y007076D02*
X025735Y007076D01*
X025729Y006978D02*
X025735Y006978D01*
X025729Y006879D02*
X025735Y006879D01*
X025729Y006781D02*
X025735Y006781D01*
X025729Y006682D02*
X025761Y006682D01*
X025732Y006584D02*
X028969Y006584D01*
X028969Y006682D02*
X028820Y006682D01*
X028845Y006781D02*
X028969Y006781D01*
X028969Y006879D02*
X028845Y006879D01*
X028845Y006978D02*
X028969Y006978D01*
X028969Y007076D02*
X028845Y007076D01*
X028845Y007175D02*
X028969Y007175D01*
X028969Y007273D02*
X028845Y007273D01*
X028845Y007372D02*
X028969Y007372D01*
X028969Y007470D02*
X028845Y007470D01*
X028845Y007569D02*
X028969Y007569D01*
X028969Y007667D02*
X028845Y007667D01*
X028845Y007766D02*
X028969Y007766D01*
X028969Y007864D02*
X028845Y007864D01*
X028845Y007963D02*
X028969Y007963D01*
X028969Y008061D02*
X028845Y008061D01*
X028845Y008160D02*
X028969Y008160D01*
X028969Y008258D02*
X028845Y008258D01*
X028845Y008357D02*
X028969Y008357D01*
X028969Y008455D02*
X028845Y008455D01*
X028845Y008554D02*
X028969Y008554D01*
X028969Y008652D02*
X028845Y008652D01*
X028793Y008751D02*
X028969Y008751D01*
X028969Y008849D02*
X028746Y008849D01*
X027052Y010540D02*
X026224Y009711D01*
X023826Y009711D01*
X023176Y010085D02*
X021503Y011759D01*
X021503Y012290D01*
X021523Y012310D01*
X021523Y012192D01*
X022301Y013043D02*
X021830Y013514D01*
X020393Y013514D01*
X020457Y013578D01*
X020513Y013713D01*
X020513Y013859D01*
X020457Y013995D01*
X020353Y014098D01*
X020218Y014154D01*
X020071Y014154D01*
X019936Y014098D01*
X019833Y013995D01*
X019801Y013918D01*
X019723Y013995D01*
X019307Y013995D01*
X019259Y013948D01*
X019211Y013995D01*
X018795Y013995D01*
X018695Y013896D01*
X018695Y013780D01*
X018171Y013780D01*
X018171Y013800D01*
X017771Y013800D01*
X017371Y013800D01*
X017371Y013721D01*
X017376Y013705D01*
X017362Y013691D01*
X017362Y014120D01*
X017262Y014220D01*
X017149Y014220D01*
X017174Y014245D01*
X017194Y014279D01*
X017204Y014318D01*
X017204Y014496D01*
X016935Y014496D01*
X016935Y014533D01*
X017204Y014533D01*
X017204Y014711D01*
X017195Y014746D01*
X017405Y014746D01*
X017443Y014757D01*
X017477Y014776D01*
X017505Y014804D01*
X017525Y014838D01*
X017535Y014877D01*
X017535Y015161D01*
X017179Y015161D01*
X017179Y015261D01*
X017535Y015261D01*
X017535Y015546D01*
X017525Y015584D01*
X017505Y015618D01*
X017477Y015646D01*
X017443Y015666D01*
X017405Y015676D01*
X017179Y015676D01*
X017179Y015261D01*
X017079Y015261D01*
X017079Y015676D01*
X016853Y015676D01*
X016815Y015666D01*
X016781Y015646D01*
X016753Y015618D01*
X016750Y015614D01*
X016668Y015696D01*
X016015Y015696D01*
X015916Y015597D01*
X015916Y014826D01*
X016015Y014726D01*
X016092Y014726D01*
X016092Y014465D01*
X016095Y014455D01*
X016095Y014220D01*
X015940Y014220D01*
X015841Y014120D01*
X015841Y014021D01*
X015771Y014050D01*
X015382Y014050D01*
X015333Y014030D01*
X015111Y014030D01*
X015011Y013931D01*
X015011Y013780D01*
X014371Y013780D01*
X014371Y013879D01*
X014315Y014014D01*
X014211Y014118D01*
X014076Y014174D01*
X013930Y014174D01*
X013794Y014118D01*
X013691Y014014D01*
X013635Y013879D01*
X013635Y013848D01*
X013601Y013882D01*
X013466Y013938D01*
X013319Y013938D01*
X013184Y013882D01*
X013092Y013789D01*
X013092Y014056D01*
X013208Y014104D01*
X013311Y014207D01*
X013367Y014343D01*
X013367Y014489D01*
X013311Y014625D01*
X013208Y014728D01*
X013072Y014784D01*
X012926Y014784D01*
X012790Y014728D01*
X012786Y014724D01*
X012786Y014855D01*
X012797Y014855D01*
X012932Y014911D01*
X013035Y015015D01*
X013092Y015150D01*
X013092Y015296D01*
X013035Y015432D01*
X012932Y015535D01*
X012797Y015591D01*
X012650Y015591D01*
X012515Y015535D01*
X012411Y015432D01*
X012355Y015296D01*
X012355Y015166D01*
X012346Y015157D01*
X012346Y012534D01*
X012475Y012405D01*
X012632Y012247D01*
X013333Y012247D01*
X010631Y009508D01*
X009819Y009508D01*
X009832Y009521D01*
X009851Y009555D01*
X009862Y009593D01*
X009862Y009711D01*
X009574Y009711D01*
X009574Y009711D01*
X009862Y009711D01*
X009862Y009829D01*
X009851Y009868D01*
X009832Y009902D01*
X009804Y009930D01*
X009770Y009949D01*
X009731Y009960D01*
X009574Y009960D01*
X009574Y009711D01*
X009574Y009711D01*
X009574Y009960D01*
X009416Y009960D01*
X009378Y009949D01*
X009344Y009930D01*
X009332Y009918D01*
X009270Y009980D01*
X008972Y009980D01*
X009479Y010486D01*
X009479Y014541D01*
X011043Y016105D01*
X013703Y016105D01*
X013694Y016084D01*
X013694Y015937D01*
X013750Y015802D01*
X013853Y015698D01*
X013989Y015642D01*
X014135Y015642D01*
X014271Y015698D01*
X014354Y015781D01*
X014703Y015781D01*
X014751Y015829D01*
X014799Y015781D01*
X015215Y015781D01*
X015315Y015881D01*
X015315Y016105D01*
X017750Y016105D01*
X018488Y015368D01*
X018488Y014817D01*
X018566Y014738D01*
X018695Y014609D01*
X021057Y014609D01*
X021057Y014582D01*
X021157Y014482D01*
X021573Y014482D01*
X021621Y014530D01*
X021669Y014482D01*
X022085Y014482D01*
X022185Y014582D01*
X022185Y014590D01*
X022480Y014590D01*
X022706Y014816D01*
X022836Y014816D01*
X022971Y014872D01*
X023075Y014975D01*
X023131Y015111D01*
X023131Y015257D01*
X023075Y015392D01*
X022971Y015496D01*
X022836Y015552D01*
X022830Y015552D01*
X022913Y015635D01*
X022913Y016858D01*
X022814Y016958D01*
X022569Y016958D01*
X022569Y017050D01*
X023577Y017050D01*
X023606Y017022D01*
X023606Y016311D01*
X023514Y016219D01*
X023458Y016084D01*
X023458Y015937D01*
X023514Y015802D01*
X023617Y015698D01*
X023753Y015642D01*
X023899Y015642D01*
X024034Y015698D01*
X024138Y015802D01*
X024194Y015937D01*
X024194Y016084D01*
X024138Y016219D01*
X024085Y016272D01*
X024214Y016272D01*
X024349Y016328D01*
X024453Y016432D01*
X024509Y016567D01*
X024509Y016714D01*
X024453Y016849D01*
X024361Y016941D01*
X024361Y017361D01*
X024232Y017490D01*
X024104Y017618D01*
X034992Y017618D01*
X034931Y017558D01*
X034875Y017422D01*
X034875Y017276D01*
X034931Y017141D01*
X035035Y017037D01*
X035170Y016981D01*
X035316Y016981D01*
X035452Y017037D01*
X035526Y017111D01*
X036164Y017111D01*
X037075Y016199D01*
X037075Y015988D01*
X037386Y015677D01*
X037825Y015677D01*
X038105Y015958D01*
X038386Y015677D01*
X038782Y015677D01*
X038812Y015647D01*
X038812Y012457D01*
X038850Y012365D01*
X038883Y012332D01*
X038871Y012304D01*
X038871Y012158D01*
X038927Y012022D01*
X039031Y011919D01*
X039166Y011863D01*
X039302Y011863D01*
X041391Y009773D01*
X041489Y009675D01*
X041489Y009559D01*
X041545Y009424D01*
X041649Y009320D01*
X041784Y009264D01*
X041931Y009264D01*
X042066Y009320D01*
X042169Y009424D01*
X042225Y009559D01*
X042225Y009639D01*
X042268Y009639D01*
X042402Y009773D01*
X042406Y009777D01*
X042406Y009816D01*
X042759Y009463D01*
X042888Y009334D01*
X042895Y009334D01*
X042987Y009242D01*
X043123Y009186D01*
X043269Y009186D01*
X043404Y009242D01*
X043508Y009345D01*
X043564Y009481D01*
X043564Y009627D01*
X043531Y009707D01*
X043547Y009691D01*
X044199Y009691D01*
X044299Y009790D01*
X044299Y010561D01*
X044199Y010661D01*
X043977Y010661D01*
X043977Y010751D01*
X043974Y010754D01*
X044108Y010754D01*
X044456Y011103D01*
X044456Y011596D01*
X044268Y011783D01*
X044311Y011826D01*
X044311Y012479D01*
X044243Y012546D01*
X044311Y012613D01*
X044311Y013266D01*
X044300Y013277D01*
X044472Y013449D01*
X044472Y013942D01*
X044123Y014291D01*
X043631Y014291D01*
X043282Y013942D01*
X043282Y013449D01*
X043403Y013328D01*
X043341Y013266D01*
X043341Y013002D01*
X042947Y013002D01*
X042744Y012798D01*
X042744Y012763D01*
X042647Y012763D01*
X042627Y012743D01*
X042593Y012743D01*
X042593Y013680D01*
X042797Y013833D01*
X043089Y013833D01*
X043189Y013932D01*
X043189Y014349D01*
X043141Y014396D01*
X043189Y014444D01*
X043189Y014860D01*
X043161Y014888D01*
X043201Y014928D01*
X043201Y015581D01*
X043101Y015680D01*
X042173Y015680D01*
X042073Y015581D01*
X042073Y014971D01*
X041727Y014971D01*
X041647Y014890D01*
X041618Y014959D01*
X041515Y015063D01*
X041379Y015119D01*
X041233Y015119D01*
X041098Y015063D01*
X040994Y014959D01*
X040938Y014824D01*
X040938Y014704D01*
X040724Y014704D01*
X040676Y014656D01*
X040628Y014704D01*
X040212Y014704D01*
X040112Y014605D01*
X040112Y014109D01*
X040200Y014022D01*
X040200Y013988D01*
X040124Y013912D01*
X040124Y012983D01*
X040224Y012884D01*
X040263Y012884D01*
X040388Y012759D01*
X040564Y012583D01*
X040468Y012543D01*
X040364Y012439D01*
X040308Y012304D01*
X040308Y012158D01*
X040333Y012098D01*
X039636Y012795D01*
X039636Y015787D01*
X039555Y015868D01*
X039555Y016157D01*
X039655Y016157D01*
X039655Y015697D01*
X039817Y015697D01*
X040115Y015996D01*
X040115Y016157D01*
X039655Y016157D01*
X039655Y016257D01*
X040115Y016257D01*
X040115Y016372D01*
X040707Y015780D01*
X041606Y015780D01*
X041688Y015698D01*
X041823Y015642D01*
X041970Y015642D01*
X042105Y015698D01*
X042209Y015802D01*
X042265Y015937D01*
X042265Y016084D01*
X042209Y016219D01*
X042105Y016323D01*
X041970Y016379D01*
X041823Y016379D01*
X041688Y016323D01*
X041606Y016240D01*
X040897Y016240D01*
X040135Y017003D01*
X040135Y017427D01*
X039944Y017618D01*
X040497Y017618D01*
X040278Y017399D01*
X040278Y016906D01*
X040627Y016557D01*
X041119Y016557D01*
X041468Y016906D01*
X041468Y017399D01*
X041249Y017618D01*
X042101Y017618D01*
X041873Y017390D01*
X041873Y017202D01*
X042398Y017202D01*
X042398Y017102D01*
X042498Y017102D01*
X042498Y016577D01*
X042686Y016577D01*
X042867Y016758D01*
X042867Y016552D01*
X043001Y016229D01*
X043249Y015981D01*
X043572Y015847D01*
X043922Y015847D01*
X044245Y015981D01*
X044493Y016229D01*
X044627Y016552D01*
X044627Y016902D01*
X044493Y017225D01*
X044245Y017473D01*
X043922Y017607D01*
X043572Y017607D01*
X043249Y017473D01*
X043023Y017247D01*
X043023Y017390D01*
X042795Y017618D01*
X044638Y017618D01*
X044638Y003623D01*
X043140Y003623D01*
X043193Y003676D01*
X043236Y003781D01*
X043249Y003768D01*
X043572Y003635D01*
X043922Y003635D01*
X044245Y003768D01*
X044493Y004016D01*
X044627Y004339D01*
X044627Y004689D01*
X044493Y005013D01*
X044245Y005260D01*
X043922Y005394D01*
X043572Y005394D01*
X043249Y005260D01*
X043001Y005013D01*
X042999Y005007D01*
X042999Y005213D01*
X042274Y005213D01*
X042274Y005313D01*
X042999Y005313D01*
X042999Y005471D01*
X043143Y005411D01*
X043328Y005411D01*
X043499Y005482D01*
X043630Y005613D01*
X043701Y005784D01*
X043701Y005969D01*
X043630Y006140D01*
X043499Y006271D01*
X043328Y006342D01*
X043143Y006342D01*
X042973Y006272D01*
X042969Y006280D01*
X042941Y006308D01*
X042906Y006328D01*
X042868Y006338D01*
X042274Y006338D01*
X042274Y005313D01*
X042174Y005313D01*
X042174Y006338D01*
X041579Y006338D01*
X041541Y006328D01*
X041506Y006308D01*
X041479Y006280D01*
X041478Y006279D01*
X041399Y006358D01*
X040289Y006358D01*
X040039Y006608D01*
X041399Y006608D01*
X041464Y006673D01*
X041528Y006608D01*
X042846Y006608D01*
X042972Y006482D01*
X043143Y006411D01*
X043328Y006411D01*
X043499Y006482D01*
X043630Y006613D01*
X043701Y006784D01*
X043701Y006969D01*
X043630Y007140D01*
X043499Y007271D01*
X043328Y007342D01*
X043143Y007342D01*
X043019Y007291D01*
X043019Y007463D01*
X043143Y007411D01*
X043328Y007411D01*
X043499Y007482D01*
X043630Y007613D01*
X043701Y007784D01*
X043701Y007969D01*
X043630Y008140D01*
X043499Y008271D01*
X043328Y008342D01*
X043143Y008342D01*
X043019Y008291D01*
X043019Y008698D01*
X042919Y008798D01*
X041864Y008798D01*
X041518Y009144D01*
X041518Y009144D01*
X041448Y009215D01*
X041356Y009253D01*
X040384Y009253D01*
X037712Y011839D01*
X037768Y011839D01*
X037922Y011902D01*
X038040Y012021D01*
X038104Y012175D01*
X038104Y012342D01*
X038040Y012496D01*
X037955Y012581D01*
X037971Y012588D01*
X038075Y012692D01*
X038131Y012827D01*
X038131Y012973D01*
X038117Y013007D01*
X038123Y013005D01*
X038269Y013005D01*
X038404Y013061D01*
X038508Y013164D01*
X038564Y013299D01*
X038564Y013446D01*
X038508Y013581D01*
X038404Y013685D01*
X038269Y013741D01*
X038123Y013741D01*
X037987Y013685D01*
X037884Y013581D01*
X037855Y013513D01*
X037539Y013513D01*
X037539Y013760D01*
X037656Y013809D01*
X037760Y013912D01*
X037816Y014048D01*
X037816Y014194D01*
X037760Y014329D01*
X037656Y014433D01*
X037521Y014489D01*
X037375Y014489D01*
X037239Y014433D01*
X037136Y014329D01*
X037080Y014194D01*
X037080Y014064D01*
X037011Y013995D01*
X037011Y013984D01*
X036975Y013948D01*
X036928Y013995D01*
X036511Y013995D01*
X036412Y013896D01*
X036412Y013753D01*
X035931Y013753D01*
X035931Y013773D01*
X035931Y013853D01*
X035921Y013891D01*
X035901Y013925D01*
X035873Y013953D01*
X035839Y013973D01*
X035801Y013983D01*
X035531Y013983D01*
X035261Y013983D01*
X035223Y013973D01*
X035189Y013953D01*
X035161Y013925D01*
X035141Y013891D01*
X035131Y013853D01*
X035131Y013773D01*
X035531Y013773D01*
X035531Y013773D01*
X035531Y013983D01*
X035531Y013773D01*
X035531Y013773D01*
X035131Y013773D01*
X035131Y013693D01*
X035135Y013677D01*
X035122Y013664D01*
X035122Y014093D01*
X035022Y014192D01*
X034993Y014192D01*
X035001Y014213D01*
X035001Y014367D01*
X035021Y014387D01*
X035033Y014375D01*
X035067Y014355D01*
X035105Y014345D01*
X035244Y014345D01*
X035244Y014653D01*
X035282Y014653D01*
X035282Y014691D01*
X035551Y014691D01*
X035551Y014845D01*
X035668Y014845D01*
X035707Y014855D01*
X035741Y014875D01*
X035769Y014903D01*
X035788Y014937D01*
X035799Y014975D01*
X035799Y015260D01*
X035443Y015260D01*
X035443Y015360D01*
X035343Y015360D01*
X035343Y015775D01*
X035117Y015775D01*
X035079Y015764D01*
X035045Y015745D01*
X035017Y015717D01*
X035014Y015712D01*
X034932Y015795D01*
X034279Y015795D01*
X034179Y015695D01*
X034179Y014924D01*
X034279Y014825D01*
X034443Y014825D01*
X034443Y014424D01*
X034501Y014367D01*
X034501Y014366D01*
X034425Y014290D01*
X034387Y014198D01*
X034387Y014192D01*
X033700Y014192D01*
X033613Y014105D01*
X033662Y014225D01*
X033662Y014371D01*
X033606Y014506D01*
X033503Y014610D01*
X033368Y014666D01*
X033237Y014666D01*
X032743Y015161D01*
X033523Y015161D01*
X034232Y015869D01*
X036254Y015869D01*
X036362Y015762D01*
X036362Y015680D01*
X036173Y015680D01*
X036073Y015581D01*
X036073Y014928D01*
X036173Y014829D01*
X037101Y014829D01*
X037201Y014928D01*
X037201Y015581D01*
X037101Y015680D01*
X036802Y015680D01*
X036802Y015944D01*
X036673Y016073D01*
X036437Y016309D01*
X034050Y016309D01*
X033921Y016180D01*
X033721Y015981D01*
X033721Y016044D01*
X033665Y016180D01*
X033562Y016283D01*
X033427Y016339D01*
X033280Y016339D01*
X033145Y016283D01*
X033041Y016180D01*
X032985Y016044D01*
X032985Y015975D01*
X032980Y015975D01*
X032930Y016025D01*
X032942Y016037D01*
X032962Y016071D01*
X032972Y016109D01*
X032972Y016248D01*
X032664Y016248D01*
X032664Y016285D01*
X032972Y016285D01*
X032972Y016424D01*
X032962Y016462D01*
X032942Y016496D01*
X032914Y016524D01*
X032880Y016544D01*
X032842Y016554D01*
X032664Y016554D01*
X032664Y016285D01*
X032626Y016285D01*
X032626Y016248D01*
X032318Y016248D01*
X032318Y016109D01*
X032328Y016071D01*
X032347Y016037D01*
X032359Y016025D01*
X032309Y015975D01*
X031996Y015975D01*
X031960Y016010D01*
X032008Y016058D01*
X032008Y016475D01*
X031928Y016555D01*
X031970Y016572D01*
X032122Y016724D01*
X032204Y016923D01*
X032204Y017138D01*
X032122Y017336D01*
X031970Y017488D01*
X031772Y017570D01*
X031557Y017570D01*
X031358Y017488D01*
X031207Y017336D01*
X031164Y017234D01*
X031122Y017336D01*
X030970Y017488D01*
X030772Y017570D01*
X030557Y017570D01*
X030358Y017488D01*
X030207Y017336D01*
X030164Y017234D01*
X030122Y017336D01*
X029970Y017488D01*
X029772Y017570D01*
X029557Y017570D01*
X029358Y017488D01*
X029207Y017336D01*
X029153Y017208D01*
X029146Y017230D01*
X029109Y017303D01*
X029061Y017369D01*
X029003Y017427D01*
X028937Y017475D01*
X028864Y017512D01*
X028786Y017537D01*
X028714Y017549D01*
X028714Y017080D01*
X028614Y017080D01*
X028614Y017549D01*
X028543Y017537D01*
X028465Y017512D01*
X028392Y017475D01*
X028326Y017427D01*
X028268Y017369D01*
X028220Y017303D01*
X028182Y017230D01*
X028175Y017208D01*
X028122Y017336D01*
X027970Y017488D01*
X027772Y017570D01*
X027557Y017570D01*
X027358Y017488D01*
X027207Y017336D01*
X027164Y017234D01*
X027122Y017336D01*
X026970Y017488D01*
X026772Y017570D01*
X026557Y017570D01*
X026358Y017488D01*
X026207Y017336D01*
X026124Y017138D01*
X026124Y016923D01*
X026207Y016724D01*
X026358Y016572D01*
X026557Y016490D01*
X026772Y016490D01*
X026970Y016572D01*
X027122Y016724D01*
X027164Y016826D01*
X027207Y016724D01*
X027358Y016572D01*
X027557Y016490D01*
X027772Y016490D01*
X027970Y016572D01*
X028122Y016724D01*
X028175Y016853D01*
X028182Y016831D01*
X028220Y016758D01*
X028268Y016691D01*
X028326Y016634D01*
X028392Y016585D01*
X028465Y016548D01*
X028543Y016523D01*
X028614Y016512D01*
X028614Y016980D01*
X028714Y016980D01*
X028714Y016512D01*
X028786Y016523D01*
X028864Y016548D01*
X028937Y016585D01*
X029003Y016634D01*
X029061Y016691D01*
X029109Y016758D01*
X029146Y016831D01*
X029153Y016853D01*
X029207Y016724D01*
X029358Y016572D01*
X029423Y016546D01*
X029423Y016421D01*
X029400Y016398D01*
X028612Y016398D01*
X028478Y016263D01*
X028297Y016083D01*
X028163Y015948D01*
X028163Y015068D01*
X027825Y014731D01*
X027825Y015710D01*
X027917Y015802D01*
X027973Y015937D01*
X027973Y016084D01*
X027917Y016219D01*
X027814Y016323D01*
X027679Y016379D01*
X027532Y016379D01*
X027397Y016323D01*
X027293Y016219D01*
X027237Y016084D01*
X027237Y015937D01*
X027293Y015802D01*
X027385Y015710D01*
X027385Y014750D01*
X027222Y014913D01*
X027081Y014913D01*
X026930Y014763D01*
X026930Y014844D01*
X026874Y014979D01*
X026771Y015082D01*
X026635Y015138D01*
X026489Y015138D01*
X026353Y015082D01*
X026250Y014979D01*
X026214Y014892D01*
X026193Y014913D01*
X026052Y014913D01*
X025921Y014782D01*
X025926Y014796D01*
X025926Y014942D01*
X025870Y015077D01*
X025767Y015181D01*
X025631Y015237D01*
X025485Y015237D01*
X025350Y015181D01*
X025246Y015077D01*
X025190Y014942D01*
X025190Y014864D01*
X025129Y014925D01*
X024939Y014735D01*
X024912Y014761D01*
X024886Y014735D01*
X024668Y014953D01*
X024570Y014855D01*
X024550Y014820D01*
X024540Y014782D01*
X024540Y014766D01*
X024452Y014766D01*
X024158Y014471D01*
X024158Y014330D01*
X024508Y013980D01*
X024560Y013980D01*
X024560Y013969D01*
X024616Y013833D01*
X024720Y013730D01*
X024845Y013678D01*
X024828Y013662D01*
X025108Y013382D01*
X025101Y013375D01*
X024821Y013655D01*
X024778Y013612D01*
X024568Y013822D01*
X024433Y013957D01*
X024220Y013957D01*
X024220Y014001D01*
X024120Y014101D01*
X023802Y014101D01*
X023702Y014001D01*
X023702Y013983D01*
X023374Y013983D01*
X023374Y014001D01*
X023274Y014101D01*
X022956Y014101D01*
X022856Y014001D01*
X022856Y013485D01*
X022853Y013488D01*
X022718Y013544D01*
X022571Y013544D01*
X022436Y013488D01*
X022333Y013384D01*
X022277Y013249D01*
X022277Y013103D01*
X022301Y013043D01*
X022284Y013085D02*
X022259Y013085D01*
X022277Y013183D02*
X022161Y013183D01*
X022062Y013282D02*
X022290Y013282D01*
X022331Y013380D02*
X021964Y013380D01*
X021865Y013479D02*
X022427Y013479D01*
X022856Y013577D02*
X020457Y013577D01*
X020497Y013676D02*
X022856Y013676D01*
X022856Y013774D02*
X020513Y013774D01*
X020507Y013873D02*
X022856Y013873D01*
X022856Y013971D02*
X020466Y013971D01*
X020381Y014070D02*
X022925Y014070D01*
X023305Y014070D02*
X023771Y014070D01*
X024151Y014070D02*
X024418Y014070D01*
X024320Y014168D02*
X017314Y014168D01*
X017362Y014070D02*
X019908Y014070D01*
X019823Y013971D02*
X019747Y013971D01*
X019849Y013648D02*
X020007Y013648D01*
X020145Y013786D01*
X019282Y013971D02*
X019235Y013971D01*
X018771Y013971D02*
X018123Y013971D01*
X018113Y013980D02*
X018141Y013953D01*
X018161Y013918D01*
X018171Y013880D01*
X018171Y013800D01*
X017771Y013800D01*
X017771Y013800D01*
X017371Y013800D01*
X017371Y013880D01*
X017382Y013918D01*
X017401Y013953D01*
X017429Y013980D01*
X017463Y014000D01*
X017502Y014010D01*
X017771Y014010D01*
X017771Y013800D01*
X017771Y014514D01*
X016916Y014514D01*
X017129Y014727D01*
X017129Y015211D01*
X017179Y015252D02*
X018488Y015252D01*
X018488Y015350D02*
X017535Y015350D01*
X017535Y015449D02*
X018407Y015449D01*
X018309Y015547D02*
X017534Y015547D01*
X017477Y015646D02*
X018210Y015646D01*
X018112Y015744D02*
X014316Y015744D01*
X014144Y015646D02*
X015965Y015646D01*
X015916Y015547D02*
X012902Y015547D01*
X013018Y015449D02*
X015916Y015449D01*
X015916Y015350D02*
X013069Y015350D01*
X013092Y015252D02*
X015916Y015252D01*
X015916Y015153D02*
X013092Y015153D01*
X013052Y015055D02*
X015916Y015055D01*
X015916Y014956D02*
X012977Y014956D01*
X012804Y014858D02*
X015916Y014858D01*
X015982Y014759D02*
X013132Y014759D01*
X013275Y014661D02*
X016092Y014661D01*
X016092Y014562D02*
X013337Y014562D01*
X013367Y014464D02*
X016092Y014464D01*
X016095Y014365D02*
X013367Y014365D01*
X013336Y014267D02*
X016095Y014267D01*
X015889Y014168D02*
X014090Y014168D01*
X013916Y014168D02*
X013272Y014168D01*
X013125Y014070D02*
X013746Y014070D01*
X013673Y013971D02*
X013092Y013971D01*
X013092Y013873D02*
X013175Y013873D01*
X013610Y013873D02*
X013635Y013873D01*
X014259Y014070D02*
X015841Y014070D01*
X015052Y013971D02*
X014333Y013971D01*
X014371Y013873D02*
X015011Y013873D01*
X017187Y014267D02*
X024221Y014267D01*
X024158Y014365D02*
X017204Y014365D01*
X017204Y014464D02*
X024158Y014464D01*
X024249Y014562D02*
X022165Y014562D01*
X022389Y014810D02*
X021857Y014810D01*
X021365Y014829D02*
X018786Y014829D01*
X018708Y014908D01*
X018708Y015459D01*
X017842Y016325D01*
X015007Y016325D01*
X015007Y016050D01*
X015007Y016325D02*
X010952Y016325D01*
X009259Y014633D01*
X009259Y010577D01*
X008432Y009751D01*
X008117Y009751D01*
X008235Y009672D01*
X009024Y010031D02*
X011147Y010031D01*
X011050Y009933D02*
X009798Y009933D01*
X009860Y009834D02*
X010952Y009834D01*
X010855Y009736D02*
X009862Y009736D01*
X009862Y009637D02*
X010758Y009637D01*
X010661Y009539D02*
X009842Y009539D01*
X009574Y009736D02*
X009574Y009736D01*
X009574Y009834D02*
X009574Y009834D01*
X009574Y009933D02*
X009574Y009933D01*
X009349Y009933D02*
X009317Y009933D01*
X009122Y010130D02*
X011244Y010130D01*
X011341Y010228D02*
X009221Y010228D01*
X009319Y010327D02*
X011438Y010327D01*
X011536Y010425D02*
X009418Y010425D01*
X009479Y010524D02*
X011633Y010524D01*
X011730Y010622D02*
X009479Y010622D01*
X009479Y010721D02*
X011827Y010721D01*
X011844Y010839D02*
X011965Y010889D01*
X012057Y010982D01*
X012107Y011103D01*
X012107Y011233D01*
X012057Y011354D01*
X011988Y011424D01*
X012057Y011494D01*
X012107Y011614D01*
X012107Y011745D01*
X012057Y011866D01*
X011965Y011958D01*
X011844Y012009D01*
X011713Y012009D01*
X011592Y011958D01*
X011500Y011866D01*
X011450Y011745D01*
X011450Y011614D01*
X011500Y011494D01*
X011570Y011424D01*
X011500Y011354D01*
X011450Y011233D01*
X011450Y011103D01*
X011500Y010982D01*
X011592Y010889D01*
X011713Y010839D01*
X011844Y010839D01*
X011924Y010819D02*
X009479Y010819D01*
X009479Y010918D02*
X011564Y010918D01*
X011486Y011016D02*
X009479Y011016D01*
X009479Y011115D02*
X011450Y011115D01*
X011450Y011213D02*
X009479Y011213D01*
X009479Y011312D02*
X011482Y011312D01*
X011556Y011410D02*
X009479Y011410D01*
X009479Y011509D02*
X011494Y011509D01*
X011453Y011607D02*
X009479Y011607D01*
X009479Y011706D02*
X011450Y011706D01*
X011474Y011804D02*
X009479Y011804D01*
X009479Y011903D02*
X011537Y011903D01*
X011696Y012001D02*
X009479Y012001D01*
X009479Y012100D02*
X013188Y012100D01*
X013285Y012198D02*
X009479Y012198D01*
X009479Y012297D02*
X012583Y012297D01*
X012484Y012395D02*
X009479Y012395D01*
X009479Y012494D02*
X012386Y012494D01*
X012346Y012592D02*
X009479Y012592D01*
X009479Y012691D02*
X012346Y012691D01*
X012346Y012789D02*
X009479Y012789D01*
X009479Y012888D02*
X012346Y012888D01*
X012346Y012986D02*
X009479Y012986D01*
X009479Y013085D02*
X012346Y013085D01*
X012346Y013183D02*
X009479Y013183D01*
X009479Y013282D02*
X012346Y013282D01*
X012346Y013380D02*
X009479Y013380D01*
X009479Y013479D02*
X012346Y013479D01*
X012346Y013577D02*
X009479Y013577D01*
X009479Y013676D02*
X012346Y013676D01*
X012346Y013774D02*
X009479Y013774D01*
X009479Y013873D02*
X012346Y013873D01*
X012346Y013971D02*
X009479Y013971D01*
X009479Y014070D02*
X012346Y014070D01*
X012346Y014168D02*
X009479Y014168D01*
X009479Y014267D02*
X012346Y014267D01*
X012346Y014365D02*
X009479Y014365D01*
X009479Y014464D02*
X012346Y014464D01*
X012346Y014562D02*
X009500Y014562D01*
X009598Y014661D02*
X012346Y014661D01*
X012346Y014759D02*
X009697Y014759D01*
X009795Y014858D02*
X012346Y014858D01*
X012346Y014956D02*
X009894Y014956D01*
X009992Y015055D02*
X012346Y015055D01*
X012346Y015153D02*
X010091Y015153D01*
X010189Y015252D02*
X012355Y015252D01*
X012378Y015350D02*
X010288Y015350D01*
X010386Y015449D02*
X012429Y015449D01*
X012544Y015547D02*
X010485Y015547D01*
X010583Y015646D02*
X013980Y015646D01*
X013808Y015744D02*
X010682Y015744D01*
X010780Y015843D02*
X013733Y015843D01*
X013694Y015941D02*
X010879Y015941D01*
X010977Y016040D02*
X013694Y016040D01*
X014062Y016010D02*
X014141Y016050D01*
X014495Y016050D01*
X015277Y015843D02*
X018013Y015843D01*
X017915Y015941D02*
X015315Y015941D01*
X015315Y016040D02*
X017816Y016040D01*
X018078Y016522D02*
X018452Y016148D01*
X019141Y016148D01*
X019141Y015814D01*
X019141Y016148D02*
X021109Y016148D01*
X021090Y016325D02*
X021109Y016345D01*
X021090Y016325D02*
X018944Y016325D01*
X018944Y016640D01*
X018944Y016325D02*
X018590Y016325D01*
X018196Y016719D01*
X010716Y016719D01*
X008747Y014751D01*
X008747Y011483D01*
X008708Y011444D01*
X008235Y011444D01*
X009023Y010971D02*
X008668Y010617D01*
X008275Y010617D01*
X008235Y010656D01*
X009023Y010971D02*
X009023Y014711D01*
X010834Y016522D01*
X018078Y016522D01*
X018944Y017152D02*
X019534Y017152D01*
X019653Y017034D01*
X020145Y016542D01*
X021109Y016542D01*
X020932Y016542D01*
X020853Y015951D02*
X020834Y015932D01*
X020834Y015755D01*
X020401Y015755D01*
X020282Y015794D01*
X020834Y015755D02*
X021109Y015755D01*
X021109Y015951D02*
X020853Y015951D01*
X021365Y015499D02*
X021385Y015479D01*
X021385Y015302D01*
X021542Y015302D01*
X021562Y015322D01*
X021562Y015499D01*
X020755Y015262D02*
X020656Y015282D01*
X019653Y015282D02*
X019633Y015302D01*
X018488Y015153D02*
X017535Y015153D01*
X017535Y015055D02*
X018488Y015055D01*
X018488Y014956D02*
X017535Y014956D01*
X017530Y014858D02*
X018488Y014858D01*
X018545Y014759D02*
X017448Y014759D01*
X017204Y014661D02*
X018644Y014661D01*
X018566Y014738D02*
X018566Y014738D01*
X018113Y013980D02*
X018079Y014000D01*
X018041Y014010D01*
X017771Y014010D01*
X017771Y013800D01*
X017771Y013800D01*
X017771Y013800D01*
X017771Y013873D02*
X017771Y013873D01*
X017771Y013971D02*
X017771Y013971D01*
X017420Y013971D02*
X017362Y013971D01*
X017362Y013873D02*
X017371Y013873D01*
X017362Y013774D02*
X017371Y013774D01*
X018171Y013873D02*
X018695Y013873D01*
X017807Y013294D02*
X021739Y013294D01*
X024101Y010932D01*
X024416Y010932D01*
X025108Y011623D01*
X024662Y012099D02*
X024259Y011695D01*
X025054Y012301D02*
X025170Y012185D01*
X025170Y012186D01*
X025226Y012321D01*
X025330Y012425D01*
X025465Y012481D01*
X025612Y012481D01*
X025747Y012425D01*
X025850Y012321D01*
X025906Y012186D01*
X025906Y012048D01*
X026025Y012048D01*
X026160Y011992D01*
X026264Y011888D01*
X026320Y011753D01*
X026320Y011674D01*
X026419Y011674D01*
X026554Y011618D01*
X026658Y011514D01*
X026714Y011379D01*
X026714Y011233D01*
X026658Y011097D01*
X026554Y010994D01*
X026419Y010938D01*
X026418Y010938D01*
X026637Y010718D01*
X026883Y010964D01*
X026911Y010964D01*
X026989Y011042D01*
X027268Y010763D01*
X027275Y010770D01*
X026996Y011049D01*
X027073Y011126D01*
X027073Y011155D01*
X027296Y011377D01*
X027464Y011546D01*
X026842Y012168D01*
X026804Y012260D01*
X026804Y012662D01*
X026219Y013247D01*
X025975Y013003D01*
X025883Y012965D01*
X025666Y012965D01*
X025574Y013003D01*
X025504Y013074D01*
X025504Y013074D01*
X025438Y013140D01*
X025394Y013096D01*
X025115Y013375D01*
X025108Y013368D01*
X025387Y013089D01*
X025310Y013012D01*
X025310Y012983D01*
X025087Y012761D01*
X024841Y012514D01*
X025054Y012301D01*
X025058Y012297D02*
X025216Y012297D01*
X025175Y012198D02*
X025157Y012198D01*
X025300Y012395D02*
X024960Y012395D01*
X024861Y012494D02*
X026804Y012494D01*
X026804Y012592D02*
X024919Y012592D01*
X025017Y012691D02*
X026775Y012691D01*
X026676Y012789D02*
X025116Y012789D01*
X025214Y012888D02*
X026578Y012888D01*
X026479Y012986D02*
X025934Y012986D01*
X026057Y013085D02*
X026381Y013085D01*
X026282Y013183D02*
X026155Y013183D01*
X025615Y012986D02*
X025310Y012986D01*
X025383Y013085D02*
X025492Y013085D01*
X025307Y013183D02*
X025293Y013183D01*
X025208Y013282D02*
X025194Y013282D01*
X025106Y013380D02*
X025096Y013380D01*
X025011Y013479D02*
X024997Y013479D01*
X024913Y013577D02*
X024899Y013577D01*
X024843Y013676D02*
X024714Y013676D01*
X024675Y013774D02*
X024616Y013774D01*
X024600Y013873D02*
X024517Y013873D01*
X024560Y013971D02*
X024220Y013971D01*
X025036Y014396D02*
X025130Y014490D01*
X024912Y014708D01*
X024939Y014735D01*
X025157Y014517D01*
X025255Y014615D01*
X025268Y014638D01*
X025350Y014557D01*
X025431Y014523D01*
X025546Y014408D01*
X025351Y014213D01*
X025351Y014185D01*
X025292Y014125D01*
X025240Y014251D01*
X025137Y014354D01*
X025036Y014396D01*
X025109Y014365D02*
X025504Y014365D01*
X025490Y014464D02*
X025104Y014464D01*
X025111Y014562D02*
X025058Y014562D01*
X025013Y014661D02*
X024959Y014661D01*
X024964Y014759D02*
X024914Y014759D01*
X024912Y014761D02*
X025102Y014952D01*
X024977Y015077D01*
X024942Y015097D01*
X024904Y015107D01*
X024865Y015107D01*
X024827Y015097D01*
X024792Y015077D01*
X024694Y014979D01*
X024912Y014761D01*
X024910Y014759D02*
X024861Y014759D01*
X024816Y014858D02*
X024762Y014858D01*
X024717Y014956D02*
X023056Y014956D01*
X023108Y015055D02*
X024770Y015055D01*
X024999Y015055D02*
X025237Y015055D01*
X025196Y014956D02*
X025098Y014956D01*
X025062Y014858D02*
X025009Y014858D01*
X025322Y015153D02*
X023131Y015153D01*
X023131Y015252D02*
X027385Y015252D01*
X027385Y015350D02*
X023092Y015350D01*
X023018Y015449D02*
X027385Y015449D01*
X027385Y015547D02*
X022847Y015547D01*
X022913Y015646D02*
X023744Y015646D01*
X023907Y015646D02*
X027385Y015646D01*
X027351Y015744D02*
X024080Y015744D01*
X024155Y015843D02*
X027276Y015843D01*
X027237Y015941D02*
X024194Y015941D01*
X024194Y016040D02*
X027237Y016040D01*
X027260Y016138D02*
X024171Y016138D01*
X024120Y016237D02*
X027311Y016237D01*
X027428Y016335D02*
X024356Y016335D01*
X024454Y016434D02*
X029423Y016434D01*
X029423Y016532D02*
X028815Y016532D01*
X028714Y016532D02*
X028614Y016532D01*
X028614Y016631D02*
X028714Y016631D01*
X028714Y016729D02*
X028614Y016729D01*
X028614Y016828D02*
X028714Y016828D01*
X028714Y016926D02*
X028614Y016926D01*
X028614Y017123D02*
X028714Y017123D01*
X028714Y017222D02*
X028614Y017222D01*
X028614Y017320D02*
X028714Y017320D01*
X028714Y017419D02*
X028614Y017419D01*
X028614Y017517D02*
X028714Y017517D01*
X028848Y017517D02*
X029429Y017517D01*
X029289Y017419D02*
X029011Y017419D01*
X029096Y017320D02*
X029200Y017320D01*
X029159Y017222D02*
X029149Y017222D01*
X029653Y017097D02*
X029664Y017030D01*
X029164Y016828D02*
X029145Y016828D01*
X029089Y016729D02*
X029204Y016729D01*
X029300Y016631D02*
X028999Y016631D01*
X028514Y016532D02*
X027874Y016532D01*
X028029Y016631D02*
X028329Y016631D01*
X028240Y016729D02*
X028124Y016729D01*
X028165Y016828D02*
X028184Y016828D01*
X028169Y017222D02*
X028180Y017222D01*
X028129Y017320D02*
X028232Y017320D01*
X028318Y017419D02*
X028039Y017419D01*
X027899Y017517D02*
X028481Y017517D01*
X027429Y017517D02*
X026899Y017517D01*
X027039Y017419D02*
X027289Y017419D01*
X027200Y017320D02*
X027129Y017320D01*
X026429Y017517D02*
X024205Y017517D01*
X024303Y017419D02*
X026289Y017419D01*
X026200Y017320D02*
X024361Y017320D01*
X024361Y017222D02*
X026159Y017222D01*
X026124Y017123D02*
X024361Y017123D01*
X024361Y017025D02*
X026124Y017025D01*
X026124Y016926D02*
X024375Y016926D01*
X024462Y016828D02*
X026164Y016828D01*
X026204Y016729D02*
X024502Y016729D01*
X024509Y016631D02*
X026300Y016631D01*
X026455Y016532D02*
X024494Y016532D01*
X024141Y016640D02*
X024141Y017270D01*
X023905Y017507D01*
X022015Y017507D01*
X021956Y017448D01*
X021956Y016995D01*
X022153Y016995D02*
X022153Y017251D01*
X022172Y017270D01*
X023668Y017270D01*
X023826Y017113D01*
X023826Y016010D01*
X023571Y015744D02*
X022913Y015744D01*
X022913Y015843D02*
X023497Y015843D01*
X023458Y015941D02*
X022913Y015941D01*
X022913Y016040D02*
X023458Y016040D01*
X023480Y016138D02*
X022913Y016138D01*
X022913Y016237D02*
X023532Y016237D01*
X023606Y016335D02*
X022913Y016335D01*
X022913Y016434D02*
X023606Y016434D01*
X023606Y016532D02*
X022913Y016532D01*
X022913Y016631D02*
X023606Y016631D01*
X023606Y016729D02*
X022913Y016729D01*
X022913Y016828D02*
X023606Y016828D01*
X023606Y016926D02*
X022845Y016926D01*
X022569Y017025D02*
X023603Y017025D01*
X024106Y017616D02*
X034989Y017616D01*
X034914Y017517D02*
X031899Y017517D01*
X032039Y017419D02*
X034875Y017419D01*
X034875Y017320D02*
X032129Y017320D01*
X032169Y017222D02*
X034897Y017222D01*
X034948Y017123D02*
X032204Y017123D01*
X032204Y017025D02*
X035064Y017025D01*
X035422Y017025D02*
X036250Y017025D01*
X036348Y016926D02*
X032204Y016926D01*
X032165Y016828D02*
X036447Y016828D01*
X036545Y016729D02*
X032124Y016729D01*
X032029Y016631D02*
X036644Y016631D01*
X036742Y016532D02*
X032900Y016532D01*
X032969Y016434D02*
X036841Y016434D01*
X036939Y016335D02*
X033436Y016335D01*
X033271Y016335D02*
X032972Y016335D01*
X032972Y016237D02*
X033098Y016237D01*
X033024Y016138D02*
X032972Y016138D01*
X032985Y016040D02*
X032944Y016040D01*
X033137Y015755D02*
X032645Y015755D01*
X031660Y015755D01*
X031641Y015774D01*
X030243Y015774D01*
X028550Y014081D01*
X027999Y014081D01*
X027740Y013822D01*
X027720Y013822D01*
X027567Y014044D02*
X027567Y014162D01*
X028393Y014987D01*
X028150Y015055D02*
X027825Y015055D01*
X027825Y015153D02*
X028163Y015153D01*
X028163Y015252D02*
X027825Y015252D01*
X027825Y015350D02*
X028163Y015350D01*
X028163Y015449D02*
X027825Y015449D01*
X027825Y015547D02*
X028163Y015547D01*
X028163Y015646D02*
X027825Y015646D01*
X027860Y015744D02*
X028163Y015744D01*
X028163Y015843D02*
X027934Y015843D01*
X027973Y015941D02*
X028163Y015941D01*
X028254Y016040D02*
X027973Y016040D01*
X027951Y016138D02*
X028353Y016138D01*
X028297Y016083D02*
X028297Y016083D01*
X028451Y016237D02*
X027900Y016237D01*
X027783Y016335D02*
X028550Y016335D01*
X028478Y016263D02*
X028478Y016263D01*
X027605Y016010D02*
X027605Y014514D01*
X027357Y014266D01*
X027278Y014266D01*
X027528Y014044D02*
X027567Y014044D01*
X027385Y014759D02*
X027376Y014759D01*
X027385Y014858D02*
X027277Y014858D01*
X027385Y014956D02*
X026883Y014956D01*
X026924Y014858D02*
X027025Y014858D01*
X026798Y015055D02*
X027385Y015055D01*
X027385Y015153D02*
X025794Y015153D01*
X025879Y015055D02*
X026326Y015055D01*
X026241Y014956D02*
X025920Y014956D01*
X025926Y014858D02*
X025996Y014858D01*
X025558Y014869D02*
X025558Y014707D01*
X025999Y014266D01*
X025964Y014266D01*
X025999Y014266D02*
X027772Y012507D01*
X029141Y012507D01*
X030282Y011365D01*
X030834Y011365D01*
X031962Y012493D01*
X033191Y012493D01*
X033186Y013018D02*
X032723Y013018D01*
X032586Y013077D01*
X030078Y013077D01*
X030046Y013046D01*
X028944Y013176D02*
X030479Y011640D01*
X030597Y011640D01*
X030637Y011680D01*
X029928Y010782D02*
X028611Y012099D01*
X028389Y011841D02*
X029436Y010794D01*
X029436Y010322D01*
X029495Y010302D01*
X028983Y010105D02*
X028700Y010105D01*
X028212Y010593D01*
X027527Y010262D02*
X027330Y010262D01*
X027052Y010540D01*
X027211Y010819D02*
X027225Y010819D01*
X027127Y010918D02*
X027113Y010918D01*
X027028Y011016D02*
X027014Y011016D01*
X026963Y011016D02*
X026577Y011016D01*
X026665Y011115D02*
X027062Y011115D01*
X027132Y011213D02*
X026706Y011213D01*
X026714Y011312D02*
X027230Y011312D01*
X027329Y011410D02*
X026701Y011410D01*
X026660Y011509D02*
X027427Y011509D01*
X027403Y011607D02*
X026564Y011607D01*
X026320Y011706D02*
X027304Y011706D01*
X027206Y011804D02*
X026299Y011804D01*
X026249Y011903D02*
X027107Y011903D01*
X027009Y012001D02*
X026137Y012001D01*
X025906Y012100D02*
X026910Y012100D01*
X026830Y012198D02*
X025901Y012198D01*
X025861Y012297D02*
X026804Y012297D01*
X026804Y012395D02*
X025776Y012395D01*
X028205Y013402D02*
X028205Y013500D01*
X030086Y015381D01*
X033432Y015381D01*
X034141Y016089D01*
X036345Y016089D01*
X036582Y015853D01*
X036582Y015388D01*
X036138Y015646D02*
X035798Y015646D01*
X035799Y015644D02*
X035788Y015683D01*
X035769Y015717D01*
X035741Y015745D01*
X035707Y015764D01*
X035668Y015775D01*
X035443Y015775D01*
X035443Y015360D01*
X035799Y015360D01*
X035799Y015644D01*
X035799Y015547D02*
X036073Y015547D01*
X036073Y015449D02*
X035799Y015449D01*
X035799Y015252D02*
X036073Y015252D01*
X036073Y015350D02*
X035443Y015350D01*
X035443Y015449D02*
X035343Y015449D01*
X035343Y015547D02*
X035443Y015547D01*
X035443Y015646D02*
X035343Y015646D01*
X035343Y015744D02*
X035443Y015744D01*
X035741Y015744D02*
X036362Y015744D01*
X036281Y015843D02*
X034206Y015843D01*
X034229Y015744D02*
X034107Y015744D01*
X034179Y015646D02*
X034009Y015646D01*
X033910Y015547D02*
X034179Y015547D01*
X034179Y015449D02*
X033811Y015449D01*
X033713Y015350D02*
X034179Y015350D01*
X034179Y015252D02*
X033614Y015252D01*
X034179Y015153D02*
X032750Y015153D01*
X032848Y015055D02*
X034179Y015055D01*
X034179Y014956D02*
X032947Y014956D01*
X033045Y014858D02*
X034246Y014858D01*
X034443Y014759D02*
X033144Y014759D01*
X033380Y014661D02*
X034443Y014661D01*
X034443Y014562D02*
X033550Y014562D01*
X033624Y014464D02*
X034443Y014464D01*
X034500Y014365D02*
X033662Y014365D01*
X033662Y014267D02*
X034415Y014267D01*
X035001Y014267D02*
X037110Y014267D01*
X037080Y014168D02*
X035046Y014168D01*
X035122Y014070D02*
X037080Y014070D01*
X036999Y013971D02*
X036952Y013971D01*
X037231Y013904D02*
X037231Y013648D01*
X037231Y013904D02*
X037448Y014121D01*
X037786Y014267D02*
X038812Y014267D01*
X038812Y014365D02*
X037724Y014365D01*
X037581Y014464D02*
X038812Y014464D01*
X038812Y014562D02*
X035551Y014562D01*
X035551Y014475D02*
X035551Y014653D01*
X035282Y014653D01*
X035282Y014345D01*
X035420Y014345D01*
X035458Y014355D01*
X035493Y014375D01*
X035521Y014403D01*
X035540Y014437D01*
X035551Y014475D01*
X035548Y014464D02*
X037314Y014464D01*
X037172Y014365D02*
X035476Y014365D01*
X035282Y014365D02*
X035244Y014365D01*
X035244Y014464D02*
X035282Y014464D01*
X035282Y014562D02*
X035244Y014562D01*
X035282Y014661D02*
X038812Y014661D01*
X038812Y014759D02*
X035551Y014759D01*
X035712Y014858D02*
X036144Y014858D01*
X036073Y014956D02*
X035794Y014956D01*
X035799Y015055D02*
X036073Y015055D01*
X036073Y015153D02*
X035799Y015153D01*
X035044Y015744D02*
X034982Y015744D01*
X033977Y016237D02*
X033608Y016237D01*
X033683Y016138D02*
X033879Y016138D01*
X033780Y016040D02*
X033721Y016040D01*
X033353Y015971D02*
X033137Y015755D01*
X032626Y016285D02*
X032318Y016285D01*
X032318Y016424D01*
X032328Y016462D01*
X032347Y016496D01*
X032375Y016524D01*
X032410Y016544D01*
X032448Y016554D01*
X032626Y016554D01*
X032626Y016285D01*
X032626Y016335D02*
X032664Y016335D01*
X032664Y016434D02*
X032626Y016434D01*
X032626Y016532D02*
X032664Y016532D01*
X032390Y016532D02*
X031950Y016532D01*
X032008Y016434D02*
X032320Y016434D01*
X032318Y016335D02*
X032008Y016335D01*
X032008Y016237D02*
X032318Y016237D01*
X032318Y016138D02*
X032008Y016138D01*
X031989Y016040D02*
X032346Y016040D01*
X031660Y016266D02*
X031660Y017105D01*
X031664Y017030D01*
X031200Y017320D02*
X031129Y017320D01*
X031039Y017419D02*
X031289Y017419D01*
X031429Y017517D02*
X030899Y017517D01*
X030429Y017517D02*
X029899Y017517D01*
X030039Y017419D02*
X030289Y017419D01*
X030200Y017320D02*
X030129Y017320D01*
X027455Y016532D02*
X026874Y016532D01*
X027029Y016631D02*
X027300Y016631D01*
X027204Y016729D02*
X027124Y016729D01*
X029259Y014278D02*
X030086Y015105D01*
X032487Y015105D01*
X033294Y014298D01*
X033639Y014168D02*
X033676Y014168D01*
X035001Y014365D02*
X035049Y014365D01*
X035122Y013971D02*
X035221Y013971D01*
X035137Y013873D02*
X035122Y013873D01*
X035122Y013774D02*
X035131Y013774D01*
X035122Y013676D02*
X035134Y013676D01*
X035531Y013773D02*
X035531Y013773D01*
X035931Y013773D01*
X035531Y013773D01*
X035531Y013774D02*
X035531Y013774D01*
X035531Y013873D02*
X035531Y013873D01*
X035531Y013971D02*
X035531Y013971D01*
X035841Y013971D02*
X036487Y013971D01*
X036412Y013873D02*
X035926Y013873D01*
X035931Y013774D02*
X036412Y013774D01*
X037539Y013676D02*
X037978Y013676D01*
X037882Y013577D02*
X037539Y013577D01*
X037574Y013774D02*
X038812Y013774D01*
X038812Y013676D02*
X038413Y013676D01*
X038510Y013577D02*
X038812Y013577D01*
X038812Y013479D02*
X038550Y013479D01*
X038564Y013380D02*
X038812Y013380D01*
X038812Y013282D02*
X038557Y013282D01*
X038516Y013183D02*
X038812Y013183D01*
X038812Y013085D02*
X038429Y013085D01*
X038126Y012986D02*
X038812Y012986D01*
X038812Y012888D02*
X038131Y012888D01*
X038115Y012789D02*
X038812Y012789D01*
X038812Y012691D02*
X038074Y012691D01*
X037975Y012592D02*
X038812Y012592D01*
X038812Y012494D02*
X038041Y012494D01*
X038082Y012395D02*
X038837Y012395D01*
X038871Y012297D02*
X038104Y012297D01*
X038104Y012198D02*
X038871Y012198D01*
X038895Y012100D02*
X038073Y012100D01*
X038021Y012001D02*
X038948Y012001D01*
X039069Y011903D02*
X037922Y011903D01*
X037747Y011804D02*
X039360Y011804D01*
X039459Y011706D02*
X037849Y011706D01*
X037951Y011607D02*
X039557Y011607D01*
X039656Y011509D02*
X038053Y011509D01*
X038154Y011410D02*
X039754Y011410D01*
X039853Y011312D02*
X038256Y011312D01*
X038358Y011213D02*
X039951Y011213D01*
X040050Y011115D02*
X038460Y011115D01*
X038562Y011016D02*
X040148Y011016D01*
X040247Y010918D02*
X038663Y010918D01*
X038765Y010819D02*
X040345Y010819D01*
X040444Y010721D02*
X038867Y010721D01*
X038969Y010622D02*
X040542Y010622D01*
X040641Y010524D02*
X039070Y010524D01*
X039172Y010425D02*
X040739Y010425D01*
X040838Y010327D02*
X039274Y010327D01*
X039376Y010228D02*
X040936Y010228D01*
X041035Y010130D02*
X039477Y010130D01*
X039579Y010031D02*
X041133Y010031D01*
X041232Y009933D02*
X039681Y009933D01*
X039783Y009834D02*
X041330Y009834D01*
X041429Y009736D02*
X039884Y009736D01*
X039986Y009637D02*
X041489Y009637D01*
X041498Y009539D02*
X040088Y009539D01*
X040190Y009440D02*
X041538Y009440D01*
X041627Y009342D02*
X040291Y009342D01*
X041378Y009243D02*
X042986Y009243D01*
X042880Y009342D02*
X042087Y009342D01*
X042176Y009440D02*
X042782Y009440D01*
X042683Y009539D02*
X042217Y009539D01*
X042225Y009637D02*
X042585Y009637D01*
X042486Y009736D02*
X042365Y009736D01*
X042566Y009967D02*
X042979Y009554D01*
X043196Y009554D01*
X043564Y009539D02*
X044638Y009539D01*
X044638Y009637D02*
X043560Y009637D01*
X043547Y009440D02*
X044638Y009440D01*
X044638Y009342D02*
X043504Y009342D01*
X043406Y009243D02*
X044638Y009243D01*
X044638Y009145D02*
X041517Y009145D01*
X041616Y009046D02*
X044638Y009046D01*
X044638Y008948D02*
X041714Y008948D01*
X041813Y008849D02*
X044638Y008849D01*
X044638Y008751D02*
X042966Y008751D01*
X043019Y008652D02*
X044638Y008652D01*
X044638Y008554D02*
X043019Y008554D01*
X043019Y008455D02*
X044638Y008455D01*
X044638Y008357D02*
X043019Y008357D01*
X043512Y008258D02*
X044638Y008258D01*
X044638Y008160D02*
X043610Y008160D01*
X043662Y008061D02*
X044638Y008061D01*
X044638Y007963D02*
X043701Y007963D01*
X043701Y007864D02*
X044638Y007864D01*
X044638Y007766D02*
X043693Y007766D01*
X043652Y007667D02*
X044638Y007667D01*
X044638Y007569D02*
X043585Y007569D01*
X043470Y007470D02*
X044638Y007470D01*
X044638Y007372D02*
X043019Y007372D01*
X043493Y007273D02*
X044638Y007273D01*
X044638Y007175D02*
X043595Y007175D01*
X043656Y007076D02*
X044638Y007076D01*
X044638Y006978D02*
X043697Y006978D01*
X043701Y006879D02*
X044638Y006879D01*
X044638Y006781D02*
X043699Y006781D01*
X043658Y006682D02*
X044638Y006682D01*
X044638Y006584D02*
X043600Y006584D01*
X043502Y006485D02*
X044638Y006485D01*
X044638Y006387D02*
X040260Y006387D01*
X040161Y006485D02*
X042969Y006485D01*
X042870Y006584D02*
X040063Y006584D01*
X039651Y006288D02*
X039417Y006288D01*
X039425Y006280D02*
X039397Y006308D01*
X039363Y006328D01*
X039325Y006338D01*
X038730Y006338D01*
X038730Y005313D01*
X038630Y005313D01*
X037955Y005313D01*
X037955Y005213D01*
X038630Y005213D01*
X038630Y005313D01*
X038630Y006338D01*
X038036Y006338D01*
X037997Y006328D01*
X037963Y006308D01*
X037935Y006280D01*
X037935Y006279D01*
X037856Y006358D01*
X036667Y006358D01*
X036359Y006665D01*
X036359Y010525D01*
X036568Y010316D01*
X036568Y008798D01*
X036465Y008798D01*
X036365Y008698D01*
X036365Y006708D01*
X036465Y006608D01*
X037856Y006608D01*
X037920Y006673D01*
X037985Y006608D01*
X039376Y006608D01*
X039403Y006635D01*
X039403Y006591D01*
X039441Y006499D01*
X039511Y006428D01*
X039909Y006031D01*
X039909Y004268D01*
X040008Y004168D01*
X041235Y004168D01*
X041235Y003935D01*
X041591Y003935D01*
X041591Y004188D01*
X041691Y004188D01*
X041691Y003935D01*
X041591Y003935D01*
X041591Y003835D01*
X041235Y003835D01*
X041235Y003623D01*
X039518Y003623D01*
X039571Y003676D01*
X039627Y003811D01*
X039627Y003958D01*
X039571Y004093D01*
X039467Y004197D01*
X039403Y004223D01*
X039425Y004246D01*
X039445Y004280D01*
X039455Y004318D01*
X039455Y005213D01*
X038730Y005213D01*
X038730Y005313D01*
X039455Y005313D01*
X039455Y006208D01*
X039445Y006246D01*
X039425Y006280D01*
X039455Y006190D02*
X039750Y006190D01*
X039848Y006091D02*
X039455Y006091D01*
X039455Y005993D02*
X039909Y005993D01*
X039909Y005894D02*
X039455Y005894D01*
X039455Y005796D02*
X039909Y005796D01*
X039909Y005697D02*
X039455Y005697D01*
X039455Y005599D02*
X039909Y005599D01*
X039909Y005500D02*
X039455Y005500D01*
X039455Y005402D02*
X039909Y005402D01*
X039909Y005303D02*
X038730Y005303D01*
X038730Y005402D02*
X038630Y005402D01*
X038630Y005500D02*
X038730Y005500D01*
X038730Y005599D02*
X038630Y005599D01*
X038630Y005697D02*
X038730Y005697D01*
X038730Y005796D02*
X038630Y005796D01*
X038630Y005894D02*
X038730Y005894D01*
X038730Y005993D02*
X038630Y005993D01*
X038630Y006091D02*
X038730Y006091D01*
X038730Y006190D02*
X038630Y006190D01*
X038630Y006288D02*
X038730Y006288D01*
X039405Y006584D02*
X036441Y006584D01*
X036390Y006682D02*
X036359Y006682D01*
X036359Y006781D02*
X036365Y006781D01*
X036359Y006879D02*
X036365Y006879D01*
X036359Y006978D02*
X036365Y006978D01*
X036359Y007076D02*
X036365Y007076D01*
X036359Y007175D02*
X036365Y007175D01*
X036359Y007273D02*
X036365Y007273D01*
X036359Y007372D02*
X036365Y007372D01*
X036359Y007470D02*
X036365Y007470D01*
X036359Y007569D02*
X036365Y007569D01*
X036359Y007667D02*
X036365Y007667D01*
X036359Y007766D02*
X036365Y007766D01*
X036359Y007864D02*
X036365Y007864D01*
X036359Y007963D02*
X036365Y007963D01*
X036359Y008061D02*
X036365Y008061D01*
X036359Y008160D02*
X036365Y008160D01*
X036359Y008258D02*
X036365Y008258D01*
X036359Y008357D02*
X036365Y008357D01*
X036359Y008455D02*
X036365Y008455D01*
X036359Y008554D02*
X036365Y008554D01*
X036359Y008652D02*
X036365Y008652D01*
X036359Y008751D02*
X036418Y008751D01*
X036359Y008849D02*
X036568Y008849D01*
X036568Y008948D02*
X036359Y008948D01*
X036359Y009046D02*
X036568Y009046D01*
X036568Y009145D02*
X036359Y009145D01*
X036359Y009243D02*
X036568Y009243D01*
X036568Y009342D02*
X036359Y009342D01*
X036359Y009440D02*
X036568Y009440D01*
X036568Y009539D02*
X036359Y009539D01*
X036359Y009637D02*
X036568Y009637D01*
X036568Y009736D02*
X036359Y009736D01*
X036359Y009834D02*
X036568Y009834D01*
X036568Y009933D02*
X036359Y009933D01*
X036359Y010031D02*
X036568Y010031D01*
X036568Y010130D02*
X036359Y010130D01*
X036359Y010228D02*
X036568Y010228D01*
X036557Y010327D02*
X036359Y010327D01*
X036359Y010425D02*
X036459Y010425D01*
X036359Y010524D02*
X036360Y010524D01*
X037290Y009987D02*
X037290Y008963D01*
X034121Y010577D02*
X034141Y011168D01*
X034416Y011444D01*
X034243Y011995D02*
X034361Y012113D01*
X034243Y011995D02*
X034121Y011995D01*
X032513Y010420D02*
X032513Y006491D01*
X032510Y006450D01*
X032513Y006442D01*
X032513Y006433D01*
X032529Y006395D01*
X032542Y006356D01*
X032548Y006349D01*
X032551Y006341D01*
X032580Y006312D01*
X032822Y006036D01*
X032822Y004268D01*
X032922Y004168D01*
X034109Y004168D01*
X034109Y003935D01*
X034465Y003935D01*
X034465Y003835D01*
X034109Y003835D01*
X034109Y003623D01*
X032432Y003623D01*
X032484Y003676D01*
X032540Y003811D01*
X032540Y003958D01*
X032484Y004093D01*
X032381Y004197D01*
X032316Y004223D01*
X032339Y004246D01*
X032358Y004280D01*
X032369Y004318D01*
X032369Y005213D01*
X031644Y005213D01*
X031644Y005313D01*
X032369Y005313D01*
X032369Y006208D01*
X032358Y006246D01*
X032339Y006280D01*
X032311Y006308D01*
X032277Y006328D01*
X032238Y006338D01*
X031644Y006338D01*
X031644Y005313D01*
X031544Y005313D01*
X031544Y006338D01*
X030949Y006338D01*
X030911Y006328D01*
X030877Y006308D01*
X030849Y006280D01*
X030848Y006279D01*
X030769Y006358D01*
X029592Y006358D01*
X029469Y006498D01*
X029469Y006608D01*
X030769Y006608D01*
X030834Y006673D01*
X030898Y006608D01*
X032289Y006608D01*
X032389Y006708D01*
X032389Y008698D01*
X032289Y008798D01*
X031858Y008798D01*
X031870Y009730D01*
X032513Y010420D01*
X032513Y010327D02*
X032426Y010327D01*
X032513Y010228D02*
X032334Y010228D01*
X032242Y010130D02*
X032513Y010130D01*
X032513Y010031D02*
X032151Y010031D01*
X032059Y009933D02*
X032513Y009933D01*
X032513Y009834D02*
X031967Y009834D01*
X031876Y009736D02*
X032513Y009736D01*
X032513Y009637D02*
X031869Y009637D01*
X031867Y009539D02*
X032513Y009539D01*
X032513Y009440D02*
X031866Y009440D01*
X031865Y009342D02*
X032513Y009342D01*
X032513Y009243D02*
X031864Y009243D01*
X031862Y009145D02*
X032513Y009145D01*
X032513Y009046D02*
X031861Y009046D01*
X031860Y008948D02*
X032513Y008948D01*
X032513Y008849D02*
X031858Y008849D01*
X032336Y008751D02*
X032513Y008751D01*
X032513Y008652D02*
X032389Y008652D01*
X032389Y008554D02*
X032513Y008554D01*
X032513Y008455D02*
X032389Y008455D01*
X032389Y008357D02*
X032513Y008357D01*
X032513Y008258D02*
X032389Y008258D01*
X032389Y008160D02*
X032513Y008160D01*
X032513Y008061D02*
X032389Y008061D01*
X032389Y007963D02*
X032513Y007963D01*
X032513Y007864D02*
X032389Y007864D01*
X032389Y007766D02*
X032513Y007766D01*
X032513Y007667D02*
X032389Y007667D01*
X032389Y007569D02*
X032513Y007569D01*
X032513Y007470D02*
X032389Y007470D01*
X032389Y007372D02*
X032513Y007372D01*
X032513Y007273D02*
X032389Y007273D01*
X032389Y007175D02*
X032513Y007175D01*
X032513Y007076D02*
X032389Y007076D01*
X032389Y006978D02*
X032513Y006978D01*
X032513Y006879D02*
X032389Y006879D01*
X032389Y006781D02*
X032513Y006781D01*
X032513Y006682D02*
X032363Y006682D01*
X032513Y006584D02*
X029469Y006584D01*
X029481Y006485D02*
X032512Y006485D01*
X032531Y006387D02*
X029567Y006387D01*
X029161Y006091D02*
X028825Y006091D01*
X028825Y005993D02*
X029247Y005993D01*
X029279Y005894D02*
X028825Y005894D01*
X028825Y005796D02*
X029279Y005796D01*
X029279Y005697D02*
X028825Y005697D01*
X028825Y005599D02*
X029279Y005599D01*
X029279Y005500D02*
X028825Y005500D01*
X028825Y005402D02*
X029279Y005402D01*
X029279Y005303D02*
X028100Y005303D01*
X028100Y005313D02*
X028825Y005313D01*
X028825Y006208D01*
X028815Y006246D01*
X028795Y006280D01*
X028767Y006308D01*
X028733Y006328D01*
X028695Y006338D01*
X028100Y006338D01*
X028100Y005313D01*
X028100Y005402D02*
X028000Y005402D01*
X028000Y005500D02*
X028100Y005500D01*
X028100Y005599D02*
X028000Y005599D01*
X028000Y005697D02*
X028100Y005697D01*
X028100Y005796D02*
X028000Y005796D01*
X028000Y005894D02*
X028100Y005894D01*
X028100Y005993D02*
X028000Y005993D01*
X028000Y006091D02*
X028100Y006091D01*
X028100Y006190D02*
X028000Y006190D01*
X028000Y006288D02*
X028100Y006288D01*
X027314Y006288D02*
X027295Y006288D01*
X025929Y006387D02*
X028968Y006387D01*
X028969Y006485D02*
X025830Y006485D01*
X025338Y006271D02*
X025735Y005873D01*
X025735Y004268D01*
X025835Y004168D01*
X027022Y004168D01*
X027022Y003935D01*
X027378Y003935D01*
X027378Y003835D01*
X027022Y003835D01*
X027022Y003623D01*
X025345Y003623D01*
X025398Y003676D01*
X025454Y003811D01*
X025454Y003958D01*
X025398Y004093D01*
X025294Y004197D01*
X025230Y004223D01*
X025252Y004246D01*
X025272Y004280D01*
X025282Y004318D01*
X025282Y005213D01*
X024557Y005213D01*
X024557Y005313D01*
X024457Y005313D01*
X024457Y006338D01*
X023862Y006338D01*
X023824Y006328D01*
X023790Y006308D01*
X023762Y006280D01*
X023761Y006279D01*
X023682Y006358D01*
X022572Y006358D01*
X022322Y006608D01*
X023682Y006608D01*
X023747Y006673D01*
X023812Y006608D01*
X025202Y006608D01*
X025229Y006635D01*
X025229Y006433D01*
X025267Y006341D01*
X025338Y006271D01*
X025320Y006288D02*
X025244Y006288D01*
X025252Y006280D02*
X025224Y006308D01*
X025190Y006328D01*
X025152Y006338D01*
X024557Y006338D01*
X024557Y005313D01*
X025282Y005313D01*
X025282Y006208D01*
X025272Y006246D01*
X025252Y006280D01*
X025282Y006190D02*
X025419Y006190D01*
X025517Y006091D02*
X025282Y006091D01*
X025282Y005993D02*
X025616Y005993D01*
X025714Y005894D02*
X025282Y005894D01*
X025282Y005796D02*
X025735Y005796D01*
X025735Y005697D02*
X025282Y005697D01*
X025282Y005599D02*
X025735Y005599D01*
X025735Y005500D02*
X025282Y005500D01*
X025282Y005402D02*
X025735Y005402D01*
X025735Y005303D02*
X024557Y005303D01*
X024557Y005213D02*
X024557Y004350D01*
X024457Y004350D01*
X024457Y005213D01*
X024557Y005213D01*
X024557Y005205D02*
X024457Y005205D01*
X024457Y005106D02*
X024557Y005106D01*
X024557Y005008D02*
X024457Y005008D01*
X024457Y004909D02*
X024557Y004909D01*
X024557Y004811D02*
X024457Y004811D01*
X024457Y004712D02*
X024557Y004712D01*
X024557Y004614D02*
X024457Y004614D01*
X024457Y004515D02*
X024557Y004515D01*
X024557Y004417D02*
X024457Y004417D01*
X023835Y003935D02*
X023479Y003935D01*
X023479Y004168D01*
X022292Y004168D01*
X022192Y004268D01*
X022192Y006031D01*
X021873Y006350D01*
X021803Y006420D01*
X021765Y006512D01*
X021765Y008505D01*
X021759Y008511D01*
X021759Y006708D01*
X021659Y006608D01*
X020268Y006608D01*
X020204Y006673D01*
X020139Y006608D01*
X018779Y006608D01*
X019029Y006358D01*
X020139Y006358D01*
X020218Y006279D01*
X020219Y006280D01*
X020247Y006308D01*
X020281Y006328D01*
X020319Y006338D01*
X020914Y006338D01*
X020914Y005313D01*
X021014Y005313D01*
X021739Y005313D01*
X021739Y006208D01*
X021729Y006246D01*
X021709Y006280D01*
X021681Y006308D01*
X021647Y006328D01*
X021608Y006338D01*
X021014Y006338D01*
X021014Y005313D01*
X021014Y005213D01*
X021739Y005213D01*
X021739Y004318D01*
X021729Y004280D01*
X021709Y004246D01*
X021686Y004223D01*
X021751Y004197D01*
X021854Y004093D01*
X021910Y003958D01*
X021910Y003811D01*
X021854Y003676D01*
X021802Y003623D01*
X023479Y003623D01*
X023479Y003835D01*
X023835Y003835D01*
X023835Y003935D01*
X023835Y003924D02*
X021910Y003924D01*
X021910Y003826D02*
X023479Y003826D01*
X023479Y003727D02*
X021876Y003727D01*
X021807Y003629D02*
X023479Y003629D01*
X023479Y004023D02*
X021883Y004023D01*
X021826Y004121D02*
X023479Y004121D01*
X022240Y004220D02*
X021695Y004220D01*
X021739Y004318D02*
X022192Y004318D01*
X022192Y004417D02*
X021739Y004417D01*
X021739Y004515D02*
X022192Y004515D01*
X022192Y004614D02*
X021739Y004614D01*
X021739Y004712D02*
X022192Y004712D01*
X022192Y004811D02*
X021739Y004811D01*
X021739Y004909D02*
X022192Y004909D01*
X022192Y005008D02*
X021739Y005008D01*
X021739Y005106D02*
X022192Y005106D01*
X022192Y005205D02*
X021739Y005205D01*
X021739Y005402D02*
X022192Y005402D01*
X022192Y005500D02*
X021739Y005500D01*
X021739Y005599D02*
X022192Y005599D01*
X022192Y005697D02*
X021739Y005697D01*
X021739Y005796D02*
X022192Y005796D01*
X022192Y005894D02*
X021739Y005894D01*
X021739Y005993D02*
X022192Y005993D01*
X022132Y006091D02*
X021739Y006091D01*
X021739Y006190D02*
X022033Y006190D01*
X021935Y006288D02*
X021700Y006288D01*
X021836Y006387D02*
X019000Y006387D01*
X018901Y006485D02*
X021776Y006485D01*
X021765Y006584D02*
X018803Y006584D01*
X018391Y006288D02*
X018157Y006288D01*
X018165Y006280D02*
X018138Y006308D01*
X018103Y006328D01*
X018065Y006338D01*
X017470Y006338D01*
X017470Y005313D01*
X018195Y005313D01*
X018195Y006208D01*
X018185Y006246D01*
X018165Y006280D01*
X018195Y006190D02*
X018490Y006190D01*
X018588Y006091D02*
X018195Y006091D01*
X018195Y005993D02*
X018649Y005993D01*
X018649Y005894D02*
X018195Y005894D01*
X018195Y005796D02*
X018649Y005796D01*
X018649Y005697D02*
X018195Y005697D01*
X018195Y005599D02*
X018649Y005599D01*
X018649Y005500D02*
X018195Y005500D01*
X018195Y005402D02*
X018649Y005402D01*
X018649Y005303D02*
X017470Y005303D01*
X017470Y005205D02*
X017370Y005205D01*
X017370Y005106D02*
X017470Y005106D01*
X017470Y005008D02*
X017370Y005008D01*
X017370Y004909D02*
X017470Y004909D01*
X017470Y004811D02*
X017370Y004811D01*
X017370Y004712D02*
X017470Y004712D01*
X017470Y004614D02*
X017370Y004614D01*
X017370Y004515D02*
X017470Y004515D01*
X017470Y004417D02*
X017370Y004417D01*
X018151Y004220D02*
X018696Y004220D01*
X018649Y004318D02*
X018195Y004318D01*
X018195Y004417D02*
X018649Y004417D01*
X018649Y004515D02*
X018195Y004515D01*
X018195Y004614D02*
X018649Y004614D01*
X018649Y004712D02*
X018195Y004712D01*
X018195Y004811D02*
X018649Y004811D01*
X018649Y004909D02*
X018195Y004909D01*
X018195Y005008D02*
X018649Y005008D01*
X018649Y005106D02*
X018195Y005106D01*
X018195Y005205D02*
X018649Y005205D01*
X017470Y005402D02*
X017370Y005402D01*
X017370Y005500D02*
X017470Y005500D01*
X017470Y005599D02*
X017370Y005599D01*
X017370Y005697D02*
X017470Y005697D01*
X017470Y005796D02*
X017370Y005796D01*
X017370Y005894D02*
X017470Y005894D01*
X017470Y005993D02*
X017370Y005993D01*
X017370Y006091D02*
X017470Y006091D01*
X017470Y006190D02*
X017370Y006190D01*
X017370Y006288D02*
X017470Y006288D01*
X018232Y006485D02*
X015358Y006485D01*
X015457Y006387D02*
X018293Y006387D01*
X018221Y006584D02*
X015260Y006584D01*
X016665Y006288D02*
X016684Y006288D01*
X018190Y006682D02*
X018221Y006682D01*
X018215Y006781D02*
X018221Y006781D01*
X018215Y006879D02*
X018221Y006879D01*
X018215Y006978D02*
X018221Y006978D01*
X018215Y007076D02*
X018221Y007076D01*
X018215Y007175D02*
X018221Y007175D01*
X018215Y007273D02*
X018221Y007273D01*
X018215Y007372D02*
X018221Y007372D01*
X018215Y007470D02*
X018221Y007470D01*
X018215Y007569D02*
X018221Y007569D01*
X018215Y007667D02*
X018221Y007667D01*
X018215Y007766D02*
X018221Y007766D01*
X018215Y007864D02*
X018221Y007864D01*
X018215Y007963D02*
X018221Y007963D01*
X018215Y008061D02*
X018221Y008061D01*
X018215Y008160D02*
X018221Y008160D01*
X018215Y008258D02*
X018221Y008258D01*
X018215Y008357D02*
X018221Y008357D01*
X018215Y008455D02*
X018221Y008455D01*
X018215Y008554D02*
X018221Y008554D01*
X018215Y008652D02*
X018221Y008652D01*
X018221Y008751D02*
X018163Y008751D01*
X018221Y008849D02*
X017687Y008849D01*
X017688Y008948D02*
X018221Y008948D01*
X018221Y009046D02*
X017690Y009046D01*
X017691Y009145D02*
X018221Y009145D01*
X018221Y009243D02*
X017692Y009243D01*
X017694Y009342D02*
X018221Y009342D01*
X018221Y009440D02*
X017695Y009440D01*
X021759Y008455D02*
X021765Y008455D01*
X021759Y008357D02*
X021765Y008357D01*
X021759Y008258D02*
X021765Y008258D01*
X021759Y008160D02*
X021765Y008160D01*
X021759Y008061D02*
X021765Y008061D01*
X021759Y007963D02*
X021765Y007963D01*
X021759Y007864D02*
X021765Y007864D01*
X021759Y007766D02*
X021765Y007766D01*
X021759Y007667D02*
X021765Y007667D01*
X021759Y007569D02*
X021765Y007569D01*
X021759Y007470D02*
X021765Y007470D01*
X021759Y007372D02*
X021765Y007372D01*
X021759Y007273D02*
X021765Y007273D01*
X021759Y007175D02*
X021765Y007175D01*
X021759Y007076D02*
X021765Y007076D01*
X021759Y006978D02*
X021765Y006978D01*
X021759Y006879D02*
X021765Y006879D01*
X021759Y006781D02*
X021765Y006781D01*
X021765Y006682D02*
X021734Y006682D01*
X022346Y006584D02*
X025229Y006584D01*
X025229Y006485D02*
X022445Y006485D01*
X022543Y006387D02*
X025249Y006387D01*
X024557Y006288D02*
X024457Y006288D01*
X024457Y006190D02*
X024557Y006190D01*
X024557Y006091D02*
X024457Y006091D01*
X024457Y005993D02*
X024557Y005993D01*
X024557Y005894D02*
X024457Y005894D01*
X024457Y005796D02*
X024557Y005796D01*
X024557Y005697D02*
X024457Y005697D01*
X024457Y005599D02*
X024557Y005599D01*
X024557Y005500D02*
X024457Y005500D01*
X024457Y005402D02*
X024557Y005402D01*
X025282Y005205D02*
X025735Y005205D01*
X025735Y005106D02*
X025282Y005106D01*
X025282Y005008D02*
X025735Y005008D01*
X025735Y004909D02*
X025282Y004909D01*
X025282Y004811D02*
X025735Y004811D01*
X025735Y004712D02*
X025282Y004712D01*
X025282Y004614D02*
X025735Y004614D01*
X025735Y004515D02*
X025282Y004515D01*
X025282Y004417D02*
X025735Y004417D01*
X025735Y004318D02*
X025282Y004318D01*
X025238Y004220D02*
X025783Y004220D01*
X025427Y004023D02*
X027022Y004023D01*
X027022Y004121D02*
X025369Y004121D01*
X025454Y003924D02*
X027378Y003924D01*
X027022Y003826D02*
X025454Y003826D01*
X025419Y003727D02*
X027022Y003727D01*
X027022Y003629D02*
X025351Y003629D01*
X028000Y004417D02*
X028100Y004417D01*
X028100Y004515D02*
X028000Y004515D01*
X028000Y004614D02*
X028100Y004614D01*
X028100Y004712D02*
X028000Y004712D01*
X028000Y004811D02*
X028100Y004811D01*
X028100Y004909D02*
X028000Y004909D01*
X028000Y005008D02*
X028100Y005008D01*
X028100Y005106D02*
X028000Y005106D01*
X028000Y005205D02*
X028100Y005205D01*
X028825Y005205D02*
X029279Y005205D01*
X029279Y005106D02*
X028825Y005106D01*
X028825Y005008D02*
X029279Y005008D01*
X029279Y004909D02*
X028825Y004909D01*
X028825Y004811D02*
X029279Y004811D01*
X029279Y004712D02*
X028825Y004712D01*
X028825Y004614D02*
X029279Y004614D01*
X029279Y004515D02*
X028825Y004515D01*
X028825Y004417D02*
X029279Y004417D01*
X029279Y004318D02*
X028825Y004318D01*
X028781Y004220D02*
X029326Y004220D01*
X028970Y004023D02*
X030566Y004023D01*
X030566Y004121D02*
X028913Y004121D01*
X028997Y003924D02*
X030921Y003924D01*
X030566Y003826D02*
X028997Y003826D01*
X028962Y003727D02*
X030566Y003727D01*
X030566Y003629D02*
X028894Y003629D01*
X032325Y004220D02*
X032870Y004220D01*
X032822Y004318D02*
X032369Y004318D01*
X032369Y004417D02*
X032822Y004417D01*
X032822Y004515D02*
X032369Y004515D01*
X032369Y004614D02*
X032822Y004614D01*
X032822Y004712D02*
X032369Y004712D01*
X032369Y004811D02*
X032822Y004811D01*
X032822Y004909D02*
X032369Y004909D01*
X032369Y005008D02*
X032822Y005008D01*
X032822Y005106D02*
X032369Y005106D01*
X032369Y005205D02*
X032822Y005205D01*
X032822Y005303D02*
X031644Y005303D01*
X031644Y005402D02*
X031544Y005402D01*
X031544Y005313D02*
X030869Y005313D01*
X030869Y005213D01*
X031544Y005213D01*
X031544Y005313D01*
X031544Y005303D02*
X030869Y005303D01*
X031544Y005500D02*
X031644Y005500D01*
X031644Y005599D02*
X031544Y005599D01*
X031544Y005697D02*
X031644Y005697D01*
X031644Y005796D02*
X031544Y005796D01*
X031544Y005894D02*
X031644Y005894D01*
X031644Y005993D02*
X031544Y005993D01*
X031544Y006091D02*
X031644Y006091D01*
X031644Y006190D02*
X031544Y006190D01*
X031544Y006288D02*
X031644Y006288D01*
X032330Y006288D02*
X032601Y006288D01*
X032687Y006190D02*
X032369Y006190D01*
X032369Y006091D02*
X032773Y006091D01*
X032822Y005993D02*
X032369Y005993D01*
X032369Y005894D02*
X032822Y005894D01*
X032822Y005796D02*
X032369Y005796D01*
X032369Y005697D02*
X032822Y005697D01*
X032822Y005599D02*
X032369Y005599D01*
X032369Y005500D02*
X032822Y005500D01*
X032822Y005402D02*
X032369Y005402D01*
X033204Y006358D02*
X033013Y006577D01*
X033013Y006608D01*
X034312Y006608D01*
X034377Y006673D01*
X034442Y006608D01*
X035832Y006608D01*
X035859Y006635D01*
X035859Y006512D01*
X035897Y006420D01*
X035968Y006350D01*
X036365Y005952D01*
X036365Y004268D01*
X036465Y004168D01*
X037652Y004168D01*
X037652Y003935D01*
X038008Y003935D01*
X038008Y004195D01*
X038036Y004188D01*
X038108Y004188D01*
X038108Y003935D01*
X038008Y003935D01*
X038008Y003835D01*
X037652Y003835D01*
X037652Y003623D01*
X035975Y003623D01*
X036028Y003676D01*
X036084Y003811D01*
X036084Y003958D01*
X036028Y004093D01*
X035924Y004197D01*
X035859Y004223D01*
X035882Y004246D01*
X035902Y004280D01*
X035912Y004318D01*
X035912Y005213D01*
X035187Y005213D01*
X035187Y005313D01*
X035087Y005313D01*
X035087Y006338D01*
X034492Y006338D01*
X034454Y006328D01*
X034420Y006308D01*
X034392Y006280D01*
X034391Y006279D01*
X034312Y006358D01*
X033204Y006358D01*
X033179Y006387D02*
X035931Y006387D01*
X035854Y006308D02*
X035820Y006328D01*
X035782Y006338D01*
X035187Y006338D01*
X035187Y005313D01*
X035912Y005313D01*
X035912Y006208D01*
X035902Y006246D01*
X035882Y006280D01*
X035854Y006308D01*
X035874Y006288D02*
X036029Y006288D01*
X036128Y006190D02*
X035912Y006190D01*
X035912Y006091D02*
X036226Y006091D01*
X036325Y005993D02*
X035912Y005993D01*
X035912Y005894D02*
X036365Y005894D01*
X036365Y005796D02*
X035912Y005796D01*
X035912Y005697D02*
X036365Y005697D01*
X036365Y005599D02*
X035912Y005599D01*
X035912Y005500D02*
X036365Y005500D01*
X036365Y005402D02*
X035912Y005402D01*
X035912Y005205D02*
X036365Y005205D01*
X036365Y005303D02*
X035187Y005303D01*
X035187Y005213D02*
X035187Y004350D01*
X035087Y004350D01*
X035087Y005213D01*
X035187Y005213D01*
X035187Y005205D02*
X035087Y005205D01*
X035087Y005106D02*
X035187Y005106D01*
X035187Y005008D02*
X035087Y005008D01*
X035087Y004909D02*
X035187Y004909D01*
X035187Y004811D02*
X035087Y004811D01*
X035087Y004712D02*
X035187Y004712D01*
X035187Y004614D02*
X035087Y004614D01*
X035087Y004515D02*
X035187Y004515D01*
X035187Y004417D02*
X035087Y004417D01*
X034109Y004121D02*
X032456Y004121D01*
X032513Y004023D02*
X034109Y004023D01*
X034109Y003826D02*
X032540Y003826D01*
X032540Y003924D02*
X034465Y003924D01*
X034109Y003727D02*
X032506Y003727D01*
X032437Y003629D02*
X034109Y003629D01*
X035868Y004220D02*
X036413Y004220D01*
X036365Y004318D02*
X035912Y004318D01*
X035912Y004417D02*
X036365Y004417D01*
X036365Y004515D02*
X035912Y004515D01*
X035912Y004614D02*
X036365Y004614D01*
X036365Y004712D02*
X035912Y004712D01*
X035912Y004811D02*
X036365Y004811D01*
X036365Y004909D02*
X035912Y004909D01*
X035912Y005008D02*
X036365Y005008D01*
X036365Y005106D02*
X035912Y005106D01*
X035187Y005402D02*
X035087Y005402D01*
X035087Y005500D02*
X035187Y005500D01*
X035187Y005599D02*
X035087Y005599D01*
X035087Y005697D02*
X035187Y005697D01*
X035187Y005796D02*
X035087Y005796D01*
X035087Y005894D02*
X035187Y005894D01*
X035187Y005993D02*
X035087Y005993D01*
X035087Y006091D02*
X035187Y006091D01*
X035187Y006190D02*
X035087Y006190D01*
X035087Y006288D02*
X035187Y006288D01*
X035870Y006485D02*
X033093Y006485D01*
X033013Y006584D02*
X035859Y006584D01*
X036539Y006485D02*
X039454Y006485D01*
X039553Y006387D02*
X036638Y006387D01*
X037925Y006288D02*
X037944Y006288D01*
X037955Y005303D02*
X038630Y005303D01*
X039455Y005205D02*
X039909Y005205D01*
X039909Y005106D02*
X039455Y005106D01*
X039455Y005008D02*
X039909Y005008D01*
X039909Y004909D02*
X039455Y004909D01*
X039455Y004811D02*
X039909Y004811D01*
X039909Y004712D02*
X039455Y004712D01*
X039455Y004614D02*
X039909Y004614D01*
X039909Y004515D02*
X039455Y004515D01*
X039455Y004417D02*
X039909Y004417D01*
X039909Y004318D02*
X039455Y004318D01*
X039411Y004220D02*
X039956Y004220D01*
X039600Y004023D02*
X041235Y004023D01*
X041235Y004121D02*
X039543Y004121D01*
X039627Y003924D02*
X041591Y003924D01*
X041591Y004023D02*
X041691Y004023D01*
X041691Y004121D02*
X041591Y004121D01*
X042174Y004350D02*
X042174Y005213D01*
X042274Y005213D01*
X042274Y004350D01*
X042174Y004350D01*
X042174Y004417D02*
X042274Y004417D01*
X042274Y004515D02*
X042174Y004515D01*
X042174Y004614D02*
X042274Y004614D01*
X042274Y004712D02*
X042174Y004712D01*
X042174Y004811D02*
X042274Y004811D01*
X042274Y004909D02*
X042174Y004909D01*
X042174Y005008D02*
X042274Y005008D01*
X042274Y005106D02*
X042174Y005106D01*
X042174Y005205D02*
X042274Y005205D01*
X042274Y005303D02*
X043352Y005303D01*
X043193Y005205D02*
X042999Y005205D01*
X042999Y005106D02*
X043095Y005106D01*
X042999Y005008D02*
X042999Y005008D01*
X042999Y005402D02*
X044638Y005402D01*
X044638Y005500D02*
X043517Y005500D01*
X043615Y005599D02*
X044638Y005599D01*
X044638Y005697D02*
X043665Y005697D01*
X043701Y005796D02*
X044638Y005796D01*
X044638Y005894D02*
X043701Y005894D01*
X043691Y005993D02*
X044638Y005993D01*
X044638Y006091D02*
X043650Y006091D01*
X043580Y006190D02*
X044638Y006190D01*
X044638Y006288D02*
X043457Y006288D01*
X043013Y006288D02*
X042960Y006288D01*
X042274Y006288D02*
X042174Y006288D01*
X042174Y006190D02*
X042274Y006190D01*
X042274Y006091D02*
X042174Y006091D01*
X042174Y005993D02*
X042274Y005993D01*
X042274Y005894D02*
X042174Y005894D01*
X042174Y005796D02*
X042274Y005796D01*
X042274Y005697D02*
X042174Y005697D01*
X042174Y005599D02*
X042274Y005599D01*
X042274Y005500D02*
X042174Y005500D01*
X042174Y005402D02*
X042274Y005402D01*
X041487Y006288D02*
X041469Y006288D01*
X044142Y005303D02*
X044638Y005303D01*
X044638Y005205D02*
X044301Y005205D01*
X044400Y005106D02*
X044638Y005106D01*
X044638Y005008D02*
X044495Y005008D01*
X044536Y004909D02*
X044638Y004909D01*
X044638Y004811D02*
X044577Y004811D01*
X044617Y004712D02*
X044638Y004712D01*
X044627Y004614D02*
X044638Y004614D01*
X044627Y004515D02*
X044638Y004515D01*
X044627Y004417D02*
X044638Y004417D01*
X044638Y004318D02*
X044618Y004318D01*
X044638Y004220D02*
X044577Y004220D01*
X044537Y004121D02*
X044638Y004121D01*
X044638Y004023D02*
X044496Y004023D01*
X044401Y003924D02*
X044638Y003924D01*
X044638Y003826D02*
X044303Y003826D01*
X044146Y003727D02*
X044638Y003727D01*
X044638Y003629D02*
X043146Y003629D01*
X043214Y003727D02*
X043348Y003727D01*
X041235Y003727D02*
X039592Y003727D01*
X039627Y003826D02*
X041235Y003826D01*
X041235Y003629D02*
X039524Y003629D01*
X038108Y004023D02*
X038008Y004023D01*
X038008Y004121D02*
X038108Y004121D01*
X038008Y003924D02*
X036084Y003924D01*
X036084Y003826D02*
X037652Y003826D01*
X037652Y003727D02*
X036049Y003727D01*
X035980Y003629D02*
X037652Y003629D01*
X037652Y004023D02*
X036057Y004023D01*
X035999Y004121D02*
X037652Y004121D01*
X034400Y006288D02*
X034382Y006288D01*
X030857Y006288D02*
X030839Y006288D01*
X029075Y006190D02*
X028825Y006190D01*
X028787Y006288D02*
X028995Y006288D01*
X023770Y006288D02*
X023752Y006288D01*
X022192Y005303D02*
X021014Y005303D01*
X021014Y005213D02*
X021014Y004350D01*
X020914Y004350D01*
X020914Y005213D01*
X021014Y005213D01*
X021014Y005205D02*
X020914Y005205D01*
X020914Y005106D02*
X021014Y005106D01*
X021014Y005008D02*
X020914Y005008D01*
X020914Y004909D02*
X021014Y004909D01*
X021014Y004811D02*
X020914Y004811D01*
X020914Y004712D02*
X021014Y004712D01*
X021014Y004614D02*
X020914Y004614D01*
X020914Y004515D02*
X021014Y004515D01*
X021014Y004417D02*
X020914Y004417D01*
X020292Y003924D02*
X018367Y003924D01*
X018367Y003826D02*
X019936Y003826D01*
X019936Y003727D02*
X018332Y003727D01*
X018264Y003629D02*
X019936Y003629D01*
X019936Y004023D02*
X018340Y004023D01*
X018283Y004121D02*
X019936Y004121D01*
X020914Y005402D02*
X021014Y005402D01*
X021014Y005500D02*
X020914Y005500D01*
X020914Y005599D02*
X021014Y005599D01*
X021014Y005697D02*
X020914Y005697D01*
X020914Y005796D02*
X021014Y005796D01*
X021014Y005894D02*
X020914Y005894D01*
X020914Y005993D02*
X021014Y005993D01*
X021014Y006091D02*
X020914Y006091D01*
X020914Y006190D02*
X021014Y006190D01*
X021014Y006288D02*
X020914Y006288D01*
X020227Y006288D02*
X020209Y006288D01*
X016392Y004121D02*
X014739Y004121D01*
X014797Y004023D02*
X016392Y004023D01*
X016392Y003826D02*
X014824Y003826D01*
X014824Y003924D02*
X016748Y003924D01*
X016392Y003727D02*
X014789Y003727D01*
X014721Y003629D02*
X016392Y003629D01*
X013140Y006288D02*
X013122Y006288D01*
X011135Y006682D02*
X011104Y006682D01*
X011129Y006781D02*
X011135Y006781D01*
X011129Y006879D02*
X011135Y006879D01*
X011129Y006978D02*
X011135Y006978D01*
X011129Y007076D02*
X011135Y007076D01*
X011129Y007175D02*
X011135Y007175D01*
X011129Y007273D02*
X011135Y007273D01*
X011129Y007372D02*
X011135Y007372D01*
X011129Y007470D02*
X011135Y007470D01*
X011129Y007569D02*
X011135Y007569D01*
X011129Y007667D02*
X011135Y007667D01*
X011129Y007766D02*
X011135Y007766D01*
X011129Y007864D02*
X011135Y007864D01*
X011129Y007963D02*
X011135Y007963D01*
X011129Y008061D02*
X011135Y008061D01*
X011129Y008160D02*
X011135Y008160D01*
X011129Y008258D02*
X011135Y008258D01*
X011129Y008357D02*
X011135Y008357D01*
X011129Y008455D02*
X011135Y008455D01*
X007808Y007372D02*
X006399Y007372D01*
X011993Y010918D02*
X012021Y010918D01*
X012072Y011016D02*
X012119Y011016D01*
X012107Y011115D02*
X012216Y011115D01*
X012313Y011213D02*
X012107Y011213D01*
X012075Y011312D02*
X012410Y011312D01*
X012507Y011410D02*
X012001Y011410D01*
X012064Y011509D02*
X012605Y011509D01*
X012702Y011607D02*
X012104Y011607D01*
X012107Y011706D02*
X012799Y011706D01*
X012896Y011804D02*
X012083Y011804D01*
X012020Y011903D02*
X012993Y011903D01*
X013091Y012001D02*
X011861Y012001D01*
X012566Y012625D02*
X012723Y012467D01*
X014062Y012467D01*
X014115Y012520D01*
X015431Y012520D01*
X012566Y012625D02*
X012566Y015066D01*
X012723Y015223D01*
X012786Y014759D02*
X012866Y014759D01*
X016718Y015646D02*
X016781Y015646D01*
X017079Y015646D02*
X017179Y015646D01*
X017179Y015547D02*
X017079Y015547D01*
X017079Y015449D02*
X017179Y015449D01*
X017179Y015350D02*
X017079Y015350D01*
X017204Y014562D02*
X021077Y014562D01*
X022389Y014810D02*
X022763Y015184D01*
X022938Y014858D02*
X024573Y014858D01*
X024446Y014759D02*
X022650Y014759D01*
X022551Y014661D02*
X024347Y014661D01*
X025203Y014562D02*
X025344Y014562D01*
X025405Y014267D02*
X025224Y014267D01*
X025274Y014168D02*
X025335Y014168D01*
X027825Y014759D02*
X027854Y014759D01*
X027825Y014858D02*
X027953Y014858D01*
X028051Y014956D02*
X027825Y014956D01*
X029259Y014278D02*
X029259Y013904D01*
X028944Y013176D02*
X028905Y013176D01*
X028659Y012930D01*
X028611Y012930D01*
X025776Y010972D02*
X024889Y010085D01*
X023176Y010085D01*
X023471Y010420D02*
X024259Y010420D01*
X025401Y010184D02*
X025401Y010026D01*
X025401Y010184D02*
X025959Y010742D01*
X025999Y010742D01*
X026437Y010918D02*
X026836Y010918D01*
X026738Y010819D02*
X026536Y010819D01*
X026634Y010721D02*
X026639Y010721D01*
X029928Y010696D02*
X029928Y010782D01*
X037721Y013873D02*
X038812Y013873D01*
X038812Y013971D02*
X037784Y013971D01*
X037816Y014070D02*
X038812Y014070D01*
X038812Y014168D02*
X037816Y014168D01*
X037130Y014858D02*
X038812Y014858D01*
X038812Y014956D02*
X037201Y014956D01*
X037201Y015055D02*
X038812Y015055D01*
X038812Y015153D02*
X037201Y015153D01*
X037201Y015252D02*
X038812Y015252D01*
X038812Y015350D02*
X037201Y015350D01*
X037201Y015449D02*
X038812Y015449D01*
X038812Y015547D02*
X037201Y015547D01*
X037136Y015646D02*
X038812Y015646D01*
X039101Y016010D02*
X039416Y015696D01*
X039416Y012703D01*
X041141Y010979D01*
X041306Y010979D01*
X041782Y010979D01*
X041775Y010971D01*
X041975Y010975D02*
X041975Y010577D01*
X041857Y010459D01*
X041700Y010459D01*
X042566Y009967D02*
X042566Y010975D01*
X043977Y010721D02*
X044638Y010721D01*
X044638Y010819D02*
X044173Y010819D01*
X044271Y010918D02*
X044638Y010918D01*
X044638Y011016D02*
X044370Y011016D01*
X044456Y011115D02*
X044638Y011115D01*
X044638Y011213D02*
X044456Y011213D01*
X044456Y011312D02*
X044638Y011312D01*
X044638Y011410D02*
X044456Y011410D01*
X044456Y011509D02*
X044638Y011509D01*
X044638Y011607D02*
X044444Y011607D01*
X044346Y011706D02*
X044638Y011706D01*
X044638Y011804D02*
X044289Y011804D01*
X044311Y011903D02*
X044638Y011903D01*
X044638Y012001D02*
X044311Y012001D01*
X044311Y012100D02*
X044638Y012100D01*
X044638Y012198D02*
X044311Y012198D01*
X044311Y012297D02*
X044638Y012297D01*
X044638Y012395D02*
X044311Y012395D01*
X044295Y012494D02*
X044638Y012494D01*
X044638Y012592D02*
X044290Y012592D01*
X044311Y012691D02*
X044638Y012691D01*
X044638Y012789D02*
X044311Y012789D01*
X044311Y012888D02*
X044638Y012888D01*
X044638Y012986D02*
X044311Y012986D01*
X044311Y013085D02*
X044638Y013085D01*
X044638Y013183D02*
X044311Y013183D01*
X044305Y013282D02*
X044638Y013282D01*
X044638Y013380D02*
X044403Y013380D01*
X044472Y013479D02*
X044638Y013479D01*
X044638Y013577D02*
X044472Y013577D01*
X044472Y013676D02*
X044638Y013676D01*
X044638Y013774D02*
X044472Y013774D01*
X044472Y013873D02*
X044638Y013873D01*
X044638Y013971D02*
X044443Y013971D01*
X044344Y014070D02*
X044638Y014070D01*
X044638Y014168D02*
X044246Y014168D01*
X044147Y014267D02*
X044638Y014267D01*
X044638Y014365D02*
X043172Y014365D01*
X043189Y014267D02*
X043607Y014267D01*
X043508Y014168D02*
X043189Y014168D01*
X043189Y014070D02*
X043410Y014070D01*
X043311Y013971D02*
X043189Y013971D01*
X043129Y013873D02*
X043282Y013873D01*
X043282Y013774D02*
X042719Y013774D01*
X042593Y013676D02*
X043282Y013676D01*
X043282Y013577D02*
X042593Y013577D01*
X042593Y013479D02*
X043282Y013479D01*
X043275Y013412D02*
X043275Y014278D01*
X043432Y014436D01*
X043511Y014514D01*
X043511Y015538D01*
X043196Y015853D01*
X043196Y015932D01*
X042802Y016325D01*
X042957Y016335D02*
X042074Y016335D01*
X042191Y016237D02*
X042998Y016237D01*
X043091Y016138D02*
X042242Y016138D01*
X042265Y016040D02*
X043190Y016040D01*
X043344Y015941D02*
X042265Y015941D01*
X042226Y015843D02*
X044638Y015843D01*
X044638Y015941D02*
X044150Y015941D01*
X044304Y016040D02*
X044638Y016040D01*
X044638Y016138D02*
X044403Y016138D01*
X044496Y016237D02*
X044638Y016237D01*
X044638Y016335D02*
X044537Y016335D01*
X044578Y016434D02*
X044638Y016434D01*
X044638Y016532D02*
X044619Y016532D01*
X044627Y016631D02*
X044638Y016631D01*
X044627Y016729D02*
X044638Y016729D01*
X044627Y016828D02*
X044638Y016828D01*
X044638Y016926D02*
X044617Y016926D01*
X044638Y017025D02*
X044576Y017025D01*
X044535Y017123D02*
X044638Y017123D01*
X044638Y017222D02*
X044494Y017222D01*
X044398Y017320D02*
X044638Y017320D01*
X044638Y017419D02*
X044300Y017419D01*
X044138Y017517D02*
X044638Y017517D01*
X044638Y017616D02*
X042797Y017616D01*
X042896Y017517D02*
X043356Y017517D01*
X043194Y017419D02*
X042994Y017419D01*
X043023Y017320D02*
X043096Y017320D01*
X042991Y017202D02*
X042950Y017102D01*
X042498Y017102D01*
X042498Y017202D01*
X042991Y017202D01*
X042959Y017123D02*
X042498Y017123D01*
X042448Y017152D02*
X042802Y017113D01*
X042498Y017025D02*
X042398Y017025D01*
X042398Y017102D02*
X042398Y016577D01*
X042210Y016577D01*
X041873Y016914D01*
X041873Y017102D01*
X042398Y017102D01*
X042398Y017123D02*
X041468Y017123D01*
X041468Y017025D02*
X041873Y017025D01*
X041873Y016926D02*
X041468Y016926D01*
X041390Y016828D02*
X041959Y016828D01*
X042058Y016729D02*
X041292Y016729D01*
X041193Y016631D02*
X042156Y016631D01*
X042398Y016631D02*
X042498Y016631D01*
X042498Y016729D02*
X042398Y016729D01*
X042398Y016828D02*
X042498Y016828D01*
X042498Y016926D02*
X042398Y016926D01*
X042740Y016631D02*
X042867Y016631D01*
X042867Y016729D02*
X042838Y016729D01*
X042875Y016532D02*
X040606Y016532D01*
X040553Y016631D02*
X040507Y016631D01*
X040454Y016729D02*
X040409Y016729D01*
X040356Y016828D02*
X040310Y016828D01*
X040278Y016926D02*
X040212Y016926D01*
X040278Y017025D02*
X040135Y017025D01*
X040135Y017123D02*
X040278Y017123D01*
X040278Y017222D02*
X040135Y017222D01*
X040135Y017320D02*
X040278Y017320D01*
X040298Y017419D02*
X040135Y017419D01*
X040045Y017517D02*
X040397Y017517D01*
X040495Y017616D02*
X039946Y017616D01*
X039101Y016711D02*
X038605Y017207D01*
X039101Y016711D02*
X039101Y016010D01*
X039555Y016040D02*
X039655Y016040D01*
X039731Y016081D02*
X039605Y016207D01*
X039655Y016237D02*
X040251Y016237D01*
X040349Y016138D02*
X040115Y016138D01*
X040115Y016040D02*
X040448Y016040D01*
X040546Y015941D02*
X040061Y015941D01*
X039962Y015843D02*
X040645Y015843D01*
X040803Y016335D02*
X041719Y016335D01*
X041642Y015744D02*
X039864Y015744D01*
X039655Y015744D02*
X039636Y015744D01*
X039636Y015646D02*
X041815Y015646D01*
X041978Y015646D02*
X042138Y015646D01*
X042151Y015744D02*
X043640Y015744D01*
X043627Y015739D02*
X043524Y015636D01*
X043468Y015501D01*
X043468Y015355D01*
X043524Y015220D01*
X043627Y015117D01*
X043762Y015061D01*
X043908Y015061D01*
X044043Y015117D01*
X044146Y015220D01*
X044202Y015355D01*
X044202Y015501D01*
X044146Y015636D01*
X044043Y015739D01*
X043908Y015795D01*
X043762Y015795D01*
X043627Y015739D01*
X043534Y015646D02*
X043136Y015646D01*
X043201Y015547D02*
X043487Y015547D01*
X043468Y015449D02*
X043201Y015449D01*
X043201Y015350D02*
X043470Y015350D01*
X043511Y015252D02*
X043201Y015252D01*
X043201Y015153D02*
X043590Y015153D01*
X043201Y015055D02*
X044638Y015055D01*
X044638Y015153D02*
X044079Y015153D01*
X044159Y015252D02*
X044638Y015252D01*
X044638Y015350D02*
X044200Y015350D01*
X044202Y015449D02*
X044638Y015449D01*
X044638Y015547D02*
X044182Y015547D01*
X044136Y015646D02*
X044638Y015646D01*
X044638Y015744D02*
X044029Y015744D01*
X042881Y015144D02*
X042842Y015105D01*
X042842Y014652D01*
X042802Y014751D01*
X042861Y014751D01*
X042842Y014652D01*
X042802Y014751D02*
X041818Y014751D01*
X041759Y014692D01*
X041759Y014357D01*
X041700Y014416D01*
X041759Y014357D02*
X041306Y014357D01*
X040932Y014357D01*
X041306Y014357D02*
X041306Y014751D01*
X040938Y014759D02*
X039636Y014759D01*
X039636Y014661D02*
X040169Y014661D01*
X040112Y014562D02*
X039636Y014562D01*
X039636Y014464D02*
X040112Y014464D01*
X040112Y014365D02*
X039636Y014365D01*
X039636Y014267D02*
X040112Y014267D01*
X040112Y014168D02*
X039636Y014168D01*
X039636Y014070D02*
X040152Y014070D01*
X040184Y013971D02*
X039636Y013971D01*
X039636Y013873D02*
X040124Y013873D01*
X040124Y013774D02*
X039636Y013774D01*
X039636Y013676D02*
X040124Y013676D01*
X040124Y013577D02*
X039636Y013577D01*
X039731Y013570D02*
X039731Y016081D01*
X039655Y016138D02*
X039555Y016138D01*
X039555Y015941D02*
X039655Y015941D01*
X039655Y015843D02*
X039580Y015843D01*
X039636Y015547D02*
X042073Y015547D01*
X042073Y015449D02*
X039636Y015449D01*
X039636Y015350D02*
X042073Y015350D01*
X042073Y015252D02*
X039636Y015252D01*
X039636Y015153D02*
X042073Y015153D01*
X042073Y015055D02*
X041522Y015055D01*
X041619Y014956D02*
X041712Y014956D01*
X041090Y015055D02*
X039636Y015055D01*
X039636Y014956D02*
X040993Y014956D01*
X040952Y014858D02*
X039636Y014858D01*
X040672Y014661D02*
X040681Y014661D01*
X040420Y014357D02*
X040420Y013577D01*
X040550Y013448D01*
X040479Y013219D01*
X040479Y012979D01*
X040676Y012782D01*
X041857Y012782D01*
X041979Y012660D01*
X041979Y012475D01*
X042176Y012475D02*
X042176Y013121D01*
X042054Y013243D01*
X042007Y013448D01*
X042007Y013522D01*
X042007Y013798D02*
X042271Y014062D01*
X042271Y014357D01*
X042373Y013790D02*
X042842Y014140D01*
X042373Y013790D02*
X042373Y012475D01*
X042570Y012475D02*
X042570Y013180D01*
X042802Y013412D01*
X043275Y013412D01*
X043351Y013380D02*
X042593Y013380D01*
X042593Y013282D02*
X043357Y013282D01*
X043341Y013183D02*
X042593Y013183D01*
X042593Y013085D02*
X043341Y013085D01*
X042931Y012986D02*
X042593Y012986D01*
X042593Y012888D02*
X042833Y012888D01*
X042744Y012789D02*
X042593Y012789D01*
X042767Y012475D02*
X042767Y012022D01*
X043267Y012475D02*
X043590Y012152D01*
X043267Y012475D02*
X043160Y012475D01*
X042964Y012475D02*
X042964Y012707D01*
X043038Y012782D01*
X043747Y012782D01*
X040834Y012472D02*
X040676Y012314D01*
X040676Y012231D01*
X040332Y012100D02*
X040331Y012100D01*
X040308Y012198D02*
X040233Y012198D01*
X040308Y012297D02*
X040134Y012297D01*
X040036Y012395D02*
X040346Y012395D01*
X040418Y012494D02*
X039937Y012494D01*
X039839Y012592D02*
X040555Y012592D01*
X040456Y012691D02*
X039740Y012691D01*
X039642Y012789D02*
X040358Y012789D01*
X040220Y012888D02*
X039636Y012888D01*
X039636Y012986D02*
X040124Y012986D01*
X040124Y013085D02*
X039636Y013085D01*
X039636Y013183D02*
X040124Y013183D01*
X040124Y013282D02*
X039636Y013282D01*
X039636Y013380D02*
X040124Y013380D01*
X040124Y013479D02*
X039636Y013479D01*
X039731Y013570D02*
X039968Y013333D01*
X039968Y013255D01*
X043189Y014464D02*
X044638Y014464D01*
X044638Y014562D02*
X043189Y014562D01*
X043189Y014661D02*
X044638Y014661D01*
X044638Y014759D02*
X043189Y014759D01*
X043189Y014858D02*
X044638Y014858D01*
X044638Y014956D02*
X043201Y014956D01*
X042842Y015184D02*
X042692Y015333D01*
X042637Y015255D02*
X042802Y015168D01*
X040152Y016335D02*
X040115Y016335D01*
X040704Y016434D02*
X042916Y016434D01*
X041873Y017222D02*
X041468Y017222D01*
X041468Y017320D02*
X041873Y017320D01*
X041901Y017419D02*
X041448Y017419D01*
X041349Y017517D02*
X042000Y017517D01*
X042098Y017616D02*
X041251Y017616D01*
X038122Y015941D02*
X038089Y015941D01*
X037990Y015843D02*
X038220Y015843D01*
X038319Y015744D02*
X037892Y015744D01*
X037319Y015744D02*
X036802Y015744D01*
X036802Y015843D02*
X037220Y015843D01*
X037122Y015941D02*
X036802Y015941D01*
X036706Y016040D02*
X037075Y016040D01*
X037075Y016138D02*
X036607Y016138D01*
X036509Y016237D02*
X037038Y016237D01*
X039023Y010932D02*
X039534Y010932D01*
X039613Y010853D01*
X040046Y010853D01*
X041818Y009081D01*
X042290Y009081D01*
X042468Y009259D01*
X044244Y009736D02*
X044638Y009736D01*
X044638Y009834D02*
X044299Y009834D01*
X044299Y009933D02*
X044638Y009933D01*
X044638Y010031D02*
X044299Y010031D01*
X044299Y010130D02*
X044638Y010130D01*
X044638Y010228D02*
X044299Y010228D01*
X044299Y010327D02*
X044638Y010327D01*
X044638Y010425D02*
X044299Y010425D01*
X044299Y010524D02*
X044638Y010524D01*
X044638Y010622D02*
X044238Y010622D01*
X021562Y016995D02*
X021562Y017369D01*
X021621Y017428D01*
X008235Y013097D02*
X008235Y012428D01*
X008235Y013097D02*
X008078Y013255D01*
X007251Y013255D01*
X007212Y013294D01*
D43*
X012802Y012034D03*
X013196Y013097D03*
X013393Y013570D03*
X014003Y013806D03*
X012999Y014416D03*
X012723Y015223D03*
X014062Y016010D03*
X016345Y013806D03*
X016857Y013806D03*
X020145Y013786D03*
X022645Y013176D03*
X022172Y012310D03*
X021523Y012310D03*
X021267Y011483D03*
X023471Y010420D03*
X023826Y009711D03*
X025401Y010026D03*
X025952Y010026D03*
X027527Y010262D03*
X028983Y010105D03*
X029495Y010302D03*
X029928Y010696D03*
X030637Y011680D03*
X031424Y012743D03*
X032448Y013924D03*
X032782Y014278D03*
X033294Y014298D03*
X031385Y014554D03*
X031070Y014160D03*
X029259Y013885D03*
X026719Y014003D03*
X026562Y014770D03*
X025558Y014869D03*
X024928Y014042D03*
X022763Y015184D03*
X023826Y016010D03*
X024141Y016640D03*
X021621Y017428D03*
X019653Y017034D03*
X020755Y015262D03*
X025538Y012113D03*
X025952Y011680D03*
X026345Y011306D03*
X024259Y011325D03*
X024377Y008963D03*
X017054Y009829D03*
X015991Y009829D03*
X016345Y010774D03*
X016857Y011778D03*
X027605Y016010D03*
X033353Y015971D03*
X035243Y017349D03*
X041306Y014751D03*
X041897Y016010D03*
X037448Y014121D03*
X038196Y013373D03*
X037763Y012900D03*
X036542Y012625D03*
X034613Y011995D03*
X034121Y011995D03*
X034121Y010577D03*
X037290Y009987D03*
X039023Y010932D03*
X041306Y010979D03*
X041700Y010459D03*
X041857Y009633D03*
X043196Y009554D03*
X040676Y012231D03*
X039239Y012231D03*
X037290Y008963D03*
X035716Y003885D03*
X039259Y003885D03*
X042881Y003885D03*
X032172Y003885D03*
X028629Y003885D03*
X025086Y003885D03*
X021542Y003885D03*
X017999Y003885D03*
X014456Y003885D03*
X010912Y003885D03*
D44*
X011779Y011168D03*
X011779Y011680D03*
D45*
X016345Y011778D03*
X016345Y012487D03*
X016857Y012487D03*
X034121Y013038D03*
X034613Y013038D03*
X034121Y011286D03*
X041975Y011483D03*
X041975Y011955D03*
X042999Y011955D03*
X042999Y011483D03*
D46*
X042881Y003885D02*
X042310Y003885D01*
D47*
X017771Y013800D02*
X017637Y013833D01*
X031637Y016833D02*
X031664Y017030D01*
X031656Y016833D02*
X031637Y016833D01*
D48*
X031424Y005302D02*
X031424Y004633D01*
X030912Y004121D01*
X030912Y003944D01*
X030971Y003885D01*
X027881Y004633D02*
X027369Y004121D01*
X027369Y003944D01*
X027428Y003885D01*
X027881Y004633D02*
X027881Y005105D01*
X024338Y005105D02*
X024338Y004633D01*
X023826Y004121D01*
X023826Y003944D01*
X023885Y003885D01*
X020794Y004633D02*
X020282Y004121D01*
X020282Y003944D01*
X020342Y003885D01*
X020794Y004633D02*
X020794Y005105D01*
X017251Y004908D02*
X017251Y004633D01*
X016739Y004121D01*
X016739Y003944D01*
X016798Y003885D01*
X013708Y004633D02*
X013708Y005302D01*
X013708Y004633D02*
X013196Y004121D01*
X013196Y003944D01*
X013255Y003885D01*
X010164Y004633D02*
X009653Y004121D01*
X009653Y003944D01*
X009712Y003885D01*
X010164Y004633D02*
X010164Y004908D01*
X034456Y004121D02*
X034456Y003944D01*
X034515Y003885D01*
X034456Y004121D02*
X034968Y004633D01*
X034968Y005105D01*
X037999Y004121D02*
X037999Y003944D01*
X038058Y003885D01*
X037999Y004121D02*
X038235Y004357D01*
X038235Y005302D01*
X041621Y004121D02*
X041621Y003904D01*
X041641Y003885D01*
X041621Y004121D02*
X042224Y004723D01*
X042224Y005263D01*
M02*
