G75*
G70*
%OFA0B0*%
%FSLAX24Y24*%
%IPPOS*%
%LPD*%
%AMOC8*
5,1,8,0,0,1.08239X$1,22.5*
%
%ADD10C,0.1320*%
%ADD11R,0.0887X0.0611*%
%ADD12C,0.0800*%
%ADD13C,0.0651*%
%ADD14R,0.0390X0.0170*%
%ADD15C,0.0060*%
%ADD16R,0.0651X0.1005*%
%ADD17R,0.0178X0.0336*%
%ADD18R,0.0572X0.0690*%
%ADD19R,0.0690X0.0572*%
%ADD20R,0.0651X0.0572*%
%ADD21R,0.0926X0.1084*%
%ADD22R,0.0887X0.2422*%
%ADD23R,0.0572X0.0651*%
%ADD24OC8,0.0910*%
%ADD25C,0.0560*%
%ADD26R,0.0611X0.0493*%
%ADD27C,0.0454*%
%ADD28OC8,0.0780*%
%ADD29R,0.0180X0.0380*%
%ADD30R,0.0380X0.0180*%
%ADD31R,0.0690X0.0690*%
%ADD32R,0.0560X0.0280*%
%ADD33C,0.1060*%
%ADD34R,0.0414X0.0336*%
%ADD35C,0.0493*%
%ADD36C,0.0760*%
%ADD37R,0.0336X0.0414*%
%ADD38C,0.0456*%
%ADD39C,0.0377*%
%ADD40C,0.0417*%
D10*
X007290Y004514D03*
X007290Y016727D03*
X043747Y016727D03*
X043747Y004514D03*
D11*
X036259Y015570D03*
X032676Y015570D03*
X032676Y017341D03*
X036259Y017341D03*
D12*
X031664Y017030D03*
X030664Y017030D03*
X029664Y017030D03*
X028664Y017030D03*
X027664Y017030D03*
X026664Y017030D03*
D13*
X043235Y007877D03*
X043235Y006877D03*
X043235Y005877D03*
X007605Y005877D03*
X007605Y006877D03*
X007605Y007877D03*
D14*
X011206Y011026D03*
X011206Y011216D03*
X011206Y011416D03*
X011206Y011616D03*
X011206Y011806D03*
X012366Y011806D03*
X012366Y011616D03*
X012366Y011416D03*
X012366Y011216D03*
X012366Y011026D03*
D15*
X012186Y010956D02*
X012186Y011096D01*
X012546Y011096D01*
X012546Y010956D01*
X012186Y010956D01*
X012186Y011146D02*
X012186Y011286D01*
X012546Y011286D01*
X012546Y011146D01*
X012186Y011146D01*
X012186Y011346D02*
X012186Y011486D01*
X012546Y011486D01*
X012546Y011346D01*
X012186Y011346D01*
X012186Y011546D02*
X012186Y011686D01*
X012546Y011686D01*
X012546Y011546D01*
X012186Y011546D01*
X012186Y011736D02*
X012186Y011876D01*
X012546Y011876D01*
X012546Y011736D01*
X012186Y011736D01*
X011386Y011736D02*
X011386Y011876D01*
X011026Y011876D01*
X011026Y011736D01*
X011386Y011736D01*
X011386Y011686D02*
X011026Y011686D01*
X011026Y011546D01*
X011386Y011546D01*
X011386Y011686D01*
X011386Y011486D02*
X011026Y011486D01*
X011026Y011346D01*
X011386Y011346D01*
X011386Y011486D01*
X011386Y011286D02*
X011026Y011286D01*
X011026Y011146D01*
X011386Y011146D01*
X011386Y011286D01*
X011386Y011096D02*
X011026Y011096D01*
X011026Y010956D01*
X011386Y010956D01*
X011386Y011096D01*
D16*
X011786Y011416D03*
D17*
X011686Y012026D03*
X011886Y012026D03*
X011886Y010806D03*
X011686Y010806D03*
D18*
X009298Y008814D03*
X008511Y008814D03*
D19*
X017007Y010455D03*
X017007Y011243D03*
D20*
X018452Y011262D03*
X018452Y010593D03*
X013511Y011030D03*
X013511Y011699D03*
D21*
X015216Y010877D03*
X015216Y008908D03*
D22*
X009716Y011077D03*
X008101Y011077D03*
D23*
X019668Y009550D03*
X020338Y009550D03*
D24*
X040873Y017152D03*
X042448Y017152D03*
X043877Y013696D03*
X043861Y011349D03*
D25*
X032649Y010475D03*
D26*
X013511Y010046D03*
X013511Y009259D03*
D27*
X030046Y012546D03*
X030046Y013046D03*
X030046Y013546D03*
X030046Y014046D03*
X030046Y014546D03*
D28*
X037605Y016207D03*
X038605Y016207D03*
X039605Y016207D03*
X039605Y017207D03*
X038605Y017207D03*
X037605Y017207D03*
D29*
X032708Y012171D03*
X032508Y012171D03*
X032308Y012171D03*
X032108Y012171D03*
X032108Y011031D03*
X032308Y011031D03*
X032508Y011031D03*
X032708Y011031D03*
D30*
X032978Y011301D03*
X032978Y011501D03*
X032978Y011701D03*
X032978Y011901D03*
X031838Y011901D03*
X031838Y011701D03*
X031838Y011501D03*
X031838Y011301D03*
D31*
X032408Y011601D03*
D32*
X036810Y011036D03*
X037770Y011036D03*
X037770Y010656D03*
X037770Y010276D03*
X036810Y010276D03*
D33*
X029062Y015538D03*
X008590Y015538D03*
D34*
X010519Y010322D03*
X011149Y010322D03*
X011149Y009810D03*
X010519Y009810D03*
X031385Y011266D03*
X031385Y011778D03*
X033511Y011306D03*
X033511Y010794D03*
X035086Y010991D03*
X035086Y010479D03*
X036109Y010479D03*
X036109Y010991D03*
X038550Y011070D03*
X038550Y010558D03*
D35*
X007212Y010164D03*
X007212Y011936D03*
D36*
X006862Y013294D02*
X007562Y013294D01*
X007562Y008806D02*
X006862Y008806D01*
D37*
X031601Y010499D03*
X032113Y010499D03*
D38*
X029928Y010696D03*
X029495Y010302D03*
X028983Y010105D03*
X027527Y010262D03*
X025952Y010026D03*
X025401Y010026D03*
X023826Y009711D03*
X023471Y010420D03*
X024259Y011325D03*
X025952Y011680D03*
X026345Y011306D03*
X025538Y012113D03*
X022645Y013176D03*
X022172Y012310D03*
X021523Y012310D03*
X021267Y011483D03*
X016857Y011778D03*
X016345Y010774D03*
X015991Y009829D03*
X017054Y009829D03*
X012802Y012034D03*
X013196Y013097D03*
X013393Y013570D03*
X014003Y013806D03*
X012999Y014416D03*
X012723Y015223D03*
X014062Y016010D03*
X016345Y013806D03*
X016857Y013806D03*
X020145Y013786D03*
X020755Y015262D03*
X022763Y015184D03*
X023826Y016010D03*
X024141Y016640D03*
X021621Y017428D03*
X019653Y017034D03*
X025558Y014869D03*
X026562Y014770D03*
X026719Y014003D03*
X024928Y014042D03*
X027605Y016010D03*
X031385Y014554D03*
X031070Y014160D03*
X032448Y013924D03*
X032782Y014278D03*
X033294Y014298D03*
X031424Y012743D03*
X030637Y011680D03*
X034121Y011995D03*
X034613Y011995D03*
X036542Y012625D03*
X037763Y012900D03*
X038196Y013373D03*
X037448Y014121D03*
X041306Y014751D03*
X041897Y016010D03*
X035243Y017349D03*
X033353Y015971D03*
X029259Y013885D03*
X034121Y010577D03*
X037290Y009987D03*
X039023Y010932D03*
X041306Y010979D03*
X041700Y010459D03*
X041857Y009633D03*
X043196Y009554D03*
X040676Y012231D03*
X039239Y012231D03*
X037290Y008963D03*
X035716Y003885D03*
X039259Y003885D03*
X042881Y003885D03*
X032172Y003885D03*
X028629Y003885D03*
X025086Y003885D03*
X021542Y003885D03*
X017999Y003885D03*
X014456Y003885D03*
X010912Y003885D03*
X024377Y008963D03*
D39*
X011779Y011168D03*
X011779Y011680D03*
D40*
X016345Y011778D03*
X016345Y012487D03*
X016857Y012487D03*
X034121Y013038D03*
X034613Y013038D03*
X034121Y011286D03*
X041975Y011483D03*
X041975Y011955D03*
X042999Y011955D03*
X042999Y011483D03*
M02*
