G75*
G70*
%OFA0B0*%
%FSLAX24Y24*%
%IPPOS*%
%LPD*%
%AMOC8*
5,1,8,0,0,1.08239X$1,22.5*
%
%ADD10C,0.0070*%
%ADD11R,0.0827X0.0551*%
%ADD12C,0.0740*%
%ADD13C,0.0591*%
%ADD14R,0.0330X0.0110*%
%ADD15R,0.0591X0.0945*%
%ADD16R,0.0118X0.0276*%
%ADD17R,0.0512X0.0630*%
%ADD18R,0.0630X0.0512*%
%ADD19R,0.0591X0.0512*%
%ADD20R,0.0866X0.1024*%
%ADD21R,0.0827X0.2362*%
%ADD22R,0.0512X0.0591*%
%ADD23OC8,0.0850*%
%ADD24C,0.0500*%
%ADD25R,0.0551X0.0433*%
%ADD26C,0.0394*%
%ADD27OC8,0.0720*%
%ADD28R,0.0120X0.0320*%
%ADD29R,0.0320X0.0120*%
%ADD30R,0.0630X0.0630*%
%ADD31R,0.0500X0.0220*%
%ADD32C,0.1000*%
%ADD33R,0.0354X0.0276*%
%ADD34C,0.0700*%
%ADD35R,0.0276X0.0354*%
%ADD36C,0.0100*%
%ADD37C,0.0396*%
%ADD38C,0.0120*%
%ADD39C,0.0317*%
%ADD40C,0.0357*%
%ADD41C,0.0160*%
%ADD42C,0.0240*%
%ADD43C,0.0080*%
D10*
X006010Y002218D02*
X005872Y002357D01*
X005872Y002911D01*
X006010Y003049D01*
X006287Y003049D01*
X006426Y002911D01*
X006426Y002357D01*
X006287Y002218D01*
X006010Y002218D01*
X006701Y002218D02*
X007116Y002218D01*
X007254Y002357D01*
X007254Y002634D01*
X007116Y002772D01*
X006701Y002772D01*
X006701Y001941D01*
X007529Y002357D02*
X007529Y002634D01*
X007668Y002772D01*
X007945Y002772D01*
X008083Y002634D01*
X008083Y002495D01*
X007529Y002495D01*
X007529Y002357D02*
X007668Y002218D01*
X007945Y002218D01*
X008358Y002218D02*
X008358Y002772D01*
X008773Y002772D01*
X008912Y002634D01*
X008912Y002218D01*
X009187Y002634D02*
X009740Y002634D01*
X010015Y002634D02*
X010154Y002495D01*
X010431Y002495D01*
X010569Y002357D01*
X010431Y002218D01*
X010015Y002218D01*
X010844Y002357D02*
X010983Y002218D01*
X011259Y002218D01*
X011398Y002357D01*
X011398Y002634D01*
X011259Y002772D01*
X010983Y002772D01*
X010844Y002634D01*
X010844Y002357D01*
X010569Y002772D02*
X010154Y002772D01*
X010015Y002634D01*
X011673Y002772D02*
X011673Y002357D01*
X011811Y002218D01*
X012227Y002218D01*
X012227Y002772D01*
X012501Y002772D02*
X012501Y002218D01*
X012501Y002495D02*
X012778Y002772D01*
X012917Y002772D01*
X013192Y002634D02*
X013192Y002357D01*
X013331Y002218D01*
X013746Y002218D01*
X014021Y002357D02*
X014021Y002634D01*
X014159Y002772D01*
X014436Y002772D01*
X014575Y002634D01*
X014575Y002495D01*
X014021Y002495D01*
X014021Y002357D02*
X014159Y002218D01*
X014436Y002218D01*
X013746Y002772D02*
X013331Y002772D01*
X013192Y002634D01*
X015678Y002495D02*
X016094Y002495D01*
X016232Y002634D01*
X016232Y002911D01*
X016094Y003049D01*
X015678Y003049D01*
X015678Y002218D01*
X016507Y002357D02*
X016645Y002218D01*
X016922Y002218D01*
X017061Y002357D01*
X017061Y002911D01*
X016922Y003049D01*
X016645Y003049D01*
X016507Y002911D01*
X016507Y002357D01*
X017336Y002495D02*
X017613Y002218D01*
X017889Y002495D01*
X017889Y003049D01*
X017336Y003049D02*
X017336Y002495D01*
X018993Y002218D02*
X019270Y002218D01*
X019131Y002218D02*
X019131Y003049D01*
X018993Y003049D01*
X019684Y003049D02*
X019684Y003187D01*
X019684Y002772D02*
X019684Y002218D01*
X019822Y002218D02*
X019545Y002218D01*
X020098Y002357D02*
X020236Y002218D01*
X020652Y002218D01*
X020652Y002080D02*
X020652Y002772D01*
X020236Y002772D01*
X020098Y002634D01*
X020098Y002357D01*
X020375Y001941D02*
X020513Y001941D01*
X020652Y002080D01*
X020927Y002218D02*
X020927Y003049D01*
X021065Y002772D02*
X021342Y002772D01*
X021480Y002634D01*
X021480Y002218D01*
X021894Y002357D02*
X022032Y002218D01*
X021894Y002357D02*
X021894Y002911D01*
X022032Y002772D02*
X021755Y002772D01*
X021065Y002772D02*
X020927Y002634D01*
X019684Y002772D02*
X019545Y002772D01*
D11*
X032676Y015570D03*
X036259Y015570D03*
X036259Y017341D03*
X032676Y017341D03*
D12*
X031664Y017030D03*
X030664Y017030D03*
X029664Y017030D03*
X028664Y017030D03*
X027664Y017030D03*
X026664Y017030D03*
D13*
X043235Y007877D03*
X043235Y006877D03*
X043235Y005877D03*
X007605Y005877D03*
X007605Y006877D03*
X007605Y007877D03*
D14*
X011206Y011026D03*
X011206Y011216D03*
X011206Y011416D03*
X011206Y011616D03*
X011206Y011806D03*
X012366Y011806D03*
X012366Y011616D03*
X012366Y011416D03*
X012366Y011216D03*
X012366Y011026D03*
D15*
X011786Y011416D03*
D16*
X011686Y012026D03*
X011886Y012026D03*
X011886Y010806D03*
X011686Y010806D03*
D17*
X009298Y008814D03*
X008511Y008814D03*
D18*
X017007Y010455D03*
X017007Y011243D03*
D19*
X018452Y011262D03*
X018452Y010593D03*
X013511Y011030D03*
X013511Y011699D03*
D20*
X015216Y010877D03*
X015216Y008908D03*
D21*
X009716Y011077D03*
X008101Y011077D03*
D22*
X019668Y009550D03*
X020338Y009550D03*
D23*
X040873Y017152D03*
X042448Y017152D03*
X043877Y013696D03*
X043861Y011349D03*
D24*
X032649Y010475D03*
D25*
X013511Y010046D03*
X013511Y009259D03*
D26*
X030046Y012546D03*
X030046Y013046D03*
X030046Y013546D03*
X030046Y014046D03*
X030046Y014546D03*
D27*
X037605Y016207D03*
X038605Y016207D03*
X039605Y016207D03*
X039605Y017207D03*
X038605Y017207D03*
X037605Y017207D03*
D28*
X032708Y012171D03*
X032508Y012171D03*
X032308Y012171D03*
X032108Y012171D03*
X032108Y011031D03*
X032308Y011031D03*
X032508Y011031D03*
X032708Y011031D03*
D29*
X032978Y011301D03*
X032978Y011501D03*
X032978Y011701D03*
X032978Y011901D03*
X031838Y011901D03*
X031838Y011701D03*
X031838Y011501D03*
X031838Y011301D03*
D30*
X032408Y011601D03*
D31*
X036810Y011036D03*
X037770Y011036D03*
X037770Y010656D03*
X037770Y010276D03*
X036810Y010276D03*
D32*
X029062Y015538D03*
X008590Y015538D03*
D33*
X010519Y010322D03*
X011149Y010322D03*
X011149Y009810D03*
X010519Y009810D03*
X031385Y011266D03*
X031385Y011778D03*
X033511Y011306D03*
X033511Y010794D03*
X035086Y010991D03*
X035086Y010479D03*
X036109Y010479D03*
X036109Y010991D03*
X038550Y011070D03*
X038550Y010558D03*
D34*
X007562Y008806D02*
X006862Y008806D01*
X006862Y013294D02*
X007562Y013294D01*
D35*
X031601Y010499D03*
X032113Y010499D03*
D36*
X032094Y010479D01*
X032094Y010223D01*
X031936Y010066D01*
X031345Y010066D01*
X030637Y010774D01*
X030637Y011680D01*
X030772Y012022D02*
X031202Y012445D01*
X031216Y012431D01*
X031351Y012375D01*
X031497Y012375D01*
X031633Y012431D01*
X031655Y012453D01*
X031930Y012453D01*
X031878Y012401D01*
X031878Y012131D01*
X031608Y012131D01*
X031543Y012066D01*
X031404Y012066D01*
X031404Y011797D01*
X031366Y011797D01*
X031366Y011759D01*
X031404Y011759D01*
X031404Y011574D01*
X031366Y011574D01*
X031366Y011759D01*
X031058Y011759D01*
X031058Y011621D01*
X031068Y011583D01*
X031088Y011548D01*
X031100Y011536D01*
X031038Y011475D01*
X031038Y011058D01*
X031137Y010959D01*
X031632Y010959D01*
X031732Y011058D01*
X031732Y011071D01*
X031878Y011071D01*
X031878Y010819D01*
X031843Y010784D01*
X031831Y010796D01*
X031797Y010816D01*
X031759Y010826D01*
X031620Y010826D01*
X031620Y010518D01*
X031582Y010518D01*
X031582Y010480D01*
X031314Y010480D01*
X031314Y010409D01*
X030857Y010865D01*
X030857Y011379D01*
X030949Y011471D01*
X031005Y011607D01*
X031061Y011607D01*
X031005Y011607D02*
X031005Y011753D01*
X030949Y011888D01*
X030845Y011992D01*
X030772Y012022D01*
X030822Y012001D02*
X031084Y012001D01*
X031088Y012008D02*
X031068Y011974D01*
X031058Y011936D01*
X031058Y011797D01*
X031366Y011797D01*
X031366Y012066D01*
X031188Y012066D01*
X031150Y012056D01*
X031116Y012036D01*
X031088Y012008D01*
X031058Y011903D02*
X030934Y011903D01*
X030984Y011804D02*
X031058Y011804D01*
X031058Y011706D02*
X031005Y011706D01*
X030964Y011509D02*
X031072Y011509D01*
X031038Y011410D02*
X030888Y011410D01*
X030857Y011312D02*
X031038Y011312D01*
X031038Y011213D02*
X030857Y011213D01*
X030857Y011115D02*
X031038Y011115D01*
X031080Y011016D02*
X030857Y011016D01*
X030857Y010918D02*
X031878Y010918D01*
X031878Y011016D02*
X031690Y011016D01*
X031620Y010819D02*
X031582Y010819D01*
X031582Y010826D02*
X031444Y010826D01*
X031406Y010816D01*
X031371Y010796D01*
X031344Y010768D01*
X031324Y010734D01*
X031314Y010696D01*
X031314Y010518D01*
X031582Y010518D01*
X031582Y010826D01*
X031582Y010721D02*
X031620Y010721D01*
X031620Y010622D02*
X031582Y010622D01*
X031582Y010524D02*
X031620Y010524D01*
X031314Y010524D02*
X031198Y010524D01*
X031100Y010622D02*
X031314Y010622D01*
X031320Y010721D02*
X031001Y010721D01*
X030903Y010819D02*
X031420Y010819D01*
X031783Y010819D02*
X031878Y010819D01*
X032108Y011031D02*
X032108Y010503D01*
X032113Y010499D01*
X032508Y010615D02*
X032649Y010475D01*
X032508Y010615D02*
X032508Y011031D01*
X032938Y011016D02*
X033209Y011016D01*
X033214Y011024D02*
X033194Y010990D01*
X033184Y010952D01*
X033184Y010813D01*
X033492Y010813D01*
X033492Y010775D01*
X033530Y010775D01*
X033530Y010813D01*
X033838Y010813D01*
X033838Y010952D01*
X033828Y010990D01*
X033808Y011024D01*
X033796Y011036D01*
X033858Y011098D01*
X033858Y011420D01*
X034798Y011420D01*
X034866Y011352D01*
X034866Y011299D01*
X034838Y011299D01*
X034750Y011211D01*
X034739Y011211D01*
X034522Y010994D01*
X034393Y010865D01*
X034393Y010354D01*
X034128Y010089D01*
X032814Y010089D01*
X032887Y010119D01*
X033005Y010237D01*
X033069Y010392D01*
X033069Y010559D01*
X033005Y010713D01*
X032928Y010790D01*
X032938Y010801D01*
X032938Y011071D01*
X033190Y011071D01*
X033225Y011036D01*
X033214Y011024D01*
X033184Y010918D02*
X032938Y010918D01*
X032938Y010819D02*
X033184Y010819D01*
X033184Y010775D02*
X033184Y010636D01*
X033194Y010598D01*
X033214Y010564D01*
X033242Y010536D01*
X033276Y010516D01*
X033314Y010506D01*
X033492Y010506D01*
X033492Y010775D01*
X033184Y010775D01*
X033184Y010721D02*
X032997Y010721D01*
X033042Y010622D02*
X033187Y010622D01*
X033263Y010524D02*
X033069Y010524D01*
X033069Y010425D02*
X034393Y010425D01*
X034393Y010524D02*
X033759Y010524D01*
X033746Y010516D02*
X033780Y010536D01*
X033808Y010564D01*
X033828Y010598D01*
X033838Y010636D01*
X033838Y010775D01*
X033530Y010775D01*
X033530Y010506D01*
X033708Y010506D01*
X033746Y010516D01*
X033834Y010622D02*
X034393Y010622D01*
X034393Y010721D02*
X033838Y010721D01*
X033838Y010819D02*
X034393Y010819D01*
X034446Y010918D02*
X033838Y010918D01*
X033812Y011016D02*
X034544Y011016D01*
X034643Y011115D02*
X033858Y011115D01*
X033858Y011213D02*
X034753Y011213D01*
X034866Y011312D02*
X033858Y011312D01*
X033858Y011410D02*
X034808Y011410D01*
X034889Y011640D02*
X035086Y011444D01*
X035086Y010991D01*
X034830Y010991D01*
X034613Y010774D01*
X034613Y010262D01*
X034219Y009869D01*
X031227Y009869D01*
X029968Y011129D01*
X029810Y011129D01*
X028983Y010302D01*
X028983Y010105D01*
X028983Y010262D01*
X029495Y010262D02*
X030401Y009357D01*
X040558Y009357D01*
X041660Y010459D01*
X041700Y010459D01*
X042031Y010297D02*
X042012Y010251D01*
X041908Y010147D01*
X041773Y010091D01*
X041627Y010091D01*
X041610Y010098D01*
X040778Y009266D01*
X040649Y009137D01*
X037617Y009137D01*
X037658Y009036D01*
X037658Y008890D01*
X037602Y008755D01*
X037499Y008651D01*
X037364Y008595D01*
X037217Y008595D01*
X037082Y008651D01*
X036990Y008743D01*
X025428Y008743D01*
X024837Y009334D01*
X024837Y009334D01*
X024708Y009463D01*
X024708Y010565D01*
X024316Y010957D01*
X024186Y010957D01*
X024050Y011013D01*
X023947Y011117D01*
X023891Y011252D01*
X023891Y011399D01*
X023916Y011460D01*
X021635Y011460D01*
X021635Y011410D01*
X021579Y011274D01*
X021475Y011171D01*
X021340Y011115D01*
X023949Y011115D01*
X023907Y011213D02*
X021518Y011213D01*
X021594Y011312D02*
X023891Y011312D01*
X023896Y011410D02*
X021635Y011410D01*
X021601Y011680D02*
X025952Y011680D01*
X024928Y010656D02*
X024259Y011325D01*
X024047Y011016D02*
X018917Y011016D01*
X018917Y010936D02*
X018917Y011589D01*
X018817Y011688D01*
X018086Y011688D01*
X017986Y011589D01*
X017986Y011473D01*
X017492Y011473D01*
X017492Y011569D01*
X017392Y011669D01*
X016622Y011669D01*
X016522Y011569D01*
X016522Y011512D01*
X016391Y011381D01*
X016368Y011359D01*
X015819Y011359D01*
X015819Y011459D01*
X015719Y011558D01*
X014859Y011558D01*
X014484Y011933D01*
X013976Y011933D01*
X013976Y012026D01*
X013877Y012125D01*
X013163Y012125D01*
X013114Y012243D01*
X013011Y012346D01*
X012875Y012402D01*
X012729Y012402D01*
X012620Y012357D01*
X012620Y013863D01*
X012576Y013970D01*
X012494Y014052D01*
X012387Y014096D01*
X009458Y014096D01*
X008919Y014635D01*
X008919Y014949D01*
X008969Y014970D01*
X009158Y015159D01*
X009260Y015405D01*
X009260Y015671D01*
X009158Y015918D01*
X008969Y016106D01*
X008723Y016208D01*
X008456Y016208D01*
X008210Y016106D01*
X008022Y015918D01*
X007920Y015671D01*
X007920Y015405D01*
X008022Y015159D01*
X008210Y014970D01*
X008339Y014917D01*
X008339Y012863D01*
X007905Y012429D01*
X007618Y012429D01*
X007518Y012329D01*
X007518Y012289D01*
X007476Y012331D01*
X007304Y012402D01*
X007119Y012402D01*
X006947Y012331D01*
X006816Y012200D01*
X006745Y012028D01*
X006745Y011843D01*
X006816Y011671D01*
X006947Y011540D01*
X007119Y011469D01*
X007304Y011469D01*
X007476Y011540D01*
X007518Y011582D01*
X007518Y010517D01*
X007476Y010560D01*
X007304Y010631D01*
X007119Y010631D01*
X006947Y010560D01*
X006816Y010428D01*
X006745Y010257D01*
X006745Y010071D01*
X006816Y009900D01*
X006947Y009769D01*
X007119Y009698D01*
X007304Y009698D01*
X007476Y009769D01*
X007526Y009818D01*
X007618Y009726D01*
X007906Y009726D01*
X007906Y009662D01*
X007945Y009570D01*
X008015Y009499D01*
X008216Y009299D01*
X008185Y009299D01*
X008085Y009199D01*
X008085Y008428D01*
X008185Y008329D01*
X008837Y008329D01*
X008920Y008411D01*
X008922Y008407D01*
X008950Y008379D01*
X008984Y008359D01*
X009023Y008349D01*
X009248Y008349D01*
X009248Y008764D01*
X009348Y008764D01*
X009348Y008864D01*
X009704Y008864D01*
X009704Y009137D01*
X011476Y009137D01*
X011605Y009266D01*
X011880Y009541D01*
X011880Y010196D01*
X011752Y010325D01*
X011578Y010498D01*
X012016Y010498D01*
X012115Y010598D01*
X012115Y010797D01*
X012140Y010804D01*
X012173Y010823D01*
X012182Y010821D01*
X012366Y010821D01*
X012366Y010991D01*
X012366Y010991D01*
X012366Y010821D01*
X012551Y010821D01*
X012555Y010822D01*
X012555Y009565D01*
X012683Y009436D01*
X013085Y009436D01*
X013085Y009309D01*
X013461Y009309D01*
X013461Y009209D01*
X013085Y009209D01*
X013085Y009022D01*
X013095Y008984D01*
X013115Y008950D01*
X013143Y008922D01*
X013177Y008902D01*
X013215Y008892D01*
X013461Y008892D01*
X013461Y009209D01*
X013561Y009209D01*
X013561Y009309D01*
X013936Y009309D01*
X013936Y009436D01*
X013991Y009436D01*
X014031Y009418D01*
X014079Y009436D01*
X014130Y009436D01*
X014161Y009467D01*
X014535Y009609D01*
X015691Y009609D01*
X015783Y009517D01*
X015918Y009461D01*
X016064Y009461D01*
X016200Y009517D01*
X016303Y009621D01*
X016359Y009756D01*
X016359Y009903D01*
X016303Y010038D01*
X016200Y010141D01*
X016064Y010198D01*
X015918Y010198D01*
X015783Y010141D01*
X015691Y010049D01*
X014542Y010049D01*
X014502Y010067D01*
X014455Y010049D01*
X014404Y010049D01*
X014373Y010018D01*
X013998Y009876D01*
X013956Y009876D01*
X013956Y010333D01*
X013857Y010432D01*
X013761Y010432D01*
X013761Y010604D01*
X013877Y010604D01*
X013976Y010704D01*
X013976Y011357D01*
X013968Y011365D01*
X013976Y011373D01*
X013976Y011473D01*
X014294Y011473D01*
X014612Y011154D01*
X014612Y010294D01*
X014712Y010195D01*
X015719Y010195D01*
X015819Y010294D01*
X015819Y010899D01*
X016540Y010899D01*
X016604Y010834D01*
X016600Y010831D01*
X016572Y010803D01*
X016552Y010769D01*
X016542Y010731D01*
X016542Y010505D01*
X016957Y010505D01*
X016957Y010405D01*
X016957Y010188D01*
X016981Y010198D01*
X017057Y010198D01*
X017057Y010405D01*
X016957Y010405D01*
X016542Y010405D01*
X016542Y010180D01*
X016552Y010142D01*
X016572Y010107D01*
X016600Y010079D01*
X016634Y010060D01*
X016672Y010049D01*
X016754Y010049D01*
X016742Y010038D01*
X016686Y009903D01*
X016686Y009756D01*
X016742Y009621D01*
X016846Y009517D01*
X016981Y009461D01*
X017127Y009461D01*
X017263Y009517D01*
X017355Y009609D01*
X018202Y009609D01*
X018202Y009496D01*
X018240Y009404D01*
X018310Y009334D01*
X018402Y009296D01*
X019242Y009296D01*
X019242Y009184D01*
X019342Y009085D01*
X019995Y009085D01*
X020003Y009093D01*
X020011Y009085D01*
X020664Y009085D01*
X020764Y009184D01*
X020764Y009320D01*
X022779Y009320D01*
X022914Y009455D01*
X022914Y009469D01*
X023497Y010052D01*
X023545Y010052D01*
X023680Y010108D01*
X023784Y010211D01*
X023840Y010347D01*
X023840Y010493D01*
X023784Y010628D01*
X023680Y010732D01*
X023545Y010788D01*
X023398Y010788D01*
X023263Y010732D01*
X023159Y010628D01*
X023103Y010493D01*
X023103Y010347D01*
X023123Y010300D01*
X022603Y009780D01*
X020764Y009780D01*
X020764Y009916D01*
X020664Y010015D01*
X020011Y010015D01*
X020003Y010007D01*
X019995Y010015D01*
X019342Y010015D01*
X019242Y009916D01*
X019242Y009796D01*
X018702Y009796D01*
X018702Y010167D01*
X018817Y010167D01*
X018917Y010267D01*
X018917Y010919D01*
X018909Y010928D01*
X018917Y010936D01*
X018917Y010918D02*
X024355Y010918D01*
X024454Y010819D02*
X018917Y010819D01*
X018917Y010721D02*
X023252Y010721D01*
X023157Y010622D02*
X018917Y010622D01*
X018917Y010524D02*
X023116Y010524D01*
X023103Y010425D02*
X018917Y010425D01*
X018917Y010327D02*
X023112Y010327D01*
X023051Y010228D02*
X018879Y010228D01*
X018702Y010130D02*
X022953Y010130D01*
X022854Y010031D02*
X018702Y010031D01*
X018702Y009933D02*
X019260Y009933D01*
X019242Y009834D02*
X018702Y009834D01*
X018452Y009869D02*
X018412Y009829D01*
X017054Y009829D01*
X016686Y009834D02*
X016359Y009834D01*
X016351Y009736D02*
X016694Y009736D01*
X016735Y009637D02*
X016310Y009637D01*
X016221Y009539D02*
X016824Y009539D01*
X017284Y009539D02*
X018202Y009539D01*
X018225Y009440D02*
X015798Y009440D01*
X015799Y009440D02*
X015788Y009478D01*
X015769Y009512D01*
X015741Y009540D01*
X015707Y009560D01*
X015668Y009570D01*
X015266Y009570D01*
X015266Y008958D01*
X015799Y008958D01*
X015799Y009440D01*
X015799Y009342D02*
X018302Y009342D01*
X019242Y009243D02*
X015799Y009243D01*
X015799Y009145D02*
X019282Y009145D01*
X019668Y009546D02*
X019668Y009550D01*
X019668Y009546D02*
X019881Y009546D01*
X020764Y009834D02*
X022657Y009834D01*
X022756Y009933D02*
X020746Y009933D01*
X020764Y009243D02*
X023047Y009243D01*
X022948Y009145D02*
X020724Y009145D01*
X022062Y008258D02*
X015710Y008258D01*
X015707Y008257D02*
X015741Y008276D01*
X015769Y008304D01*
X015788Y008338D01*
X015799Y008377D01*
X015799Y008858D01*
X015266Y008858D01*
X015266Y008958D01*
X015166Y008958D01*
X015166Y009570D01*
X014763Y009570D01*
X014725Y009560D01*
X014690Y009540D01*
X014662Y009512D01*
X014643Y009478D01*
X014632Y009440D01*
X014632Y008958D01*
X015166Y008958D01*
X015166Y008858D01*
X015266Y008858D01*
X015266Y008246D01*
X015668Y008246D01*
X015707Y008257D01*
X015793Y008357D02*
X022160Y008357D01*
X022259Y008455D02*
X015799Y008455D01*
X015799Y008554D02*
X022357Y008554D01*
X022456Y008652D02*
X015799Y008652D01*
X015799Y008751D02*
X022554Y008751D01*
X022653Y008849D02*
X015799Y008849D01*
X015799Y009046D02*
X022850Y009046D01*
X022751Y008948D02*
X015266Y008948D01*
X015216Y008908D02*
X016094Y008908D01*
X015266Y008849D02*
X015166Y008849D01*
X015166Y008858D02*
X015166Y008246D01*
X014763Y008246D01*
X014725Y008257D01*
X014690Y008276D01*
X014662Y008304D01*
X014643Y008338D01*
X014632Y008377D01*
X014632Y008858D01*
X015166Y008858D01*
X015166Y008948D02*
X013904Y008948D01*
X013906Y008950D02*
X013926Y008984D01*
X013936Y009022D01*
X013936Y009209D01*
X013561Y009209D01*
X013561Y008892D01*
X013806Y008892D01*
X013844Y008902D01*
X013879Y008922D01*
X013906Y008950D01*
X013936Y009046D02*
X014632Y009046D01*
X014632Y009145D02*
X013936Y009145D01*
X013936Y009342D02*
X014632Y009342D01*
X014633Y009440D02*
X014134Y009440D01*
X014038Y009656D02*
X014495Y009829D01*
X015991Y009829D01*
X015761Y009539D02*
X015742Y009539D01*
X015266Y009539D02*
X015166Y009539D01*
X015166Y009440D02*
X015266Y009440D01*
X015266Y009342D02*
X015166Y009342D01*
X015166Y009243D02*
X015266Y009243D01*
X015266Y009145D02*
X015166Y009145D01*
X015166Y009046D02*
X015266Y009046D01*
X014632Y008849D02*
X009348Y008849D01*
X009348Y008764D02*
X009704Y008764D01*
X009704Y008479D01*
X009694Y008441D01*
X009674Y008407D01*
X009646Y008379D01*
X009612Y008359D01*
X009574Y008349D01*
X009348Y008349D01*
X009348Y008764D01*
X009348Y008751D02*
X009248Y008751D01*
X009248Y008652D02*
X009348Y008652D01*
X009348Y008554D02*
X009248Y008554D01*
X009248Y008455D02*
X009348Y008455D01*
X009348Y008357D02*
X009248Y008357D01*
X008992Y008357D02*
X008865Y008357D01*
X008156Y008357D02*
X007782Y008357D01*
X007754Y008342D02*
X007824Y008378D01*
X007887Y008424D01*
X007943Y008480D01*
X007989Y008544D01*
X008025Y008614D01*
X008049Y008689D01*
X008060Y008757D01*
X007260Y008757D01*
X007260Y008306D01*
X007485Y008306D01*
X007434Y008289D01*
X007372Y008257D01*
X007315Y008216D01*
X007266Y008167D01*
X007224Y008110D01*
X007193Y008048D01*
X007171Y007981D01*
X007162Y007925D01*
X007557Y007925D01*
X007557Y007828D01*
X007654Y007828D01*
X007654Y007925D01*
X008048Y007925D01*
X008040Y007981D01*
X008018Y008048D01*
X007986Y008110D01*
X007945Y008167D01*
X007895Y008216D01*
X007839Y008257D01*
X007776Y008289D01*
X007710Y008311D01*
X007672Y008317D01*
X007679Y008318D01*
X007754Y008342D01*
X007837Y008258D02*
X014721Y008258D01*
X014638Y008357D02*
X009604Y008357D01*
X009698Y008455D02*
X014632Y008455D01*
X014632Y008554D02*
X009704Y008554D01*
X009704Y008652D02*
X014632Y008652D01*
X014632Y008751D02*
X009704Y008751D01*
X009704Y008948D02*
X013117Y008948D01*
X013085Y009046D02*
X009704Y009046D01*
X010196Y009577D02*
X008644Y009577D01*
X008495Y009726D01*
X008585Y009726D01*
X008685Y009826D01*
X008685Y012329D01*
X008655Y012359D01*
X008793Y012497D01*
X008875Y012579D01*
X008919Y012685D01*
X008919Y013814D01*
X009173Y013560D01*
X009280Y013516D01*
X012040Y013516D01*
X012040Y012310D01*
X012016Y012334D01*
X011557Y012334D01*
X011457Y012234D01*
X011457Y012035D01*
X011433Y012028D01*
X011400Y012009D01*
X011391Y012011D01*
X011206Y012011D01*
X011022Y012011D01*
X010984Y012001D01*
X010949Y011981D01*
X010921Y011953D01*
X010902Y011919D01*
X010891Y011881D01*
X010891Y011869D01*
X010709Y012051D01*
X010575Y012185D01*
X010299Y012185D01*
X010299Y012329D01*
X010199Y012429D01*
X009232Y012429D01*
X009132Y012329D01*
X009132Y009826D01*
X009232Y009726D01*
X010172Y009726D01*
X010172Y009601D01*
X010196Y009577D01*
X010172Y009637D02*
X008584Y009637D01*
X008595Y009736D02*
X009222Y009736D01*
X009132Y009834D02*
X008685Y009834D01*
X008685Y009933D02*
X009132Y009933D01*
X009132Y010031D02*
X008685Y010031D01*
X008685Y010130D02*
X009132Y010130D01*
X009132Y010228D02*
X008685Y010228D01*
X008685Y010327D02*
X009132Y010327D01*
X009132Y010425D02*
X008685Y010425D01*
X008685Y010524D02*
X009132Y010524D01*
X009132Y010622D02*
X008685Y010622D01*
X008685Y010721D02*
X009132Y010721D01*
X009132Y010819D02*
X008685Y010819D01*
X008685Y010918D02*
X009132Y010918D01*
X009132Y011016D02*
X008685Y011016D01*
X008685Y011115D02*
X009132Y011115D01*
X009132Y011213D02*
X008685Y011213D01*
X008685Y011312D02*
X009132Y011312D01*
X009132Y011410D02*
X008685Y011410D01*
X008685Y011509D02*
X009132Y011509D01*
X009132Y011607D02*
X008685Y011607D01*
X008685Y011706D02*
X009132Y011706D01*
X009132Y011804D02*
X008685Y011804D01*
X008685Y011903D02*
X009132Y011903D01*
X009132Y012001D02*
X008685Y012001D01*
X008685Y012100D02*
X009132Y012100D01*
X009132Y012198D02*
X008685Y012198D01*
X008685Y012297D02*
X009132Y012297D01*
X009199Y012395D02*
X008692Y012395D01*
X008790Y012494D02*
X012040Y012494D01*
X012040Y012592D02*
X008881Y012592D01*
X008919Y012691D02*
X012040Y012691D01*
X012040Y012789D02*
X008919Y012789D01*
X008919Y012888D02*
X012040Y012888D01*
X012040Y012986D02*
X008919Y012986D01*
X008919Y013085D02*
X012040Y013085D01*
X012040Y013183D02*
X008919Y013183D01*
X008919Y013282D02*
X012040Y013282D01*
X012040Y013380D02*
X008919Y013380D01*
X008919Y013479D02*
X012040Y013479D01*
X012620Y013479D02*
X013032Y013479D01*
X013025Y013496D02*
X013050Y013435D01*
X012987Y013409D01*
X012884Y013306D01*
X012828Y013170D01*
X012828Y013024D01*
X012884Y012889D01*
X012987Y012785D01*
X013052Y012758D01*
X013179Y012631D01*
X019794Y012631D01*
X020899Y011526D01*
X020899Y011410D01*
X020955Y011274D01*
X021058Y011171D01*
X021194Y011115D01*
X021340Y011115D01*
X021193Y011115D02*
X018917Y011115D01*
X018917Y011213D02*
X021016Y011213D01*
X020939Y011312D02*
X018917Y011312D01*
X018917Y011410D02*
X020899Y011410D01*
X020899Y011509D02*
X018917Y011509D01*
X018898Y011607D02*
X020817Y011607D01*
X020719Y011706D02*
X014712Y011706D01*
X014810Y011607D02*
X016560Y011607D01*
X016519Y011509D02*
X015769Y011509D01*
X015819Y011410D02*
X016420Y011410D01*
X017454Y011607D02*
X018005Y011607D01*
X017986Y011509D02*
X017492Y011509D01*
X017492Y011013D02*
X017986Y011013D01*
X017986Y010936D01*
X017995Y010928D01*
X017986Y010919D01*
X017986Y010267D01*
X018086Y010167D01*
X018202Y010167D01*
X018202Y010049D01*
X017355Y010049D01*
X017352Y010052D01*
X017380Y010060D01*
X017414Y010079D01*
X017442Y010107D01*
X017462Y010142D01*
X017472Y010180D01*
X017472Y010405D01*
X017057Y010405D01*
X017057Y010505D01*
X017472Y010505D01*
X017472Y010731D01*
X017462Y010769D01*
X017442Y010803D01*
X017414Y010831D01*
X017409Y010834D01*
X017492Y010916D01*
X017492Y011013D01*
X017492Y010918D02*
X017986Y010918D01*
X017986Y010819D02*
X017426Y010819D01*
X017472Y010721D02*
X017986Y010721D01*
X017986Y010622D02*
X017472Y010622D01*
X017472Y010524D02*
X017986Y010524D01*
X017986Y010425D02*
X017057Y010425D01*
X017057Y010327D02*
X016957Y010327D01*
X016957Y010425D02*
X015819Y010425D01*
X015819Y010327D02*
X016542Y010327D01*
X016542Y010228D02*
X015753Y010228D01*
X015771Y010130D02*
X013956Y010130D01*
X013956Y010228D02*
X014679Y010228D01*
X014612Y010327D02*
X013956Y010327D01*
X013864Y010425D02*
X014612Y010425D01*
X014612Y010524D02*
X013761Y010524D01*
X013895Y010622D02*
X014612Y010622D01*
X014612Y010721D02*
X013976Y010721D01*
X013976Y010819D02*
X014612Y010819D01*
X014612Y010918D02*
X013976Y010918D01*
X013976Y011016D02*
X014612Y011016D01*
X014612Y011115D02*
X013976Y011115D01*
X013976Y011213D02*
X014554Y011213D01*
X014455Y011312D02*
X013976Y011312D01*
X013976Y011410D02*
X014357Y011410D01*
X014613Y011804D02*
X020620Y011804D01*
X020522Y011903D02*
X014515Y011903D01*
X013976Y012001D02*
X020423Y012001D01*
X020325Y012100D02*
X013902Y012100D01*
X013133Y012198D02*
X020226Y012198D01*
X020128Y012297D02*
X013060Y012297D01*
X012892Y012395D02*
X020029Y012395D01*
X019931Y012494D02*
X012620Y012494D01*
X012620Y012592D02*
X019832Y012592D01*
X020856Y013085D02*
X025461Y013085D01*
X025558Y013183D02*
X020758Y013183D01*
X020659Y013282D02*
X025656Y013282D01*
X025753Y013380D02*
X020561Y013380D01*
X020462Y013479D02*
X025850Y013479D01*
X025948Y013577D02*
X020364Y013577D01*
X020299Y013642D02*
X014472Y013642D01*
X014371Y013743D01*
X014371Y013879D01*
X014315Y014014D01*
X014211Y014118D01*
X014095Y014166D01*
X026389Y014166D01*
X026351Y014076D01*
X026351Y013986D01*
X024942Y012560D01*
X022443Y012560D01*
X022381Y012622D01*
X022245Y012678D01*
X022099Y012678D01*
X021964Y012622D01*
X021860Y012518D01*
X021847Y012487D01*
X021835Y012518D01*
X021731Y012622D01*
X021596Y012678D01*
X021449Y012678D01*
X021318Y012623D01*
X020299Y013642D01*
X020105Y013176D02*
X021601Y011680D01*
X021845Y012494D02*
X021850Y012494D01*
X021934Y012592D02*
X021761Y012592D01*
X022410Y012592D02*
X024974Y012592D01*
X025071Y012691D02*
X021250Y012691D01*
X021152Y012789D02*
X025169Y012789D01*
X025266Y012888D02*
X021053Y012888D01*
X020955Y012986D02*
X025364Y012986D01*
X026045Y013676D02*
X014438Y013676D01*
X014371Y013774D02*
X026142Y013774D01*
X026240Y013873D02*
X014371Y013873D01*
X014333Y013971D02*
X026337Y013971D01*
X026351Y014070D02*
X014259Y014070D01*
X013911Y014166D02*
X013794Y014118D01*
X013691Y014014D01*
X013635Y013879D01*
X013635Y013848D01*
X013601Y013882D01*
X013466Y013938D01*
X013319Y013938D01*
X013184Y013882D01*
X013081Y013778D01*
X013025Y013643D01*
X013025Y013496D01*
X013025Y013577D02*
X012620Y013577D01*
X012620Y013676D02*
X013038Y013676D01*
X013079Y013774D02*
X012620Y013774D01*
X012616Y013873D02*
X013175Y013873D01*
X013072Y014048D02*
X013208Y014104D01*
X013270Y014166D01*
X013911Y014166D01*
X013746Y014070D02*
X013125Y014070D01*
X013072Y014048D02*
X012926Y014048D01*
X012790Y014104D01*
X012687Y014207D01*
X012631Y014343D01*
X012631Y014489D01*
X012687Y014625D01*
X012790Y014728D01*
X012817Y014739D01*
X012702Y014855D01*
X012650Y014855D01*
X012515Y014911D01*
X012411Y015015D01*
X012355Y015150D01*
X012355Y015296D01*
X012411Y015432D01*
X012515Y015535D01*
X012650Y015591D01*
X012797Y015591D01*
X012932Y015535D01*
X013035Y015432D01*
X013092Y015296D01*
X013092Y015150D01*
X013073Y015106D01*
X013208Y014971D01*
X025202Y014971D01*
X025246Y015077D01*
X025350Y015181D01*
X025485Y015237D01*
X025631Y015237D01*
X025767Y015181D01*
X025870Y015077D01*
X025926Y014942D01*
X025926Y014796D01*
X025873Y014666D01*
X026207Y014666D01*
X026194Y014697D01*
X026194Y014844D01*
X026250Y014979D01*
X026353Y015082D01*
X026489Y015138D01*
X026635Y015138D01*
X026771Y015082D01*
X026863Y014990D01*
X028711Y014990D01*
X028700Y014996D01*
X028633Y015048D01*
X028572Y015109D01*
X028520Y015176D01*
X028478Y015250D01*
X028445Y015329D01*
X028423Y015411D01*
X028412Y015495D01*
X028412Y015499D01*
X029023Y015499D01*
X029023Y015577D01*
X028412Y015577D01*
X028412Y015581D01*
X028423Y015665D01*
X028445Y015747D01*
X028478Y015826D01*
X028520Y015900D01*
X028572Y015968D01*
X028631Y016027D01*
X028484Y016027D01*
X028248Y015790D01*
X027906Y015790D01*
X027814Y015698D01*
X027679Y015642D01*
X027532Y015642D01*
X027397Y015698D01*
X027305Y015790D01*
X024126Y015790D01*
X024034Y015698D01*
X023899Y015642D01*
X023753Y015642D01*
X023617Y015698D01*
X023514Y015802D01*
X023458Y015937D01*
X023458Y016084D01*
X023514Y016219D01*
X023617Y016323D01*
X023753Y016379D01*
X023882Y016379D01*
X023829Y016432D01*
X023773Y016567D01*
X023773Y016714D01*
X023829Y016849D01*
X023932Y016952D01*
X024068Y017009D01*
X024214Y017009D01*
X024349Y016952D01*
X024441Y016860D01*
X025177Y016860D01*
X025334Y016703D01*
X026259Y016703D01*
X026220Y016758D01*
X026182Y016831D01*
X026157Y016908D01*
X026146Y016980D01*
X026614Y016980D01*
X026614Y017080D01*
X026146Y017080D01*
X026157Y017152D01*
X026182Y017230D01*
X026220Y017303D01*
X026265Y017365D01*
X021989Y017365D01*
X021989Y017355D01*
X021933Y017219D01*
X021830Y017116D01*
X021694Y017060D01*
X021548Y017060D01*
X021413Y017116D01*
X021309Y017219D01*
X021253Y017355D01*
X021253Y017501D01*
X021301Y017618D01*
X006399Y017618D01*
X006399Y013488D01*
X006434Y013556D01*
X006480Y013620D01*
X006536Y013675D01*
X006600Y013722D01*
X006670Y013757D01*
X006745Y013782D01*
X006822Y013794D01*
X007163Y013794D01*
X007163Y013342D01*
X007260Y013342D01*
X008060Y013342D01*
X008049Y013411D01*
X008025Y013486D01*
X007989Y013556D01*
X007943Y013620D01*
X007887Y013675D01*
X007824Y013722D01*
X007754Y013757D01*
X007679Y013782D01*
X007601Y013794D01*
X007260Y013794D01*
X007260Y013342D01*
X007260Y013246D01*
X008060Y013246D01*
X008049Y013177D01*
X008025Y013102D01*
X007989Y013032D01*
X007943Y012968D01*
X007887Y012913D01*
X007824Y012866D01*
X007754Y012831D01*
X007679Y012806D01*
X007601Y012794D01*
X007260Y012794D01*
X007260Y013246D01*
X007163Y013246D01*
X007163Y012794D01*
X006822Y012794D01*
X006745Y012806D01*
X006670Y012831D01*
X006600Y012866D01*
X006536Y012913D01*
X006480Y012968D01*
X006434Y013032D01*
X006399Y013100D01*
X006399Y009000D01*
X006434Y009068D01*
X006480Y009132D01*
X006536Y009187D01*
X006600Y009233D01*
X006670Y009269D01*
X006745Y009293D01*
X006822Y009306D01*
X007163Y009306D01*
X007163Y008854D01*
X007260Y008854D01*
X008060Y008854D01*
X008049Y008923D01*
X008025Y008998D01*
X007989Y009068D01*
X007943Y009132D01*
X007887Y009187D01*
X007824Y009233D01*
X007754Y009269D01*
X007679Y009293D01*
X007601Y009306D01*
X007260Y009306D01*
X007260Y008854D01*
X007260Y008757D01*
X007163Y008757D01*
X007163Y008306D01*
X006822Y008306D01*
X006745Y008318D01*
X006670Y008342D01*
X006600Y008378D01*
X006536Y008424D01*
X006480Y008480D01*
X006434Y008544D01*
X006399Y008612D01*
X006399Y003623D01*
X044638Y003623D01*
X044638Y017618D01*
X042823Y017618D01*
X043043Y017399D01*
X043043Y017267D01*
X043249Y017473D01*
X043572Y017607D01*
X043922Y017607D01*
X044245Y017473D01*
X044493Y017225D01*
X044627Y016902D01*
X044627Y016552D01*
X044493Y016229D01*
X044245Y015981D01*
X043922Y015847D01*
X043572Y015847D01*
X043249Y015981D01*
X043001Y016229D01*
X042867Y016552D01*
X042867Y016730D01*
X042694Y016557D01*
X042201Y016557D01*
X041853Y016906D01*
X041853Y017399D01*
X042072Y017618D01*
X041220Y017618D01*
X041448Y017390D01*
X041448Y017202D01*
X040923Y017202D01*
X040923Y017102D01*
X040923Y016577D01*
X041111Y016577D01*
X041448Y016914D01*
X041448Y017102D01*
X040923Y017102D01*
X040823Y017102D01*
X040823Y016577D01*
X040635Y016577D01*
X040298Y016914D01*
X040298Y017102D01*
X040823Y017102D01*
X040823Y017202D01*
X040298Y017202D01*
X040298Y017390D01*
X040526Y017618D01*
X039944Y017618D01*
X040135Y017427D01*
X040135Y017003D01*
X040434Y016704D01*
X040434Y015443D01*
X040424Y015433D01*
X040424Y014660D01*
X040295Y014531D01*
X033582Y014531D01*
X033606Y014506D01*
X033662Y014371D01*
X033662Y014283D01*
X034067Y013879D01*
X037950Y013879D01*
X038042Y013841D01*
X038113Y013770D01*
X038142Y013741D01*
X038269Y013741D01*
X038404Y013685D01*
X038508Y013581D01*
X038564Y013446D01*
X038564Y013299D01*
X038508Y013164D01*
X038404Y013061D01*
X038269Y013005D01*
X038123Y013005D01*
X038117Y013007D01*
X038131Y012973D01*
X038131Y012827D01*
X038075Y012692D01*
X037971Y012588D01*
X037836Y012532D01*
X037690Y012532D01*
X037554Y012588D01*
X037451Y012692D01*
X037395Y012827D01*
X037395Y012943D01*
X037195Y013143D01*
X033593Y013143D01*
X032825Y013910D01*
X032816Y013910D01*
X032816Y013909D01*
X033851Y012875D01*
X036272Y012875D01*
X036334Y012937D01*
X036469Y012993D01*
X036616Y012993D01*
X036751Y012937D01*
X036854Y012833D01*
X036910Y012698D01*
X036910Y012551D01*
X036881Y012481D01*
X038969Y012481D01*
X039031Y012543D01*
X039166Y012599D01*
X039312Y012599D01*
X039448Y012543D01*
X039551Y012439D01*
X039607Y012304D01*
X039607Y012158D01*
X039551Y012022D01*
X039448Y011919D01*
X039312Y011863D01*
X039166Y011863D01*
X039031Y011919D01*
X038969Y011981D01*
X036178Y011981D01*
X036086Y012019D01*
X036006Y012099D01*
X033619Y012099D01*
X033527Y012137D01*
X033210Y012453D01*
X032887Y012453D01*
X032938Y012401D01*
X032938Y012131D01*
X033209Y012131D01*
X033308Y012031D01*
X033308Y011878D01*
X033326Y011860D01*
X034980Y011860D01*
X035109Y011732D01*
X035177Y011664D01*
X035177Y011664D01*
X035306Y011535D01*
X035306Y011299D01*
X035333Y011299D01*
X035421Y011211D01*
X035774Y011211D01*
X035862Y011299D01*
X036357Y011299D01*
X036415Y011241D01*
X036490Y011316D01*
X037131Y011316D01*
X037230Y011217D01*
X037230Y010856D01*
X037131Y010756D01*
X036490Y010756D01*
X036485Y010761D01*
X036435Y010761D01*
X036395Y010721D01*
X037370Y010721D01*
X037370Y010661D02*
X037765Y010661D01*
X037765Y010651D01*
X037370Y010651D01*
X037370Y010526D01*
X037381Y010488D01*
X037381Y010487D01*
X037350Y010457D01*
X037350Y010355D01*
X037230Y010355D01*
X037230Y010457D01*
X037131Y010556D01*
X036490Y010556D01*
X036436Y010503D01*
X036436Y010637D01*
X036426Y010675D01*
X036406Y010709D01*
X036395Y010721D01*
X036436Y010622D02*
X037370Y010622D01*
X037370Y010661D02*
X037370Y010786D01*
X037381Y010824D01*
X037381Y010825D01*
X037350Y010856D01*
X037350Y011217D01*
X037450Y011316D01*
X038091Y011316D01*
X038141Y011266D01*
X038203Y011266D01*
X038203Y011278D01*
X038303Y011377D01*
X038798Y011377D01*
X038856Y011320D01*
X038935Y011320D01*
X038982Y011300D01*
X039096Y011300D01*
X039231Y011244D01*
X039335Y011140D01*
X039391Y011005D01*
X039391Y010859D01*
X039335Y010723D01*
X039231Y010620D01*
X039096Y010564D01*
X038949Y010564D01*
X038877Y010593D01*
X038877Y010577D01*
X038569Y010577D01*
X038569Y010539D01*
X038877Y010539D01*
X038877Y010400D01*
X038867Y010362D01*
X038847Y010328D01*
X038819Y010300D01*
X038785Y010280D01*
X038747Y010270D01*
X038569Y010270D01*
X038569Y010539D01*
X038531Y010539D01*
X038223Y010539D01*
X038223Y010400D01*
X038233Y010362D01*
X038253Y010328D01*
X038281Y010300D01*
X038315Y010280D01*
X038353Y010270D01*
X038531Y010270D01*
X038531Y010539D01*
X038531Y010577D01*
X038223Y010577D01*
X038223Y010715D01*
X038233Y010753D01*
X038253Y010788D01*
X038265Y010800D01*
X038258Y010806D01*
X038165Y010806D01*
X038170Y010786D01*
X038170Y010661D01*
X037775Y010661D01*
X037775Y010651D01*
X038170Y010651D01*
X038170Y010526D01*
X038160Y010488D01*
X038160Y010487D01*
X038190Y010457D01*
X038190Y010096D01*
X038091Y009996D01*
X037658Y009996D01*
X037658Y009914D01*
X037633Y009853D01*
X039601Y009853D01*
X040456Y010708D01*
X040456Y011930D01*
X040364Y012022D01*
X040308Y012158D01*
X040308Y012304D01*
X040364Y012439D01*
X040468Y012543D01*
X040603Y012599D01*
X040749Y012599D01*
X040885Y012543D01*
X040988Y012439D01*
X041044Y012304D01*
X041044Y012158D01*
X040988Y012022D01*
X040896Y011930D01*
X040896Y010526D01*
X039947Y009577D01*
X040467Y009577D01*
X041332Y010442D01*
X041332Y010533D01*
X041364Y010611D01*
X041233Y010611D01*
X041098Y010667D01*
X040994Y010770D01*
X040938Y010906D01*
X040938Y011052D01*
X040994Y011188D01*
X041098Y011291D01*
X041233Y011347D01*
X041379Y011347D01*
X041515Y011291D01*
X041607Y011199D01*
X041874Y011199D01*
X042002Y011070D01*
X042316Y010757D01*
X042316Y012084D01*
X041759Y012608D01*
X041755Y012610D01*
X041723Y012642D01*
X041689Y012674D01*
X041687Y012677D01*
X041685Y012680D01*
X041667Y012722D01*
X041648Y012764D01*
X041648Y012768D01*
X041647Y012772D01*
X041647Y012818D01*
X041645Y012864D01*
X041647Y012867D01*
X041647Y015740D01*
X041585Y015802D01*
X041529Y015937D01*
X041529Y016084D01*
X041585Y016219D01*
X041688Y016323D01*
X041823Y016379D01*
X041970Y016379D01*
X042105Y016323D01*
X042209Y016219D01*
X042265Y016084D01*
X042265Y015937D01*
X042209Y015802D01*
X042147Y015740D01*
X042147Y012930D01*
X042704Y012405D01*
X042708Y012404D01*
X042740Y012371D01*
X042773Y012340D01*
X042775Y012336D01*
X042778Y012333D01*
X042795Y012291D01*
X042814Y012249D01*
X042814Y012245D01*
X042816Y012241D01*
X042816Y012195D01*
X042817Y012149D01*
X042816Y012146D01*
X042816Y010051D01*
X042997Y009870D01*
X043123Y009922D01*
X043269Y009922D01*
X043404Y009866D01*
X043508Y009762D01*
X043564Y009627D01*
X043564Y009481D01*
X043508Y009345D01*
X043404Y009242D01*
X043269Y009186D01*
X043123Y009186D01*
X042987Y009242D01*
X042925Y009304D01*
X042910Y009304D01*
X042818Y009342D01*
X042748Y009412D01*
X042471Y009689D01*
X042471Y007361D01*
X042736Y007097D01*
X042823Y007097D01*
X042841Y007140D01*
X042972Y007271D01*
X043143Y007342D01*
X043328Y007342D01*
X043499Y007271D01*
X043630Y007140D01*
X043701Y006969D01*
X043701Y006784D01*
X043630Y006613D01*
X043499Y006482D01*
X043328Y006411D01*
X043143Y006411D01*
X042972Y006482D01*
X042841Y006613D01*
X042823Y006657D01*
X042554Y006657D01*
X042160Y007050D01*
X042087Y007123D01*
X042087Y006657D01*
X042661Y006083D01*
X042817Y006083D01*
X042841Y006140D01*
X042972Y006271D01*
X043143Y006342D01*
X043328Y006342D01*
X043499Y006271D01*
X043630Y006140D01*
X043701Y005969D01*
X043701Y005784D01*
X043630Y005613D01*
X043499Y005482D01*
X043328Y005411D01*
X043143Y005411D01*
X042972Y005482D01*
X042841Y005613D01*
X042837Y005623D01*
X042471Y005623D01*
X042336Y005758D01*
X041627Y006466D01*
X041627Y009342D01*
X041545Y009424D01*
X041489Y009559D01*
X041489Y009706D01*
X041545Y009841D01*
X041649Y009945D01*
X041784Y010001D01*
X041931Y010001D01*
X042031Y009959D01*
X042031Y010297D01*
X042031Y010228D02*
X041989Y010228D01*
X042031Y010130D02*
X041866Y010130D01*
X042031Y010031D02*
X041544Y010031D01*
X041637Y009933D02*
X041445Y009933D01*
X041542Y009834D02*
X041347Y009834D01*
X041248Y009736D02*
X041502Y009736D01*
X041489Y009637D02*
X041150Y009637D01*
X041051Y009539D02*
X041498Y009539D01*
X041538Y009440D02*
X040953Y009440D01*
X040854Y009342D02*
X041627Y009342D01*
X041627Y009243D02*
X040756Y009243D01*
X040657Y009145D02*
X041627Y009145D01*
X041627Y009046D02*
X037654Y009046D01*
X037658Y008948D02*
X041627Y008948D01*
X041627Y008849D02*
X037642Y008849D01*
X037599Y008751D02*
X041627Y008751D01*
X041627Y008652D02*
X037500Y008652D01*
X037290Y008963D02*
X025519Y008963D01*
X024928Y009554D01*
X024928Y010656D01*
X024708Y010524D02*
X023827Y010524D01*
X023840Y010425D02*
X024708Y010425D01*
X024708Y010327D02*
X023831Y010327D01*
X023791Y010228D02*
X024708Y010228D01*
X024708Y010130D02*
X023702Y010130D01*
X023753Y010079D02*
X023617Y010023D01*
X023514Y009920D01*
X023458Y009785D01*
X023458Y009654D01*
X020900Y007097D01*
X008018Y007097D01*
X008000Y007140D01*
X007869Y007271D01*
X007698Y007342D01*
X007513Y007342D01*
X007342Y007271D01*
X007211Y007140D01*
X007140Y006969D01*
X007140Y006784D01*
X007211Y006613D01*
X007342Y006482D01*
X007513Y006411D01*
X007653Y006411D01*
X007583Y006342D01*
X007513Y006342D01*
X007342Y006271D01*
X007211Y006140D01*
X007140Y005969D01*
X007140Y005784D01*
X007211Y005613D01*
X007342Y005482D01*
X007513Y005411D01*
X007698Y005411D01*
X007869Y005482D01*
X008000Y005613D01*
X008071Y005784D01*
X008071Y005969D01*
X008027Y006075D01*
X023403Y006075D01*
X023495Y006114D01*
X024519Y007137D01*
X024589Y007207D01*
X024627Y007299D01*
X024627Y008693D01*
X024689Y008755D01*
X024745Y008890D01*
X024745Y009036D01*
X024689Y009172D01*
X024585Y009275D01*
X024450Y009331D01*
X024304Y009331D01*
X024168Y009275D01*
X024065Y009172D01*
X024009Y009036D01*
X024009Y008890D01*
X024065Y008755D01*
X024127Y008693D01*
X024127Y007453D01*
X023250Y006575D01*
X007962Y006575D01*
X008000Y006613D01*
X008018Y006657D01*
X021082Y006657D01*
X021211Y006786D01*
X023769Y009343D01*
X023899Y009343D01*
X024034Y009399D01*
X024138Y009503D01*
X024194Y009638D01*
X024194Y009785D01*
X024138Y009920D01*
X024034Y010023D01*
X023899Y010079D01*
X023753Y010079D01*
X023637Y010031D02*
X023477Y010031D01*
X023527Y009933D02*
X023378Y009933D01*
X023280Y009834D02*
X023478Y009834D01*
X023458Y009736D02*
X023181Y009736D01*
X023083Y009637D02*
X023441Y009637D01*
X023342Y009539D02*
X022984Y009539D01*
X022900Y009440D02*
X023244Y009440D01*
X023145Y009342D02*
X022801Y009342D01*
X022684Y009550D02*
X023471Y010337D01*
X023471Y010420D01*
X023691Y010721D02*
X024552Y010721D01*
X024651Y010622D02*
X023786Y010622D01*
X024015Y010031D02*
X024708Y010031D01*
X024708Y009933D02*
X024125Y009933D01*
X024173Y009834D02*
X024708Y009834D01*
X024708Y009736D02*
X024194Y009736D01*
X024194Y009637D02*
X024708Y009637D01*
X024708Y009539D02*
X024153Y009539D01*
X024075Y009440D02*
X024730Y009440D01*
X024829Y009342D02*
X023767Y009342D01*
X023669Y009243D02*
X024136Y009243D01*
X024054Y009145D02*
X023570Y009145D01*
X023472Y009046D02*
X024013Y009046D01*
X024009Y008948D02*
X023373Y008948D01*
X023275Y008849D02*
X024026Y008849D01*
X024069Y008751D02*
X023176Y008751D01*
X023078Y008652D02*
X024127Y008652D01*
X024127Y008554D02*
X022979Y008554D01*
X022881Y008455D02*
X024127Y008455D01*
X024127Y008357D02*
X022782Y008357D01*
X022684Y008258D02*
X024127Y008258D01*
X024127Y008160D02*
X022585Y008160D01*
X022487Y008061D02*
X024127Y008061D01*
X024127Y007963D02*
X022388Y007963D01*
X022290Y007864D02*
X024127Y007864D01*
X024127Y007766D02*
X022191Y007766D01*
X022093Y007667D02*
X024127Y007667D01*
X024127Y007569D02*
X021994Y007569D01*
X021896Y007470D02*
X024127Y007470D01*
X024046Y007372D02*
X021797Y007372D01*
X021699Y007273D02*
X023948Y007273D01*
X023849Y007175D02*
X021600Y007175D01*
X021502Y007076D02*
X023751Y007076D01*
X023652Y006978D02*
X021403Y006978D01*
X021305Y006879D02*
X023554Y006879D01*
X023455Y006781D02*
X021206Y006781D01*
X021211Y006786D02*
X021211Y006786D01*
X021108Y006682D02*
X023357Y006682D01*
X023258Y006584D02*
X007971Y006584D01*
X007628Y006387D02*
X006399Y006387D01*
X006399Y006485D02*
X007339Y006485D01*
X007240Y006584D02*
X006399Y006584D01*
X006399Y006682D02*
X007182Y006682D01*
X007141Y006781D02*
X006399Y006781D01*
X006399Y006879D02*
X007140Y006879D01*
X007144Y006978D02*
X006399Y006978D01*
X006399Y007076D02*
X007184Y007076D01*
X007246Y007175D02*
X006399Y007175D01*
X006399Y007273D02*
X007347Y007273D01*
X007434Y007464D02*
X007372Y007496D01*
X007315Y007537D01*
X007266Y007587D01*
X007224Y007643D01*
X007193Y007706D01*
X007171Y007772D01*
X007162Y007828D01*
X007557Y007828D01*
X007557Y007433D01*
X007501Y007442D01*
X007434Y007464D01*
X007422Y007470D02*
X006399Y007470D01*
X006399Y007372D02*
X021175Y007372D01*
X021077Y007273D02*
X007863Y007273D01*
X007965Y007175D02*
X020978Y007175D01*
X021274Y007470D02*
X007789Y007470D01*
X007776Y007464D02*
X007839Y007496D01*
X007895Y007537D01*
X007945Y007587D01*
X007986Y007643D01*
X008018Y007706D01*
X008040Y007772D01*
X008048Y007828D01*
X007654Y007828D01*
X007654Y007433D01*
X007710Y007442D01*
X007776Y007464D01*
X007654Y007470D02*
X007557Y007470D01*
X007557Y007569D02*
X007654Y007569D01*
X007654Y007667D02*
X007557Y007667D01*
X007557Y007766D02*
X007654Y007766D01*
X007654Y007864D02*
X021668Y007864D01*
X021569Y007766D02*
X008038Y007766D01*
X007998Y007667D02*
X021471Y007667D01*
X021372Y007569D02*
X007927Y007569D01*
X007557Y007864D02*
X006399Y007864D01*
X006399Y007766D02*
X007173Y007766D01*
X007212Y007667D02*
X006399Y007667D01*
X006399Y007569D02*
X007283Y007569D01*
X007168Y007963D02*
X006399Y007963D01*
X006399Y008061D02*
X007200Y008061D01*
X007261Y008160D02*
X006399Y008160D01*
X006399Y008258D02*
X007374Y008258D01*
X007260Y008357D02*
X007163Y008357D01*
X007163Y008455D02*
X007260Y008455D01*
X007260Y008554D02*
X007163Y008554D01*
X007163Y008652D02*
X007260Y008652D01*
X007260Y008751D02*
X007163Y008751D01*
X007260Y008849D02*
X008085Y008849D01*
X008085Y008751D02*
X008059Y008751D01*
X008037Y008652D02*
X008085Y008652D01*
X008085Y008554D02*
X007994Y008554D01*
X007918Y008455D02*
X008085Y008455D01*
X007950Y008160D02*
X021963Y008160D01*
X021865Y008061D02*
X008011Y008061D01*
X008042Y007963D02*
X021766Y007963D01*
X024261Y006879D02*
X041627Y006879D01*
X041627Y006781D02*
X024162Y006781D01*
X024064Y006682D02*
X041627Y006682D01*
X041627Y006584D02*
X023965Y006584D01*
X023867Y006485D02*
X041627Y006485D01*
X041707Y006387D02*
X023768Y006387D01*
X023670Y006288D02*
X041805Y006288D01*
X041904Y006190D02*
X023571Y006190D01*
X023441Y006091D02*
X042002Y006091D01*
X042101Y005993D02*
X008061Y005993D01*
X008071Y005894D02*
X042199Y005894D01*
X042298Y005796D02*
X008071Y005796D01*
X008035Y005697D02*
X042396Y005697D01*
X042855Y005599D02*
X007986Y005599D01*
X007887Y005500D02*
X042954Y005500D01*
X043249Y005260D02*
X043001Y005013D01*
X042867Y004689D01*
X042867Y004339D01*
X043001Y004016D01*
X043249Y003768D01*
X043572Y003635D01*
X043922Y003635D01*
X044245Y003768D01*
X044493Y004016D01*
X044627Y004339D01*
X044627Y004689D01*
X044493Y005013D01*
X044245Y005260D01*
X043922Y005394D01*
X043572Y005394D01*
X043249Y005260D01*
X043193Y005205D02*
X007844Y005205D01*
X007789Y005260D02*
X007465Y005394D01*
X007115Y005394D01*
X006792Y005260D01*
X006544Y005013D01*
X006410Y004689D01*
X006410Y004339D01*
X006544Y004016D01*
X006792Y003768D01*
X007115Y003635D01*
X007465Y003635D01*
X007789Y003768D01*
X008036Y004016D01*
X008170Y004339D01*
X008170Y004689D01*
X008036Y005013D01*
X007789Y005260D01*
X007685Y005303D02*
X043352Y005303D01*
X043517Y005500D02*
X044638Y005500D01*
X044638Y005402D02*
X006399Y005402D01*
X006399Y005500D02*
X007324Y005500D01*
X007225Y005599D02*
X006399Y005599D01*
X006399Y005697D02*
X007176Y005697D01*
X007140Y005796D02*
X006399Y005796D01*
X006399Y005894D02*
X007140Y005894D01*
X007150Y005993D02*
X006399Y005993D01*
X006399Y006091D02*
X007191Y006091D01*
X007261Y006190D02*
X006399Y006190D01*
X006399Y006288D02*
X007383Y006288D01*
X007605Y006877D02*
X020991Y006877D01*
X023826Y009711D01*
X024617Y009243D02*
X024927Y009243D01*
X025026Y009145D02*
X024700Y009145D01*
X024741Y009046D02*
X025124Y009046D01*
X025223Y008948D02*
X024745Y008948D01*
X024728Y008849D02*
X025321Y008849D01*
X025420Y008751D02*
X024685Y008751D01*
X024627Y008652D02*
X037081Y008652D01*
X036948Y009853D02*
X034514Y009853D01*
X034833Y010171D01*
X034833Y010211D01*
X034851Y010201D01*
X034889Y010191D01*
X035067Y010191D01*
X035067Y010460D01*
X035105Y010460D01*
X035105Y010498D01*
X035413Y010498D01*
X035413Y010637D01*
X035403Y010675D01*
X035383Y010709D01*
X035371Y010721D01*
X035824Y010721D01*
X035812Y010709D01*
X035792Y010675D01*
X035782Y010637D01*
X035782Y010498D01*
X036090Y010498D01*
X036090Y010460D01*
X035782Y010460D01*
X035782Y010321D01*
X035792Y010283D01*
X035812Y010249D01*
X035840Y010221D01*
X035874Y010201D01*
X035912Y010191D01*
X036090Y010191D01*
X036090Y010460D01*
X036128Y010460D01*
X036128Y010191D01*
X036306Y010191D01*
X036344Y010201D01*
X036379Y010221D01*
X036390Y010233D01*
X036390Y010096D01*
X036490Y009996D01*
X036922Y009996D01*
X036922Y009914D01*
X036948Y009853D01*
X036922Y009933D02*
X034595Y009933D01*
X034693Y010031D02*
X036455Y010031D01*
X036424Y009987D02*
X036424Y010499D01*
X036660Y010735D01*
X037212Y010735D01*
X037290Y010656D01*
X037770Y010656D01*
X038170Y010622D02*
X038223Y010622D01*
X038223Y010524D02*
X038170Y010524D01*
X038190Y010425D02*
X038223Y010425D01*
X038254Y010327D02*
X038190Y010327D01*
X038190Y010228D02*
X039977Y010228D01*
X040075Y010327D02*
X038846Y010327D01*
X038877Y010425D02*
X040174Y010425D01*
X040272Y010524D02*
X038877Y010524D01*
X038569Y010524D02*
X038531Y010524D01*
X038531Y010425D02*
X038569Y010425D01*
X038569Y010327D02*
X038531Y010327D01*
X038190Y010130D02*
X039878Y010130D01*
X039780Y010031D02*
X038126Y010031D01*
X037770Y010276D02*
X037619Y010276D01*
X037290Y009987D01*
X037658Y009933D02*
X039681Y009933D01*
X040106Y009736D02*
X040626Y009736D01*
X040724Y009834D02*
X040205Y009834D01*
X040303Y009933D02*
X040823Y009933D01*
X040921Y010031D02*
X040402Y010031D01*
X040500Y010130D02*
X041020Y010130D01*
X041118Y010228D02*
X040599Y010228D01*
X040697Y010327D02*
X041217Y010327D01*
X041315Y010425D02*
X040796Y010425D01*
X040894Y010524D02*
X041332Y010524D01*
X041205Y010622D02*
X040896Y010622D01*
X040896Y010721D02*
X041044Y010721D01*
X040974Y010819D02*
X040896Y010819D01*
X040896Y010918D02*
X040938Y010918D01*
X040938Y011016D02*
X040896Y011016D01*
X040896Y011115D02*
X040964Y011115D01*
X041020Y011213D02*
X040896Y011213D01*
X040896Y011312D02*
X041148Y011312D01*
X040896Y011410D02*
X042316Y011410D01*
X042316Y011312D02*
X041464Y011312D01*
X041592Y011213D02*
X042316Y011213D01*
X042316Y011115D02*
X041958Y011115D01*
X042056Y011016D02*
X042316Y011016D01*
X042316Y010918D02*
X042155Y010918D01*
X042253Y010819D02*
X042316Y010819D01*
X042251Y010510D02*
X041782Y010979D01*
X041306Y010979D01*
X040896Y011509D02*
X042316Y011509D01*
X042316Y011607D02*
X040896Y011607D01*
X040896Y011706D02*
X042316Y011706D01*
X042316Y011804D02*
X040896Y011804D01*
X040896Y011903D02*
X042316Y011903D01*
X042316Y012001D02*
X040967Y012001D01*
X041020Y012100D02*
X042299Y012100D01*
X042194Y012198D02*
X041044Y012198D01*
X041044Y012297D02*
X042089Y012297D01*
X041985Y012395D02*
X041007Y012395D01*
X040934Y012494D02*
X041880Y012494D01*
X041775Y012592D02*
X040766Y012592D01*
X040587Y012592D02*
X039329Y012592D01*
X039150Y012592D02*
X037975Y012592D01*
X038074Y012691D02*
X041680Y012691D01*
X041647Y012789D02*
X038115Y012789D01*
X038131Y012888D02*
X041647Y012888D01*
X041647Y012986D02*
X038126Y012986D01*
X038429Y013085D02*
X041647Y013085D01*
X041647Y013183D02*
X038516Y013183D01*
X038557Y013282D02*
X041647Y013282D01*
X041647Y013380D02*
X038564Y013380D01*
X038550Y013479D02*
X041647Y013479D01*
X041647Y013577D02*
X038510Y013577D01*
X038413Y013676D02*
X041647Y013676D01*
X041647Y013774D02*
X038108Y013774D01*
X037964Y013873D02*
X041647Y013873D01*
X041647Y013971D02*
X033974Y013971D01*
X033876Y014070D02*
X041647Y014070D01*
X041647Y014168D02*
X033777Y014168D01*
X033679Y014267D02*
X041647Y014267D01*
X041647Y014365D02*
X033662Y014365D01*
X033624Y014464D02*
X041647Y014464D01*
X041647Y014562D02*
X040327Y014562D01*
X040424Y014661D02*
X041647Y014661D01*
X041647Y014759D02*
X040424Y014759D01*
X040424Y014858D02*
X041647Y014858D01*
X041647Y014956D02*
X040424Y014956D01*
X040424Y015055D02*
X041647Y015055D01*
X041647Y015153D02*
X040424Y015153D01*
X040424Y015252D02*
X041647Y015252D01*
X041647Y015350D02*
X040424Y015350D01*
X040434Y015449D02*
X041647Y015449D01*
X041647Y015547D02*
X040434Y015547D01*
X040434Y015646D02*
X041647Y015646D01*
X041642Y015744D02*
X040434Y015744D01*
X040434Y015843D02*
X041568Y015843D01*
X041529Y015941D02*
X040434Y015941D01*
X040434Y016040D02*
X041529Y016040D01*
X041551Y016138D02*
X040434Y016138D01*
X040434Y016237D02*
X041602Y016237D01*
X041719Y016335D02*
X040434Y016335D01*
X040434Y016434D02*
X042916Y016434D01*
X042875Y016532D02*
X040434Y016532D01*
X040434Y016631D02*
X040581Y016631D01*
X040483Y016729D02*
X040409Y016729D01*
X040384Y016828D02*
X040310Y016828D01*
X040298Y016926D02*
X040212Y016926D01*
X040135Y017025D02*
X040298Y017025D01*
X040135Y017123D02*
X040823Y017123D01*
X040823Y017025D02*
X040923Y017025D01*
X040923Y017123D02*
X041853Y017123D01*
X041853Y017025D02*
X041448Y017025D01*
X041448Y016926D02*
X041853Y016926D01*
X041931Y016828D02*
X041362Y016828D01*
X041263Y016729D02*
X042029Y016729D01*
X042128Y016631D02*
X041165Y016631D01*
X040923Y016631D02*
X040823Y016631D01*
X040823Y016729D02*
X040923Y016729D01*
X040923Y016828D02*
X040823Y016828D01*
X040823Y016926D02*
X040923Y016926D01*
X041448Y017222D02*
X041853Y017222D01*
X041853Y017320D02*
X041448Y017320D01*
X041420Y017419D02*
X041873Y017419D01*
X041972Y017517D02*
X041321Y017517D01*
X041223Y017616D02*
X042070Y017616D01*
X042826Y017616D02*
X044638Y017616D01*
X044638Y017517D02*
X044138Y017517D01*
X044300Y017419D02*
X044638Y017419D01*
X044638Y017320D02*
X044398Y017320D01*
X044494Y017222D02*
X044638Y017222D01*
X044638Y017123D02*
X044535Y017123D01*
X044576Y017025D02*
X044638Y017025D01*
X044638Y016926D02*
X044617Y016926D01*
X044627Y016828D02*
X044638Y016828D01*
X044627Y016729D02*
X044638Y016729D01*
X044627Y016631D02*
X044638Y016631D01*
X044638Y016532D02*
X044619Y016532D01*
X044638Y016434D02*
X044578Y016434D01*
X044537Y016335D02*
X044638Y016335D01*
X044638Y016237D02*
X044496Y016237D01*
X044403Y016138D02*
X044638Y016138D01*
X044638Y016040D02*
X044304Y016040D01*
X044150Y015941D02*
X044638Y015941D01*
X044638Y015843D02*
X042226Y015843D01*
X042265Y015941D02*
X043344Y015941D01*
X043190Y016040D02*
X042265Y016040D01*
X042242Y016138D02*
X043091Y016138D01*
X042998Y016237D02*
X042191Y016237D01*
X042074Y016335D02*
X042957Y016335D01*
X042867Y016631D02*
X042768Y016631D01*
X042866Y016729D02*
X042867Y016729D01*
X043043Y017320D02*
X043096Y017320D01*
X043023Y017419D02*
X043194Y017419D01*
X043356Y017517D02*
X042924Y017517D01*
X040523Y017616D02*
X039946Y017616D01*
X040045Y017517D02*
X040425Y017517D01*
X040326Y017419D02*
X040135Y017419D01*
X040135Y017320D02*
X040298Y017320D01*
X040298Y017222D02*
X040135Y017222D01*
X038605Y017207D02*
X038251Y017207D01*
X038078Y017034D01*
X038078Y015144D01*
X037920Y014987D01*
X032743Y014987D01*
X032723Y014751D02*
X032645Y014672D01*
X032723Y014751D02*
X040204Y014751D01*
X040204Y015538D01*
X041227Y015144D02*
X041227Y014357D01*
X040597Y013727D01*
X040597Y013648D01*
X041227Y013018D01*
X041227Y012782D01*
X041385Y012625D01*
X041385Y012546D01*
X041975Y011955D01*
X042816Y012001D02*
X044638Y012001D01*
X044638Y011903D02*
X044149Y011903D01*
X044108Y011944D02*
X043615Y011944D01*
X043266Y011596D01*
X043266Y011103D01*
X043615Y010754D01*
X044108Y010754D01*
X044456Y011103D01*
X044456Y011596D01*
X044108Y011944D01*
X044247Y011804D02*
X044638Y011804D01*
X044638Y011706D02*
X044346Y011706D01*
X044444Y011607D02*
X044638Y011607D01*
X044638Y011509D02*
X044456Y011509D01*
X044456Y011410D02*
X044638Y011410D01*
X044638Y011312D02*
X044456Y011312D01*
X044456Y011213D02*
X044638Y011213D01*
X044638Y011115D02*
X044456Y011115D01*
X044370Y011016D02*
X044638Y011016D01*
X044638Y010918D02*
X044271Y010918D01*
X044173Y010819D02*
X044638Y010819D01*
X044638Y010721D02*
X042816Y010721D01*
X042816Y010819D02*
X043549Y010819D01*
X043451Y010918D02*
X042816Y010918D01*
X042816Y011016D02*
X043352Y011016D01*
X043266Y011115D02*
X042816Y011115D01*
X042816Y011213D02*
X043266Y011213D01*
X043266Y011312D02*
X042816Y011312D01*
X042816Y011410D02*
X043266Y011410D01*
X043266Y011509D02*
X042816Y011509D01*
X042816Y011607D02*
X043278Y011607D01*
X043377Y011706D02*
X042816Y011706D01*
X042816Y011804D02*
X043475Y011804D01*
X043574Y011903D02*
X042816Y011903D01*
X042816Y012100D02*
X044638Y012100D01*
X044638Y012198D02*
X042816Y012198D01*
X042793Y012297D02*
X044638Y012297D01*
X044638Y012395D02*
X042716Y012395D01*
X042610Y012494D02*
X044638Y012494D01*
X044638Y012592D02*
X042505Y012592D01*
X042400Y012691D02*
X044638Y012691D01*
X044638Y012789D02*
X042296Y012789D01*
X042191Y012888D02*
X044638Y012888D01*
X044638Y012986D02*
X042147Y012986D01*
X042147Y013085D02*
X044638Y013085D01*
X044638Y013183D02*
X044206Y013183D01*
X044123Y013101D02*
X043631Y013101D01*
X043282Y013449D01*
X043282Y013942D01*
X043631Y014291D01*
X044123Y014291D01*
X044472Y013942D01*
X044472Y013449D01*
X044123Y013101D01*
X044305Y013282D02*
X044638Y013282D01*
X044638Y013380D02*
X044403Y013380D01*
X044472Y013479D02*
X044638Y013479D01*
X044638Y013577D02*
X044472Y013577D01*
X044472Y013676D02*
X044638Y013676D01*
X044638Y013774D02*
X044472Y013774D01*
X044472Y013873D02*
X044638Y013873D01*
X044638Y013971D02*
X044443Y013971D01*
X044344Y014070D02*
X044638Y014070D01*
X044638Y014168D02*
X044246Y014168D01*
X044147Y014267D02*
X044638Y014267D01*
X044638Y014365D02*
X042147Y014365D01*
X042147Y014267D02*
X043607Y014267D01*
X043508Y014168D02*
X042147Y014168D01*
X042147Y014070D02*
X043410Y014070D01*
X043311Y013971D02*
X042147Y013971D01*
X042147Y013873D02*
X043282Y013873D01*
X043282Y013774D02*
X042147Y013774D01*
X042147Y013676D02*
X043282Y013676D01*
X043282Y013577D02*
X042147Y013577D01*
X042147Y013479D02*
X043282Y013479D01*
X043351Y013380D02*
X042147Y013380D01*
X042147Y013282D02*
X043449Y013282D01*
X043548Y013183D02*
X042147Y013183D01*
X043038Y013097D02*
X043196Y013255D01*
X043038Y013097D02*
X043038Y013018D01*
X040676Y012231D02*
X040676Y010617D01*
X039692Y009633D01*
X030716Y009633D01*
X029928Y010420D01*
X029928Y010696D01*
X029495Y010302D02*
X029495Y010262D01*
X031297Y010425D02*
X031314Y010425D01*
X032897Y010130D02*
X034169Y010130D01*
X034268Y010228D02*
X032996Y010228D01*
X033042Y010327D02*
X034366Y010327D01*
X034792Y010130D02*
X036390Y010130D01*
X036386Y010228D02*
X036390Y010228D01*
X036267Y010144D02*
X036424Y009987D01*
X036267Y010144D02*
X035834Y010144D01*
X035775Y010203D01*
X035775Y010184D01*
X035125Y010184D01*
X035125Y010479D01*
X035086Y010479D01*
X035105Y010460D02*
X035105Y010191D01*
X035283Y010191D01*
X035321Y010201D01*
X035355Y010221D01*
X035383Y010249D01*
X035403Y010283D01*
X035413Y010321D01*
X035413Y010460D01*
X035105Y010460D01*
X035105Y010425D02*
X035067Y010425D01*
X035067Y010327D02*
X035105Y010327D01*
X035105Y010228D02*
X035067Y010228D01*
X035362Y010228D02*
X035833Y010228D01*
X035782Y010327D02*
X035413Y010327D01*
X035413Y010425D02*
X035782Y010425D01*
X035782Y010524D02*
X035413Y010524D01*
X035413Y010622D02*
X035782Y010622D01*
X035824Y010721D02*
X035774Y010771D01*
X035421Y010771D01*
X035371Y010721D01*
X035086Y010991D02*
X036109Y010991D01*
X035776Y011213D02*
X035418Y011213D01*
X035306Y011312D02*
X036486Y011312D01*
X037135Y011312D02*
X037446Y011312D01*
X037350Y011213D02*
X037230Y011213D01*
X037230Y011115D02*
X037350Y011115D01*
X037350Y011016D02*
X037230Y011016D01*
X037230Y010918D02*
X037350Y010918D01*
X037379Y010819D02*
X037194Y010819D01*
X037163Y010524D02*
X037371Y010524D01*
X037350Y010425D02*
X037230Y010425D01*
X036458Y010524D02*
X036436Y010524D01*
X036128Y010425D02*
X036090Y010425D01*
X036090Y010327D02*
X036128Y010327D01*
X036128Y010228D02*
X036090Y010228D01*
X038170Y010721D02*
X038225Y010721D01*
X039234Y010622D02*
X040371Y010622D01*
X040456Y010721D02*
X039332Y010721D01*
X039375Y010819D02*
X040456Y010819D01*
X040456Y010918D02*
X039391Y010918D01*
X039386Y011016D02*
X040456Y011016D01*
X040456Y011115D02*
X039345Y011115D01*
X039262Y011213D02*
X040456Y011213D01*
X040456Y011312D02*
X038953Y011312D01*
X038237Y011312D02*
X038095Y011312D01*
X039069Y011903D02*
X033308Y011903D01*
X033308Y012001D02*
X036128Y012001D01*
X035306Y011509D02*
X040456Y011509D01*
X040456Y011607D02*
X035233Y011607D01*
X035134Y011706D02*
X040456Y011706D01*
X040456Y011804D02*
X035036Y011804D01*
X034889Y011640D02*
X033235Y011640D01*
X033196Y011680D01*
X033000Y011680D01*
X032978Y011701D01*
X032978Y011501D01*
X032978Y011301D02*
X033506Y011301D01*
X033511Y011306D01*
X033492Y010721D02*
X033530Y010721D01*
X033530Y010622D02*
X033492Y010622D01*
X033492Y010524D02*
X033530Y010524D01*
X031838Y011301D02*
X031419Y011301D01*
X031385Y011266D01*
X031366Y011607D02*
X031404Y011607D01*
X031404Y011706D02*
X031366Y011706D01*
X031385Y011759D02*
X031385Y012270D01*
X031779Y012270D01*
X031779Y012467D01*
X032999Y012467D01*
X033471Y011995D01*
X034121Y011995D01*
X034594Y011995D01*
X033617Y012100D02*
X033240Y012100D01*
X033367Y012297D02*
X032938Y012297D01*
X032938Y012395D02*
X033268Y012395D01*
X033465Y012198D02*
X032938Y012198D01*
X031878Y012198D02*
X030951Y012198D01*
X030851Y012100D02*
X031577Y012100D01*
X031404Y012001D02*
X031366Y012001D01*
X031366Y011903D02*
X031404Y011903D01*
X031404Y011804D02*
X031366Y011804D01*
X031385Y011759D02*
X031424Y011759D01*
X031424Y011719D01*
X031857Y011719D01*
X031857Y011501D01*
X031818Y011501D01*
X031838Y011531D02*
X031838Y011671D01*
X031838Y011671D01*
X031838Y011531D01*
X031838Y011531D01*
X031838Y011607D02*
X031838Y011607D01*
X031878Y012297D02*
X031051Y012297D01*
X031152Y012395D02*
X031301Y012395D01*
X031547Y012395D02*
X031878Y012395D01*
X033443Y013282D02*
X033454Y013282D01*
X033542Y013183D02*
X033552Y013183D01*
X033640Y013085D02*
X037253Y013085D01*
X037351Y012986D02*
X036631Y012986D01*
X036454Y012986D02*
X033739Y012986D01*
X033837Y012888D02*
X036285Y012888D01*
X036800Y012888D02*
X037395Y012888D01*
X037410Y012789D02*
X036873Y012789D01*
X036910Y012691D02*
X037452Y012691D01*
X037550Y012592D02*
X036910Y012592D01*
X036887Y012494D02*
X038981Y012494D01*
X039497Y012494D02*
X040418Y012494D01*
X040346Y012395D02*
X039570Y012395D01*
X039607Y012297D02*
X040308Y012297D01*
X040308Y012198D02*
X039607Y012198D01*
X039583Y012100D02*
X040332Y012100D01*
X040385Y012001D02*
X039530Y012001D01*
X039409Y011903D02*
X040456Y011903D01*
X040456Y011410D02*
X035306Y011410D01*
X033355Y013380D02*
X033345Y013380D01*
X033257Y013479D02*
X033246Y013479D01*
X033158Y013577D02*
X033148Y013577D01*
X033060Y013676D02*
X033049Y013676D01*
X032961Y013774D02*
X032951Y013774D01*
X032863Y013873D02*
X032852Y013873D01*
X031757Y014562D02*
X031753Y014562D01*
X031753Y014558D02*
X031753Y014627D01*
X031697Y014762D01*
X031605Y014854D01*
X031605Y014960D01*
X031476Y015089D01*
X030689Y015876D01*
X030034Y015876D01*
X029905Y015747D01*
X029657Y015499D01*
X029101Y015499D01*
X029101Y015577D01*
X029712Y015577D01*
X029712Y015581D01*
X029701Y015665D01*
X029679Y015747D01*
X029646Y015826D01*
X029604Y015900D01*
X029552Y015968D01*
X029493Y016027D01*
X029797Y016027D01*
X029883Y016023D01*
X029887Y016027D01*
X029893Y016027D01*
X029954Y016087D01*
X030447Y016536D01*
X030557Y016490D01*
X030772Y016490D01*
X030970Y016572D01*
X031122Y016724D01*
X031164Y016826D01*
X031207Y016724D01*
X031358Y016572D01*
X031557Y016490D01*
X031772Y016490D01*
X031970Y016572D01*
X032122Y016724D01*
X032204Y016923D01*
X032204Y016926D01*
X032205Y016926D01*
X032243Y016916D01*
X032626Y016916D01*
X032626Y017291D01*
X032726Y017291D01*
X032726Y016916D01*
X033109Y016916D01*
X033147Y016926D01*
X033182Y016946D01*
X033210Y016974D01*
X033229Y017008D01*
X033240Y017046D01*
X033240Y017291D01*
X032726Y017291D01*
X032726Y017391D01*
X033240Y017391D01*
X033240Y017618D01*
X035695Y017618D01*
X035695Y017391D01*
X036209Y017391D01*
X036209Y017291D01*
X036309Y017291D01*
X036309Y017391D01*
X036822Y017391D01*
X036822Y017618D01*
X037267Y017618D01*
X037075Y017427D01*
X037075Y017003D01*
X036088Y016015D01*
X035775Y016015D01*
X035675Y015916D01*
X035675Y015453D01*
X033260Y015453D01*
X033260Y015552D01*
X033311Y015603D01*
X033427Y015603D01*
X033562Y015659D01*
X033665Y015763D01*
X033721Y015898D01*
X033721Y016044D01*
X033665Y016180D01*
X033562Y016283D01*
X033427Y016339D01*
X033280Y016339D01*
X033145Y016283D01*
X033041Y016180D01*
X032985Y016044D01*
X032985Y016015D01*
X032192Y016015D01*
X032093Y015916D01*
X032093Y015224D01*
X032192Y015124D01*
X032319Y015124D01*
X031753Y014558D01*
X031739Y014661D02*
X031856Y014661D01*
X031954Y014759D02*
X031698Y014759D01*
X031605Y014858D02*
X032053Y014858D01*
X032151Y014956D02*
X031605Y014956D01*
X031510Y015055D02*
X032250Y015055D01*
X032163Y015153D02*
X031411Y015153D01*
X031313Y015252D02*
X032093Y015252D01*
X032093Y015350D02*
X031214Y015350D01*
X031116Y015449D02*
X032093Y015449D01*
X032093Y015547D02*
X031017Y015547D01*
X030919Y015646D02*
X032093Y015646D01*
X032093Y015744D02*
X030820Y015744D01*
X030722Y015843D02*
X032093Y015843D01*
X032119Y015941D02*
X029572Y015941D01*
X029637Y015843D02*
X030001Y015843D01*
X029902Y015744D02*
X029680Y015744D01*
X029703Y015646D02*
X029804Y015646D01*
X029705Y015547D02*
X029101Y015547D01*
X029023Y015547D02*
X012902Y015547D01*
X013018Y015449D02*
X028418Y015449D01*
X028439Y015350D02*
X013069Y015350D01*
X013092Y015252D02*
X028477Y015252D01*
X028538Y015153D02*
X025794Y015153D01*
X025879Y015055D02*
X026326Y015055D01*
X026241Y014956D02*
X025920Y014956D01*
X025926Y014858D02*
X026200Y014858D01*
X026194Y014759D02*
X025911Y014759D01*
X025558Y014869D02*
X025479Y014790D01*
X025479Y014751D01*
X013117Y014751D01*
X012723Y015144D01*
X012723Y015223D01*
X012470Y014956D02*
X008936Y014956D01*
X008919Y014858D02*
X012643Y014858D01*
X012797Y014759D02*
X008919Y014759D01*
X008919Y014661D02*
X012723Y014661D01*
X012661Y014562D02*
X008991Y014562D01*
X009090Y014464D02*
X012631Y014464D01*
X012631Y014365D02*
X009188Y014365D01*
X009287Y014267D02*
X012662Y014267D01*
X012726Y014168D02*
X009385Y014168D01*
X008959Y013774D02*
X008919Y013774D01*
X008919Y013676D02*
X009057Y013676D01*
X009156Y013577D02*
X008919Y013577D01*
X008339Y013577D02*
X007974Y013577D01*
X008027Y013479D02*
X008339Y013479D01*
X008339Y013380D02*
X008054Y013380D01*
X008050Y013183D02*
X008339Y013183D01*
X008339Y013085D02*
X008016Y013085D01*
X007956Y012986D02*
X008339Y012986D01*
X008339Y012888D02*
X007853Y012888D01*
X008068Y012592D02*
X006399Y012592D01*
X006399Y012494D02*
X007970Y012494D01*
X008167Y012691D02*
X006399Y012691D01*
X006399Y012789D02*
X008265Y012789D01*
X008339Y013282D02*
X007260Y013282D01*
X007260Y013380D02*
X007163Y013380D01*
X007163Y013479D02*
X007260Y013479D01*
X007260Y013577D02*
X007163Y013577D01*
X007163Y013676D02*
X007260Y013676D01*
X007260Y013774D02*
X007163Y013774D01*
X006722Y013774D02*
X006399Y013774D01*
X006399Y013676D02*
X006537Y013676D01*
X006449Y013577D02*
X006399Y013577D01*
X006399Y013873D02*
X008339Y013873D01*
X008339Y013971D02*
X006399Y013971D01*
X006399Y014070D02*
X008339Y014070D01*
X008339Y014168D02*
X006399Y014168D01*
X006399Y014267D02*
X008339Y014267D01*
X008339Y014365D02*
X006399Y014365D01*
X006399Y014464D02*
X008339Y014464D01*
X008339Y014562D02*
X006399Y014562D01*
X006399Y014661D02*
X008339Y014661D01*
X008339Y014759D02*
X006399Y014759D01*
X006399Y014858D02*
X008339Y014858D01*
X008243Y014956D02*
X006399Y014956D01*
X006399Y015055D02*
X008125Y015055D01*
X008027Y015153D02*
X006399Y015153D01*
X006399Y015252D02*
X007983Y015252D01*
X007942Y015350D02*
X006399Y015350D01*
X006399Y015449D02*
X007920Y015449D01*
X007920Y015547D02*
X006399Y015547D01*
X006399Y015646D02*
X007920Y015646D01*
X007950Y015744D02*
X006399Y015744D01*
X006399Y015843D02*
X007991Y015843D01*
X008045Y015941D02*
X007693Y015941D01*
X007789Y015981D02*
X008036Y016229D01*
X008170Y016552D01*
X008170Y016902D01*
X008036Y017225D01*
X007789Y017473D01*
X007465Y017607D01*
X007115Y017607D01*
X006792Y017473D01*
X006544Y017225D01*
X006410Y016902D01*
X006410Y016552D01*
X006544Y016229D01*
X006792Y015981D01*
X007115Y015847D01*
X007465Y015847D01*
X007789Y015981D01*
X007848Y016040D02*
X008144Y016040D01*
X008288Y016138D02*
X007946Y016138D01*
X008040Y016237D02*
X023532Y016237D01*
X023480Y016138D02*
X008891Y016138D01*
X009035Y016040D02*
X023458Y016040D01*
X023458Y015941D02*
X009134Y015941D01*
X009189Y015843D02*
X023497Y015843D01*
X023571Y015744D02*
X009229Y015744D01*
X009260Y015646D02*
X023744Y015646D01*
X023907Y015646D02*
X027524Y015646D01*
X027687Y015646D02*
X028421Y015646D01*
X028444Y015744D02*
X027860Y015744D01*
X027605Y015971D02*
X027645Y016010D01*
X028156Y016010D01*
X028393Y016247D01*
X029802Y016247D01*
X030664Y017030D01*
X031621Y017073D02*
X031664Y017030D01*
X031621Y017073D02*
X031621Y017507D01*
X031542Y017585D01*
X021779Y017585D01*
X021621Y017428D01*
X021253Y017419D02*
X007843Y017419D01*
X007941Y017320D02*
X021267Y017320D01*
X021308Y017222D02*
X008038Y017222D01*
X008079Y017123D02*
X021405Y017123D01*
X021464Y017034D02*
X026660Y017034D01*
X026664Y017030D01*
X026614Y017025D02*
X008119Y017025D01*
X008160Y016926D02*
X023906Y016926D01*
X023820Y016828D02*
X008170Y016828D01*
X008170Y016729D02*
X023779Y016729D01*
X023773Y016631D02*
X008170Y016631D01*
X008162Y016532D02*
X023787Y016532D01*
X023828Y016434D02*
X008121Y016434D01*
X008081Y016335D02*
X023648Y016335D01*
X023826Y016010D02*
X027605Y016010D01*
X027605Y015971D01*
X027605Y016010D02*
X027645Y016010D01*
X027351Y015744D02*
X024080Y015744D01*
X025237Y015055D02*
X013124Y015055D01*
X013092Y015153D02*
X025322Y015153D01*
X026562Y014770D02*
X029239Y014770D01*
X030125Y015656D01*
X030597Y015656D01*
X031385Y014869D01*
X031385Y014554D01*
X033260Y015547D02*
X035675Y015547D01*
X035675Y015646D02*
X033530Y015646D01*
X033647Y015744D02*
X035675Y015744D01*
X035675Y015843D02*
X033699Y015843D01*
X033721Y015941D02*
X035701Y015941D01*
X036113Y016040D02*
X033721Y016040D01*
X033683Y016138D02*
X036211Y016138D01*
X036310Y016237D02*
X033608Y016237D01*
X033436Y016335D02*
X036408Y016335D01*
X036507Y016434D02*
X030335Y016434D01*
X030227Y016335D02*
X033271Y016335D01*
X033098Y016237D02*
X030118Y016237D01*
X030010Y016138D02*
X033024Y016138D01*
X032985Y016040D02*
X029906Y016040D01*
X030444Y016532D02*
X030455Y016532D01*
X030874Y016532D02*
X031455Y016532D01*
X031300Y016631D02*
X031029Y016631D01*
X031124Y016729D02*
X031204Y016729D01*
X031874Y016532D02*
X036605Y016532D01*
X036704Y016631D02*
X032029Y016631D01*
X032124Y016729D02*
X036802Y016729D01*
X036901Y016828D02*
X032165Y016828D01*
X032626Y016926D02*
X032726Y016926D01*
X032726Y017025D02*
X032626Y017025D01*
X032626Y017123D02*
X032726Y017123D01*
X032726Y017222D02*
X032626Y017222D01*
X032626Y017291D02*
X032141Y017291D01*
X032122Y017336D01*
X031970Y017488D01*
X031841Y017541D01*
X031841Y017598D01*
X031821Y017618D01*
X032113Y017618D01*
X032113Y017391D01*
X032626Y017391D01*
X032626Y017291D01*
X032626Y017320D02*
X032129Y017320D01*
X032113Y017419D02*
X032039Y017419D01*
X032113Y017517D02*
X031899Y017517D01*
X031823Y017616D02*
X032113Y017616D01*
X032726Y017320D02*
X036209Y017320D01*
X036209Y017291D02*
X035695Y017291D01*
X035695Y017046D01*
X035706Y017008D01*
X035725Y016974D01*
X035753Y016946D01*
X035788Y016926D01*
X035826Y016916D01*
X036209Y016916D01*
X036209Y017291D01*
X036209Y017222D02*
X036309Y017222D01*
X036309Y017291D02*
X036309Y016916D01*
X036692Y016916D01*
X036730Y016926D01*
X036764Y016946D01*
X036792Y016974D01*
X036812Y017008D01*
X036822Y017046D01*
X036822Y017291D01*
X036309Y017291D01*
X036309Y017320D02*
X037075Y017320D01*
X037075Y017222D02*
X036822Y017222D01*
X036822Y017123D02*
X037075Y017123D01*
X037075Y017025D02*
X036817Y017025D01*
X036731Y016926D02*
X036999Y016926D01*
X036309Y016926D02*
X036209Y016926D01*
X036209Y017025D02*
X036309Y017025D01*
X036309Y017123D02*
X036209Y017123D01*
X035787Y016926D02*
X033148Y016926D01*
X033234Y017025D02*
X035701Y017025D01*
X035695Y017123D02*
X033240Y017123D01*
X033240Y017222D02*
X035695Y017222D01*
X035695Y017419D02*
X033240Y017419D01*
X033240Y017517D02*
X035695Y017517D01*
X035695Y017616D02*
X033240Y017616D01*
X036822Y017616D02*
X037264Y017616D01*
X037166Y017517D02*
X036822Y017517D01*
X036822Y017419D02*
X037075Y017419D01*
X037095Y016372D02*
X037095Y016257D01*
X037555Y016257D01*
X037555Y016157D01*
X037655Y016157D01*
X037655Y015697D01*
X037817Y015697D01*
X037858Y015739D01*
X037858Y015235D01*
X037829Y015207D01*
X036826Y015207D01*
X036842Y015224D01*
X036842Y015916D01*
X036743Y016015D01*
X036738Y016015D01*
X037095Y016372D01*
X037095Y016335D02*
X037059Y016335D01*
X036960Y016237D02*
X037555Y016237D01*
X037555Y016157D02*
X037095Y016157D01*
X037095Y015996D01*
X037394Y015697D01*
X037555Y015697D01*
X037555Y016157D01*
X037555Y016138D02*
X037655Y016138D01*
X037655Y016040D02*
X037555Y016040D01*
X037555Y015941D02*
X037655Y015941D01*
X037655Y015843D02*
X037555Y015843D01*
X037555Y015744D02*
X037655Y015744D01*
X037858Y015646D02*
X036842Y015646D01*
X036842Y015744D02*
X037347Y015744D01*
X037249Y015843D02*
X036842Y015843D01*
X036816Y015941D02*
X037150Y015941D01*
X037095Y016040D02*
X036763Y016040D01*
X036862Y016138D02*
X037095Y016138D01*
X036842Y015547D02*
X037858Y015547D01*
X037858Y015449D02*
X036842Y015449D01*
X036842Y015350D02*
X037858Y015350D01*
X037858Y015252D02*
X036842Y015252D01*
X037448Y014121D02*
X040125Y014042D01*
X040834Y014751D01*
X041306Y014751D01*
X041306Y015066D01*
X041227Y015144D01*
X042147Y015153D02*
X044638Y015153D01*
X044638Y015055D02*
X042147Y015055D01*
X042147Y014956D02*
X044638Y014956D01*
X044638Y014858D02*
X042147Y014858D01*
X042147Y014759D02*
X044638Y014759D01*
X044638Y014661D02*
X042147Y014661D01*
X042147Y014562D02*
X044638Y014562D01*
X044638Y014464D02*
X042147Y014464D01*
X042147Y015252D02*
X044638Y015252D01*
X044638Y015350D02*
X042147Y015350D01*
X042147Y015449D02*
X044638Y015449D01*
X044638Y015547D02*
X042147Y015547D01*
X042147Y015646D02*
X044638Y015646D01*
X044638Y015744D02*
X042151Y015744D01*
X042816Y010622D02*
X044638Y010622D01*
X044638Y010524D02*
X042816Y010524D01*
X042816Y010425D02*
X044638Y010425D01*
X044638Y010327D02*
X042816Y010327D01*
X042816Y010228D02*
X044638Y010228D01*
X044638Y010130D02*
X042816Y010130D01*
X042836Y010031D02*
X044638Y010031D01*
X044638Y009933D02*
X042934Y009933D01*
X043436Y009834D02*
X044638Y009834D01*
X044638Y009736D02*
X043519Y009736D01*
X043560Y009637D02*
X044638Y009637D01*
X044638Y009539D02*
X043564Y009539D01*
X043547Y009440D02*
X044638Y009440D01*
X044638Y009342D02*
X043504Y009342D01*
X043406Y009243D02*
X044638Y009243D01*
X044638Y009145D02*
X042471Y009145D01*
X042471Y009243D02*
X042986Y009243D01*
X042818Y009342D02*
X042471Y009342D01*
X042471Y009440D02*
X042720Y009440D01*
X042621Y009539D02*
X042471Y009539D01*
X042471Y009637D02*
X042523Y009637D01*
X042471Y009046D02*
X044638Y009046D01*
X044638Y008948D02*
X042471Y008948D01*
X042471Y008849D02*
X044638Y008849D01*
X044638Y008751D02*
X042471Y008751D01*
X042471Y008652D02*
X044638Y008652D01*
X044638Y008554D02*
X042471Y008554D01*
X042471Y008455D02*
X044638Y008455D01*
X044638Y008357D02*
X042471Y008357D01*
X042471Y008258D02*
X043004Y008258D01*
X043002Y008257D02*
X043064Y008289D01*
X043131Y008311D01*
X043187Y008320D01*
X043187Y007925D01*
X043284Y007925D01*
X043678Y007925D01*
X043670Y007981D01*
X043648Y008048D01*
X043616Y008110D01*
X043575Y008167D01*
X043525Y008216D01*
X043469Y008257D01*
X043406Y008289D01*
X043340Y008311D01*
X043284Y008320D01*
X043284Y007925D01*
X043284Y007828D01*
X043678Y007828D01*
X043670Y007772D01*
X043648Y007706D01*
X043616Y007643D01*
X043575Y007587D01*
X043525Y007537D01*
X043469Y007496D01*
X043406Y007464D01*
X043340Y007442D01*
X043284Y007433D01*
X043284Y007828D01*
X043187Y007828D01*
X043187Y007433D01*
X043131Y007442D01*
X043064Y007464D01*
X043002Y007496D01*
X042945Y007537D01*
X042896Y007587D01*
X042854Y007643D01*
X042823Y007706D01*
X042801Y007772D01*
X042792Y007828D01*
X043187Y007828D01*
X043187Y007925D01*
X042792Y007925D01*
X042801Y007981D01*
X042823Y008048D01*
X042854Y008110D01*
X042896Y008167D01*
X042945Y008216D01*
X043002Y008257D01*
X042891Y008160D02*
X042471Y008160D01*
X042471Y008061D02*
X042830Y008061D01*
X042798Y007963D02*
X042471Y007963D01*
X042471Y007864D02*
X043187Y007864D01*
X043284Y007864D02*
X044638Y007864D01*
X044638Y007766D02*
X043667Y007766D01*
X043628Y007667D02*
X044638Y007667D01*
X044638Y007569D02*
X043557Y007569D01*
X043419Y007470D02*
X044638Y007470D01*
X044638Y007372D02*
X042471Y007372D01*
X042471Y007470D02*
X043052Y007470D01*
X043187Y007470D02*
X043284Y007470D01*
X043284Y007569D02*
X043187Y007569D01*
X043187Y007667D02*
X043284Y007667D01*
X043284Y007766D02*
X043187Y007766D01*
X043187Y007963D02*
X043284Y007963D01*
X043284Y008061D02*
X043187Y008061D01*
X043187Y008160D02*
X043284Y008160D01*
X043284Y008258D02*
X043187Y008258D01*
X043467Y008258D02*
X044638Y008258D01*
X044638Y008160D02*
X043580Y008160D01*
X043641Y008061D02*
X044638Y008061D01*
X044638Y007963D02*
X043672Y007963D01*
X042913Y007569D02*
X042471Y007569D01*
X042471Y007667D02*
X042842Y007667D01*
X042803Y007766D02*
X042471Y007766D01*
X041627Y007766D02*
X024627Y007766D01*
X024627Y007864D02*
X041627Y007864D01*
X041627Y007963D02*
X024627Y007963D01*
X024627Y008061D02*
X041627Y008061D01*
X041627Y008160D02*
X024627Y008160D01*
X024627Y008258D02*
X041627Y008258D01*
X041627Y008357D02*
X024627Y008357D01*
X024627Y008455D02*
X041627Y008455D01*
X041627Y008554D02*
X024627Y008554D01*
X024627Y007667D02*
X041627Y007667D01*
X041627Y007569D02*
X024627Y007569D01*
X024627Y007470D02*
X041627Y007470D01*
X041627Y007372D02*
X024627Y007372D01*
X024616Y007273D02*
X041627Y007273D01*
X041627Y007175D02*
X024556Y007175D01*
X024519Y007137D02*
X024519Y007137D01*
X024458Y007076D02*
X041627Y007076D01*
X041627Y006978D02*
X024359Y006978D01*
X027527Y010262D02*
X029416Y012152D01*
X029416Y012467D01*
X029995Y013046D01*
X030046Y013046D01*
X028626Y015055D02*
X026798Y015055D01*
X028300Y015843D02*
X028487Y015843D01*
X028552Y015941D02*
X028398Y015941D01*
X029259Y016483D02*
X025243Y016483D01*
X025086Y016640D01*
X024141Y016640D01*
X024375Y016926D02*
X026154Y016926D01*
X026184Y016828D02*
X025209Y016828D01*
X025308Y016729D02*
X026240Y016729D01*
X026714Y016980D02*
X026714Y017080D01*
X027183Y017080D01*
X027614Y017080D01*
X027614Y016980D01*
X026714Y016980D01*
X026714Y017025D02*
X027614Y017025D01*
X026232Y017320D02*
X021975Y017320D01*
X021934Y017222D02*
X026180Y017222D01*
X026153Y017123D02*
X021837Y017123D01*
X021464Y017034D02*
X020814Y016385D01*
X021227Y015971D01*
X021306Y015971D01*
X021109Y015774D01*
X021109Y015302D01*
X021070Y015262D01*
X020755Y015262D01*
X020834Y015184D01*
X022763Y015184D01*
X020755Y015262D02*
X020007Y016010D01*
X014062Y016010D01*
X012544Y015547D02*
X009260Y015547D01*
X009260Y015449D02*
X012429Y015449D01*
X012378Y015350D02*
X009237Y015350D01*
X009196Y015252D02*
X012355Y015252D01*
X012355Y015153D02*
X009152Y015153D01*
X009054Y015055D02*
X012395Y015055D01*
X012450Y014070D02*
X012873Y014070D01*
X012574Y013971D02*
X013673Y013971D01*
X013635Y013873D02*
X013610Y013873D01*
X013412Y013570D02*
X013806Y013176D01*
X020105Y013176D01*
X016588Y010819D02*
X015819Y010819D01*
X015819Y010721D02*
X016542Y010721D01*
X016542Y010622D02*
X015819Y010622D01*
X015819Y010524D02*
X016542Y010524D01*
X016306Y010381D02*
X016267Y010341D01*
X016306Y010381D02*
X016345Y010774D01*
X017472Y010327D02*
X017986Y010327D01*
X018025Y010228D02*
X017472Y010228D01*
X017455Y010130D02*
X018202Y010130D01*
X017057Y010228D02*
X016957Y010228D01*
X016739Y010031D02*
X016306Y010031D01*
X016347Y009933D02*
X016699Y009933D01*
X016559Y010130D02*
X016211Y010130D01*
X014689Y009539D02*
X014349Y009539D01*
X014038Y009656D02*
X012775Y009656D01*
X012775Y011216D01*
X012366Y011216D01*
X012366Y011026D02*
X012351Y011010D01*
X011987Y011010D01*
X011786Y011211D01*
X011786Y011416D01*
X011206Y011416D01*
X010649Y011416D01*
X010538Y011306D01*
X010558Y011286D01*
X010519Y010322D01*
X010538Y010340D02*
X010500Y010340D01*
X010500Y010609D01*
X010322Y010609D01*
X010299Y010603D01*
X010299Y011725D01*
X010384Y011725D01*
X010723Y011386D01*
X010780Y011386D01*
X010743Y011349D01*
X010614Y011220D01*
X010614Y010609D01*
X010538Y010609D01*
X010538Y010340D01*
X010538Y010425D02*
X010500Y010425D01*
X010500Y010524D02*
X010538Y010524D01*
X010614Y010622D02*
X010299Y010622D01*
X010299Y010721D02*
X010614Y010721D01*
X010614Y010819D02*
X010299Y010819D01*
X010299Y010918D02*
X010614Y010918D01*
X010614Y011016D02*
X010299Y011016D01*
X010299Y011115D02*
X010614Y011115D01*
X010614Y011213D02*
X010299Y011213D01*
X010299Y011312D02*
X010706Y011312D01*
X010699Y011410D02*
X010299Y011410D01*
X010299Y011509D02*
X010601Y011509D01*
X010502Y011607D02*
X010299Y011607D01*
X010299Y011706D02*
X010404Y011706D01*
X010759Y012001D02*
X010986Y012001D01*
X010897Y011903D02*
X010857Y011903D01*
X010660Y012100D02*
X011457Y012100D01*
X011457Y012198D02*
X010299Y012198D01*
X010299Y012297D02*
X011520Y012297D01*
X012040Y012395D02*
X010233Y012395D01*
X011206Y012011D02*
X011206Y011846D01*
X011206Y011846D01*
X011206Y012011D01*
X011206Y012001D02*
X011206Y012001D01*
X011206Y011903D02*
X011206Y011903D01*
X011736Y011718D02*
X011836Y011718D01*
X011836Y011466D01*
X011736Y011466D01*
X011736Y011718D01*
X011736Y011706D02*
X011836Y011706D01*
X011836Y011607D02*
X011736Y011607D01*
X011736Y011509D02*
X011836Y011509D01*
X011836Y011366D02*
X011836Y011114D01*
X011736Y011114D01*
X011736Y011366D01*
X011836Y011366D01*
X011836Y011312D02*
X011736Y011312D01*
X011736Y011213D02*
X011836Y011213D01*
X011836Y011115D02*
X011736Y011115D01*
X012167Y010819D02*
X012555Y010819D01*
X012555Y010721D02*
X012115Y010721D01*
X012115Y010622D02*
X012555Y010622D01*
X012555Y010524D02*
X012042Y010524D01*
X011750Y010327D02*
X012555Y010327D01*
X012555Y010425D02*
X011651Y010425D01*
X011464Y010302D02*
X011188Y010302D01*
X011206Y010320D01*
X011206Y011026D01*
X011149Y010968D01*
X011149Y010322D01*
X011464Y010302D02*
X011660Y010105D01*
X011660Y009633D01*
X011385Y009357D01*
X008511Y009357D01*
X008172Y009342D02*
X006399Y009342D01*
X006399Y009440D02*
X008074Y009440D01*
X007975Y009539D02*
X006399Y009539D01*
X006399Y009637D02*
X007917Y009637D01*
X007608Y009736D02*
X007397Y009736D01*
X007026Y009736D02*
X006399Y009736D01*
X006399Y009834D02*
X006882Y009834D01*
X006802Y009933D02*
X006399Y009933D01*
X006399Y010031D02*
X006762Y010031D01*
X006745Y010130D02*
X006399Y010130D01*
X006399Y010228D02*
X006745Y010228D01*
X006774Y010327D02*
X006399Y010327D01*
X006399Y010425D02*
X006815Y010425D01*
X006912Y010524D02*
X006399Y010524D01*
X006399Y010622D02*
X007099Y010622D01*
X007324Y010622D02*
X007518Y010622D01*
X007512Y010524D02*
X007518Y010524D01*
X007518Y010721D02*
X006399Y010721D01*
X006399Y010819D02*
X007518Y010819D01*
X007518Y010918D02*
X006399Y010918D01*
X006399Y011016D02*
X007518Y011016D01*
X007518Y011115D02*
X006399Y011115D01*
X006399Y011213D02*
X007518Y011213D01*
X007518Y011312D02*
X006399Y011312D01*
X006399Y011410D02*
X007518Y011410D01*
X007518Y011509D02*
X007400Y011509D01*
X007023Y011509D02*
X006399Y011509D01*
X006399Y011607D02*
X006880Y011607D01*
X006802Y011706D02*
X006399Y011706D01*
X006399Y011804D02*
X006761Y011804D01*
X006745Y011903D02*
X006399Y011903D01*
X006399Y012001D02*
X006745Y012001D01*
X006775Y012100D02*
X006399Y012100D01*
X006399Y012198D02*
X006815Y012198D01*
X006913Y012297D02*
X006399Y012297D01*
X006399Y012395D02*
X007102Y012395D01*
X007321Y012395D02*
X007584Y012395D01*
X007518Y012297D02*
X007510Y012297D01*
X007260Y012888D02*
X007163Y012888D01*
X007163Y012986D02*
X007260Y012986D01*
X007260Y013085D02*
X007163Y013085D01*
X007163Y013183D02*
X007260Y013183D01*
X006467Y012986D02*
X006399Y012986D01*
X006399Y012888D02*
X006570Y012888D01*
X006407Y013085D02*
X006399Y013085D01*
X007887Y013676D02*
X008339Y013676D01*
X008339Y013774D02*
X007701Y013774D01*
X006888Y015941D02*
X006399Y015941D01*
X006399Y016040D02*
X006733Y016040D01*
X006635Y016138D02*
X006399Y016138D01*
X006399Y016237D02*
X006541Y016237D01*
X006500Y016335D02*
X006399Y016335D01*
X006399Y016434D02*
X006459Y016434D01*
X006419Y016532D02*
X006399Y016532D01*
X006399Y016631D02*
X006410Y016631D01*
X006399Y016729D02*
X006410Y016729D01*
X006399Y016828D02*
X006410Y016828D01*
X006399Y016926D02*
X006421Y016926D01*
X006399Y017025D02*
X006461Y017025D01*
X006502Y017123D02*
X006399Y017123D01*
X006399Y017222D02*
X006543Y017222D01*
X006639Y017320D02*
X006399Y017320D01*
X006399Y017419D02*
X006738Y017419D01*
X006899Y017517D02*
X006399Y017517D01*
X006399Y017616D02*
X021301Y017616D01*
X021260Y017517D02*
X007682Y017517D01*
X012620Y013380D02*
X012959Y013380D01*
X012874Y013282D02*
X012620Y013282D01*
X012620Y013183D02*
X012833Y013183D01*
X012828Y013085D02*
X012620Y013085D01*
X012620Y012986D02*
X012843Y012986D01*
X012885Y012888D02*
X012620Y012888D01*
X012620Y012789D02*
X012983Y012789D01*
X013119Y012691D02*
X012620Y012691D01*
X012620Y012395D02*
X012712Y012395D01*
X011206Y011216D02*
X010921Y011216D01*
X010834Y011129D01*
X010834Y009849D01*
X010794Y009810D01*
X011149Y009810D01*
X011129Y009829D01*
X011129Y009810D01*
X011070Y009751D01*
X010794Y009810D02*
X010519Y009810D01*
X011681Y009342D02*
X013085Y009342D01*
X013085Y009145D02*
X011484Y009145D01*
X011582Y009243D02*
X013461Y009243D01*
X013499Y009306D02*
X012424Y009306D01*
X012366Y009364D01*
X012366Y011026D01*
X012366Y010918D02*
X012366Y010918D01*
X012555Y010228D02*
X011848Y010228D01*
X011880Y010130D02*
X012555Y010130D01*
X012555Y010031D02*
X011880Y010031D01*
X011880Y009933D02*
X012555Y009933D01*
X012555Y009834D02*
X011880Y009834D01*
X011880Y009736D02*
X012555Y009736D01*
X012555Y009637D02*
X011880Y009637D01*
X011878Y009539D02*
X012581Y009539D01*
X012679Y009440D02*
X011779Y009440D01*
X013461Y009145D02*
X013561Y009145D01*
X013561Y009243D02*
X014632Y009243D01*
X015166Y008751D02*
X015266Y008751D01*
X015266Y008652D02*
X015166Y008652D01*
X015166Y008554D02*
X015266Y008554D01*
X015266Y008455D02*
X015166Y008455D01*
X015166Y008357D02*
X015266Y008357D01*
X015266Y008258D02*
X015166Y008258D01*
X013561Y008948D02*
X013461Y008948D01*
X013461Y009046D02*
X013561Y009046D01*
X013956Y009933D02*
X014148Y009933D01*
X013956Y010031D02*
X014386Y010031D01*
X010538Y011306D02*
X010401Y011168D01*
X008129Y009243D02*
X007804Y009243D01*
X007930Y009145D02*
X008085Y009145D01*
X008085Y009046D02*
X008000Y009046D01*
X008041Y008948D02*
X008085Y008948D01*
X007260Y008948D02*
X007163Y008948D01*
X007163Y009046D02*
X007260Y009046D01*
X007260Y009145D02*
X007163Y009145D01*
X007163Y009243D02*
X007260Y009243D01*
X006619Y009243D02*
X006399Y009243D01*
X006399Y009145D02*
X006494Y009145D01*
X006423Y009046D02*
X006399Y009046D01*
X006399Y008554D02*
X006429Y008554D01*
X006399Y008455D02*
X006505Y008455D01*
X006399Y008357D02*
X006641Y008357D01*
X006399Y005303D02*
X006896Y005303D01*
X006736Y005205D02*
X006399Y005205D01*
X006399Y005106D02*
X006638Y005106D01*
X006542Y005008D02*
X006399Y005008D01*
X006399Y004909D02*
X006502Y004909D01*
X006461Y004811D02*
X006399Y004811D01*
X006399Y004712D02*
X006420Y004712D01*
X006410Y004614D02*
X006399Y004614D01*
X006399Y004515D02*
X006410Y004515D01*
X006399Y004417D02*
X006410Y004417D01*
X006399Y004318D02*
X006419Y004318D01*
X006399Y004220D02*
X006460Y004220D01*
X006501Y004121D02*
X006399Y004121D01*
X006399Y004023D02*
X006542Y004023D01*
X006636Y003924D02*
X006399Y003924D01*
X006399Y003826D02*
X006735Y003826D01*
X006891Y003727D02*
X006399Y003727D01*
X006399Y003629D02*
X044638Y003629D01*
X044638Y003727D02*
X044146Y003727D01*
X044303Y003826D02*
X044638Y003826D01*
X044638Y003924D02*
X044401Y003924D01*
X044496Y004023D02*
X044638Y004023D01*
X044638Y004121D02*
X044537Y004121D01*
X044577Y004220D02*
X044638Y004220D01*
X044638Y004318D02*
X044618Y004318D01*
X044627Y004417D02*
X044638Y004417D01*
X044627Y004515D02*
X044638Y004515D01*
X044627Y004614D02*
X044638Y004614D01*
X044638Y004712D02*
X044617Y004712D01*
X044638Y004811D02*
X044577Y004811D01*
X044536Y004909D02*
X044638Y004909D01*
X044638Y005008D02*
X044495Y005008D01*
X044400Y005106D02*
X044638Y005106D01*
X044638Y005205D02*
X044301Y005205D01*
X044142Y005303D02*
X044638Y005303D01*
X044638Y005599D02*
X043615Y005599D01*
X043665Y005697D02*
X044638Y005697D01*
X044638Y005796D02*
X043701Y005796D01*
X043701Y005894D02*
X044638Y005894D01*
X044638Y005993D02*
X043691Y005993D01*
X043650Y006091D02*
X044638Y006091D01*
X044638Y006190D02*
X043580Y006190D01*
X043457Y006288D02*
X044638Y006288D01*
X044638Y006387D02*
X042357Y006387D01*
X042259Y006485D02*
X042969Y006485D01*
X042870Y006584D02*
X042160Y006584D01*
X042087Y006682D02*
X042528Y006682D01*
X042429Y006781D02*
X042087Y006781D01*
X042087Y006879D02*
X042331Y006879D01*
X042232Y006978D02*
X042087Y006978D01*
X042087Y007076D02*
X042134Y007076D01*
X042251Y007270D02*
X042251Y010510D01*
X040527Y009637D02*
X040008Y009637D01*
X042251Y007270D02*
X042645Y006877D01*
X043235Y006877D01*
X043701Y006879D02*
X044638Y006879D01*
X044638Y006781D02*
X043699Y006781D01*
X043658Y006682D02*
X044638Y006682D01*
X044638Y006584D02*
X043600Y006584D01*
X043502Y006485D02*
X044638Y006485D01*
X044638Y006978D02*
X043697Y006978D01*
X043656Y007076D02*
X044638Y007076D01*
X044638Y007175D02*
X043595Y007175D01*
X043493Y007273D02*
X044638Y007273D01*
X042977Y007273D02*
X042559Y007273D01*
X042658Y007175D02*
X042875Y007175D01*
X043013Y006288D02*
X042456Y006288D01*
X042554Y006190D02*
X042890Y006190D01*
X042821Y006091D02*
X042653Y006091D01*
X043095Y005106D02*
X007943Y005106D01*
X008038Y005008D02*
X042999Y005008D01*
X042958Y004909D02*
X008079Y004909D01*
X008120Y004811D02*
X042917Y004811D01*
X042877Y004712D02*
X008161Y004712D01*
X008170Y004614D02*
X042867Y004614D01*
X042867Y004515D02*
X008170Y004515D01*
X008170Y004417D02*
X042867Y004417D01*
X042876Y004318D02*
X008162Y004318D01*
X008121Y004220D02*
X042917Y004220D01*
X042957Y004121D02*
X008080Y004121D01*
X008039Y004023D02*
X042998Y004023D01*
X043093Y003924D02*
X007945Y003924D01*
X007846Y003826D02*
X043191Y003826D01*
X043348Y003727D02*
X007689Y003727D01*
X029259Y016483D02*
X029653Y016877D01*
X029653Y017097D01*
X029664Y017030D01*
D37*
X027605Y016010D03*
X025558Y014869D03*
X026562Y014770D03*
X026719Y014003D03*
X024928Y014042D03*
X022645Y013176D03*
X022172Y012310D03*
X021523Y012310D03*
X021267Y011483D03*
X023471Y010420D03*
X023826Y009711D03*
X025401Y010026D03*
X025952Y010026D03*
X027527Y010262D03*
X028983Y010105D03*
X029495Y010302D03*
X029928Y010696D03*
X030637Y011680D03*
X031424Y012743D03*
X032448Y013924D03*
X032782Y014278D03*
X033294Y014298D03*
X031385Y014554D03*
X031070Y014160D03*
X029259Y013885D03*
X025538Y012113D03*
X025952Y011680D03*
X026345Y011306D03*
X024259Y011325D03*
X024377Y008963D03*
X017054Y009829D03*
X015991Y009829D03*
X016345Y010774D03*
X016857Y011778D03*
X013196Y013097D03*
X013393Y013570D03*
X014003Y013806D03*
X012999Y014416D03*
X012723Y015223D03*
X014062Y016010D03*
X016345Y013806D03*
X016857Y013806D03*
X020145Y013786D03*
X020755Y015262D03*
X022763Y015184D03*
X023826Y016010D03*
X024141Y016640D03*
X021621Y017428D03*
X019653Y017034D03*
X012802Y012034D03*
X014456Y003885D03*
X017999Y003885D03*
X021542Y003885D03*
X025086Y003885D03*
X028629Y003885D03*
X032172Y003885D03*
X035716Y003885D03*
X039259Y003885D03*
X042881Y003885D03*
X037290Y008963D03*
X037290Y009987D03*
X039023Y010932D03*
X041306Y010979D03*
X041700Y010459D03*
X041857Y009633D03*
X043196Y009554D03*
X040676Y012231D03*
X039239Y012231D03*
X037763Y012900D03*
X038196Y013373D03*
X037448Y014121D03*
X036542Y012625D03*
X034613Y011995D03*
X034121Y011995D03*
X034121Y010577D03*
X041306Y014751D03*
X041897Y016010D03*
X035243Y017349D03*
X033353Y015971D03*
X010912Y003885D03*
D38*
X014574Y008885D02*
X015192Y008885D01*
X015216Y008908D01*
X014574Y008885D02*
X014200Y009259D01*
X013511Y009259D01*
X016188Y010341D02*
X016216Y010314D01*
X016239Y010314D01*
X016267Y010341D01*
X015216Y010877D02*
X014389Y011703D01*
X013637Y011703D01*
X013133Y011703D01*
X013227Y011616D02*
X013314Y011703D01*
X013227Y011616D02*
X012366Y011616D01*
X012366Y011806D02*
X012366Y011840D01*
X012330Y011877D01*
X012330Y011806D01*
X012366Y011416D02*
X012960Y011416D01*
X012960Y011050D01*
X013511Y011050D01*
X015282Y011089D02*
X015519Y011089D01*
X015558Y011129D01*
X016464Y011129D01*
X016621Y011286D01*
X016995Y011286D01*
X017007Y011243D01*
X018432Y011243D01*
X018452Y011262D01*
X018393Y011322D01*
X018416Y011298D02*
X018452Y011262D01*
X017007Y011243D02*
X016979Y011129D01*
X020338Y009550D02*
X022684Y009550D01*
X025952Y009790D02*
X026109Y009633D01*
X027605Y009633D01*
X032645Y014672D01*
X032743Y014987D02*
X032507Y014987D01*
X030597Y013077D01*
X030078Y013077D01*
X030046Y013046D01*
X032782Y014278D02*
X033688Y013373D01*
X037290Y013373D01*
X037763Y012900D01*
X037770Y011036D02*
X038517Y011036D01*
X038550Y011070D01*
X036810Y011036D02*
X036765Y010991D01*
X036109Y010991D01*
X034121Y010577D02*
X033747Y010184D01*
X033314Y010184D01*
X033235Y010105D01*
X031838Y011501D02*
X031818Y011501D01*
X025952Y010026D02*
X025952Y009790D01*
X021267Y011483D02*
X019889Y012861D01*
X013275Y012861D01*
X013196Y012940D01*
X013196Y013097D01*
X014003Y013786D02*
X014377Y013412D01*
X020204Y013412D01*
X021306Y012310D01*
X021523Y012310D01*
X022645Y013176D02*
X022645Y013919D01*
X022659Y013934D01*
X023353Y013885D01*
X022659Y013934D02*
X021700Y014003D01*
X020204Y013885D01*
X020145Y013786D01*
X017074Y013944D01*
X016857Y013806D01*
X014003Y013806D02*
X014003Y013786D01*
X010819Y011616D02*
X010479Y011955D01*
X009928Y011955D01*
X009416Y011444D01*
X009416Y011142D01*
X009716Y011077D01*
X010819Y011616D02*
X011206Y011616D01*
X011206Y011806D02*
X011652Y011806D01*
X011779Y011680D01*
X011786Y011806D02*
X011786Y011416D01*
X020145Y013786D02*
X021424Y013944D01*
X021424Y013885D01*
X021700Y014003D01*
X032676Y015507D02*
X032960Y015223D01*
X035912Y015223D01*
X036259Y015570D01*
X036259Y015861D01*
X037605Y017207D01*
X036259Y017341D02*
X036251Y017349D01*
X035243Y017349D01*
X035007Y017349D01*
X034062Y016404D01*
X033353Y015971D02*
X032952Y015570D01*
X032676Y015570D01*
X032676Y015507D01*
X032676Y017341D02*
X032684Y017349D01*
X035007Y017349D01*
X035243Y017349D02*
X035322Y017349D01*
X039605Y017207D02*
X040204Y016609D01*
X040204Y015538D01*
X041857Y009633D02*
X041857Y006562D01*
X042566Y005853D01*
X043212Y005853D01*
X043235Y005877D01*
D39*
X011779Y011168D03*
X011779Y011680D03*
D40*
X016345Y011778D03*
X016345Y012487D03*
X016857Y012487D03*
X034121Y013038D03*
X034613Y013038D03*
X034121Y011286D03*
X041975Y011483D03*
X041975Y011955D03*
X042999Y011955D03*
X042999Y011483D03*
D41*
X042566Y012192D02*
X042566Y009948D01*
X042960Y009554D01*
X043196Y009554D01*
X039023Y010932D02*
X038885Y011070D01*
X038550Y011070D01*
X039239Y012231D02*
X036227Y012231D01*
X036109Y012349D01*
X033668Y012349D01*
X033314Y012703D01*
X031424Y012703D01*
X031424Y012743D01*
X031149Y012743D01*
X027793Y009446D01*
X027743Y009396D01*
X025558Y009396D01*
X025401Y009554D01*
X025401Y010026D01*
X025952Y010853D02*
X027566Y010853D01*
X028314Y011660D01*
X028314Y011814D01*
X030046Y013546D01*
X029259Y013885D02*
X027487Y012113D01*
X025538Y012113D01*
X025046Y012310D02*
X026719Y014003D01*
X029180Y014416D02*
X029849Y015085D01*
X030282Y015085D01*
X031070Y014298D01*
X031070Y014160D01*
X030046Y014046D02*
X027306Y011306D01*
X026345Y011306D01*
X025952Y011680D02*
X025952Y010853D01*
X025046Y012310D02*
X022172Y012310D01*
X019653Y011444D02*
X019653Y010696D01*
X019101Y010144D01*
X018826Y010144D02*
X018747Y010066D01*
X018452Y009869D02*
X018452Y010593D01*
X018452Y011101D02*
X018452Y011262D01*
X019062Y012034D02*
X019653Y011444D01*
X019062Y012034D02*
X017802Y012034D01*
X017448Y011680D01*
X016857Y011778D01*
X017007Y011243D02*
X017007Y011089D01*
X017007Y010455D02*
X017019Y010302D01*
X017487Y010262D02*
X017527Y010302D01*
X017487Y010262D02*
X017487Y010105D01*
X017527Y010066D01*
X018452Y009869D02*
X018452Y009546D01*
X019668Y009546D01*
X019668Y009550D02*
X019668Y009554D01*
X015282Y010877D02*
X015282Y011089D01*
X015282Y010877D02*
X015216Y010877D01*
X013511Y011030D02*
X013511Y010046D01*
X013511Y011030D02*
X013511Y011050D01*
X008511Y009357D02*
X008156Y009711D01*
X008156Y011022D01*
X008101Y011077D02*
X007920Y011014D01*
X008511Y009357D02*
X008511Y008814D01*
X007920Y006325D02*
X007605Y006010D01*
X007605Y005877D01*
X007920Y006325D02*
X023353Y006325D01*
X024377Y007349D01*
X024377Y008963D01*
X027782Y009436D02*
X027793Y009446D01*
X031462Y011701D02*
X031838Y011701D01*
X033747Y012625D02*
X036542Y012625D01*
X037901Y013629D02*
X038156Y013373D01*
X038196Y013373D01*
X037901Y013629D02*
X033964Y013629D01*
X033294Y014298D01*
X032448Y013924D02*
X033747Y012625D01*
X029180Y014416D02*
X012999Y014416D01*
X013393Y013570D02*
X013412Y013570D01*
X014456Y003885D02*
X010912Y003885D01*
X014456Y003885D02*
X017999Y003885D01*
X021542Y003885D01*
X025086Y003885D01*
X028629Y003885D01*
X032172Y003885D01*
X035716Y003885D01*
X039259Y003885D01*
X042881Y003885D01*
X043038Y003885D01*
X043117Y003806D01*
X042566Y012192D02*
X041897Y012822D01*
X041897Y016010D01*
D42*
X042645Y004908D02*
X042645Y004593D01*
X042723Y004514D01*
X042881Y003885D01*
X013133Y011703D02*
X012802Y012034D01*
X012330Y011877D02*
X012330Y013806D01*
X009338Y013806D01*
X008629Y014514D01*
X008629Y012743D01*
X007894Y012008D01*
X007894Y011910D01*
X007867Y012020D01*
X007894Y011910D02*
X008101Y011077D01*
X008156Y011022D01*
X008101Y011077D02*
X007920Y011024D01*
X008629Y014514D02*
X008629Y015499D01*
X008590Y015538D01*
D43*
X013314Y011703D02*
X013637Y011703D01*
X013511Y011699D01*
M02*
