G75*
G70*
%OFA0B0*%
%FSLAX24Y24*%
%IPPOS*%
%LPD*%
%AMOC8*
5,1,8,0,0,1.08239X$1,22.5*
%
%ADD10C,0.1320*%
%ADD11C,0.0454*%
%ADD12R,0.0729X0.0217*%
%ADD13R,0.0237X0.0454*%
%ADD14R,0.0560X0.0280*%
%ADD15R,0.0280X0.0560*%
%ADD16C,0.0800*%
%ADD17R,0.0847X0.0572*%
%ADD18R,0.0315X0.0433*%
%ADD19R,0.0560X0.0180*%
%ADD20R,0.0945X0.2362*%
%ADD21C,0.0651*%
%ADD22C,0.0560*%
%ADD23R,0.1635X0.1084*%
%ADD24R,0.0158X0.0296*%
%ADD25R,0.0572X0.0690*%
%ADD26OC8,0.0910*%
%ADD27R,0.0572X0.0847*%
%ADD28OC8,0.0780*%
%ADD29R,0.0690X0.0572*%
%ADD30C,0.1060*%
%ADD31R,0.0336X0.0414*%
%ADD32R,0.0572X0.0651*%
%ADD33R,0.0414X0.0336*%
%ADD34R,0.0295X0.0118*%
%ADD35R,0.0118X0.0295*%
%ADD36C,0.0080*%
%ADD37C,0.0493*%
%ADD38R,0.0847X0.0532*%
%ADD39C,0.0760*%
%ADD40R,0.0336X0.0257*%
%ADD41R,0.0257X0.0336*%
%ADD42C,0.0456*%
%ADD43C,0.0377*%
%ADD44C,0.0417*%
D10*
X007290Y004514D03*
X007290Y016727D03*
X043747Y016727D03*
X043747Y004514D03*
D11*
X030046Y012546D03*
X030046Y013046D03*
X030046Y013546D03*
X030046Y014046D03*
X030046Y014546D03*
X043835Y015428D03*
X008694Y017156D03*
D12*
X023538Y013734D03*
X023538Y013144D03*
X023538Y012553D03*
D13*
X023961Y012553D03*
X023115Y012553D03*
X023115Y013144D03*
X023115Y013734D03*
X023961Y013734D03*
X023961Y013144D03*
D14*
G36*
X024760Y012634D02*
X024366Y013028D01*
X024564Y013226D01*
X024958Y012832D01*
X024760Y012634D01*
G37*
G36*
X024983Y012857D02*
X024589Y013251D01*
X024787Y013449D01*
X025181Y013055D01*
X024983Y012857D01*
G37*
G36*
X025206Y013079D02*
X024812Y013473D01*
X025010Y013671D01*
X025404Y013277D01*
X025206Y013079D01*
G37*
G36*
X025428Y013302D02*
X025034Y013696D01*
X025232Y013894D01*
X025626Y013500D01*
X025428Y013302D01*
G37*
G36*
X025651Y013525D02*
X025257Y013919D01*
X025455Y014117D01*
X025849Y013723D01*
X025651Y013525D01*
G37*
G36*
X025874Y013748D02*
X025480Y014142D01*
X025678Y014340D01*
X026072Y013946D01*
X025874Y013748D01*
G37*
G36*
X026097Y013970D02*
X025703Y014364D01*
X025901Y014562D01*
X026295Y014168D01*
X026097Y013970D01*
G37*
G36*
X026319Y014193D02*
X025925Y014587D01*
X026123Y014785D01*
X026517Y014391D01*
X026319Y014193D01*
G37*
G36*
X028709Y011803D02*
X028315Y012197D01*
X028513Y012395D01*
X028907Y012001D01*
X028709Y011803D01*
G37*
G36*
X028487Y011580D02*
X028093Y011974D01*
X028291Y012172D01*
X028685Y011778D01*
X028487Y011580D01*
G37*
G36*
X028264Y011357D02*
X027870Y011751D01*
X028068Y011949D01*
X028462Y011555D01*
X028264Y011357D01*
G37*
G36*
X028041Y011135D02*
X027647Y011529D01*
X027845Y011727D01*
X028239Y011333D01*
X028041Y011135D01*
G37*
G36*
X027818Y010912D02*
X027424Y011306D01*
X027622Y011504D01*
X028016Y011110D01*
X027818Y010912D01*
G37*
G36*
X027596Y010689D02*
X027202Y011083D01*
X027400Y011281D01*
X027794Y010887D01*
X027596Y010689D01*
G37*
G36*
X027373Y010467D02*
X026979Y010861D01*
X027177Y011059D01*
X027571Y010665D01*
X027373Y010467D01*
G37*
G36*
X027150Y010244D02*
X026756Y010638D01*
X026954Y010836D01*
X027348Y010442D01*
X027150Y010244D01*
G37*
D15*
G36*
X026123Y010244D02*
X025925Y010442D01*
X026319Y010836D01*
X026517Y010638D01*
X026123Y010244D01*
G37*
G36*
X025901Y010467D02*
X025703Y010665D01*
X026097Y011059D01*
X026295Y010861D01*
X025901Y010467D01*
G37*
G36*
X025678Y010689D02*
X025480Y010887D01*
X025874Y011281D01*
X026072Y011083D01*
X025678Y010689D01*
G37*
G36*
X025455Y010912D02*
X025257Y011110D01*
X025651Y011504D01*
X025849Y011306D01*
X025455Y010912D01*
G37*
G36*
X025232Y011135D02*
X025034Y011333D01*
X025428Y011727D01*
X025626Y011529D01*
X025232Y011135D01*
G37*
G36*
X025010Y011357D02*
X024812Y011555D01*
X025206Y011949D01*
X025404Y011751D01*
X025010Y011357D01*
G37*
G36*
X024787Y011580D02*
X024589Y011778D01*
X024983Y012172D01*
X025181Y011974D01*
X024787Y011580D01*
G37*
G36*
X024564Y011803D02*
X024366Y012001D01*
X024760Y012395D01*
X024958Y012197D01*
X024564Y011803D01*
G37*
G36*
X028068Y013079D02*
X027870Y013277D01*
X028264Y013671D01*
X028462Y013473D01*
X028068Y013079D01*
G37*
G36*
X028291Y012857D02*
X028093Y013055D01*
X028487Y013449D01*
X028685Y013251D01*
X028291Y012857D01*
G37*
G36*
X028513Y012634D02*
X028315Y012832D01*
X028709Y013226D01*
X028907Y013028D01*
X028513Y012634D01*
G37*
G36*
X027845Y013302D02*
X027647Y013500D01*
X028041Y013894D01*
X028239Y013696D01*
X027845Y013302D01*
G37*
G36*
X027622Y013525D02*
X027424Y013723D01*
X027818Y014117D01*
X028016Y013919D01*
X027622Y013525D01*
G37*
G36*
X027400Y013748D02*
X027202Y013946D01*
X027596Y014340D01*
X027794Y014142D01*
X027400Y013748D01*
G37*
G36*
X027177Y013970D02*
X026979Y014168D01*
X027373Y014562D01*
X027571Y014364D01*
X027177Y013970D01*
G37*
G36*
X026954Y014193D02*
X026756Y014391D01*
X027150Y014785D01*
X027348Y014587D01*
X026954Y014193D01*
G37*
D16*
X026664Y017030D03*
X027664Y017030D03*
X028664Y017030D03*
X029664Y017030D03*
X030664Y017030D03*
X031664Y017030D03*
D17*
X036637Y015255D03*
X042637Y015255D03*
D18*
X041759Y006995D03*
X041168Y006995D03*
X041168Y005971D03*
X041759Y005971D03*
X038216Y005971D03*
X037625Y005971D03*
X037625Y006995D03*
X038216Y006995D03*
X034672Y006995D03*
X034082Y006995D03*
X034082Y005971D03*
X034672Y005971D03*
X031129Y005971D03*
X030538Y005971D03*
X030538Y006995D03*
X031129Y006995D03*
X027586Y006995D03*
X026995Y006995D03*
X026995Y005971D03*
X027586Y005971D03*
X024042Y005971D03*
X023452Y005971D03*
X023452Y006995D03*
X024042Y006995D03*
X020499Y006995D03*
X019908Y006995D03*
X019908Y005971D03*
X020499Y005971D03*
X016956Y005971D03*
X016365Y005971D03*
X016365Y006995D03*
X016956Y006995D03*
X013412Y006995D03*
X012822Y006995D03*
X012822Y005971D03*
X013412Y005971D03*
X009869Y005971D03*
X009279Y005971D03*
X009279Y006995D03*
X009869Y006995D03*
D19*
X015431Y010480D03*
X015431Y010730D03*
X015431Y010990D03*
X015431Y011240D03*
X015431Y011500D03*
X015431Y011760D03*
X015431Y012010D03*
X015431Y012270D03*
X015431Y012520D03*
X015431Y012780D03*
X015431Y013040D03*
X015431Y013290D03*
X015431Y013550D03*
X015431Y013800D03*
X017771Y013800D03*
X017771Y013550D03*
X017771Y013290D03*
X017771Y013040D03*
X017771Y012780D03*
X017771Y012520D03*
X017771Y012270D03*
X017771Y012010D03*
X017771Y011760D03*
X017771Y011500D03*
X017771Y011240D03*
X017771Y010990D03*
X017771Y010730D03*
X017771Y010480D03*
X033191Y010453D03*
X033191Y010703D03*
X033191Y010963D03*
X033191Y011213D03*
X033191Y011473D03*
X033191Y011733D03*
X033191Y011983D03*
X033191Y012243D03*
X033191Y012493D03*
X033191Y012753D03*
X033191Y013013D03*
X033191Y013263D03*
X033191Y013523D03*
X033191Y013773D03*
X035531Y013773D03*
X035531Y013523D03*
X035531Y013263D03*
X035531Y013013D03*
X035531Y012753D03*
X035531Y012493D03*
X035531Y012243D03*
X035531Y011983D03*
X035531Y011733D03*
X035531Y011473D03*
X035531Y011213D03*
X035531Y010963D03*
X035531Y010703D03*
X035531Y010453D03*
D20*
X034361Y012113D03*
X016601Y012140D03*
D21*
X007605Y007877D03*
X007605Y006877D03*
X007605Y005877D03*
X043235Y005877D03*
X043235Y006877D03*
X043235Y007877D03*
D22*
X037684Y012259D03*
X019231Y012385D03*
D23*
X042471Y011727D03*
D24*
X042373Y010979D03*
X042176Y010979D03*
X041979Y010979D03*
X041782Y010979D03*
X042570Y010979D03*
X042767Y010979D03*
X042964Y010979D03*
X043160Y010979D03*
X043160Y012475D03*
X042964Y012475D03*
X042767Y012475D03*
X042570Y012475D03*
X042373Y012475D03*
X042176Y012475D03*
X041979Y012475D03*
X041782Y012475D03*
D25*
X043086Y010176D03*
X043873Y010176D03*
X035393Y015310D03*
X034605Y015310D03*
X017129Y015211D03*
X016342Y015211D03*
D26*
X040873Y017152D03*
X042448Y017152D03*
X043877Y013696D03*
X043861Y011349D03*
D27*
X042007Y013448D03*
X040550Y013448D03*
D28*
X039605Y016207D03*
X038605Y016207D03*
X037605Y016207D03*
X037605Y017207D03*
X038605Y017207D03*
X039605Y017207D03*
D29*
X043826Y012940D03*
X043826Y012152D03*
D30*
X029062Y015538D03*
X008590Y015538D03*
D31*
X016405Y014514D03*
X016916Y014514D03*
X019003Y013648D03*
X019515Y013648D03*
X021365Y014829D03*
X021877Y014829D03*
G36*
X024285Y014400D02*
X024523Y014638D01*
X024815Y014346D01*
X024577Y014108D01*
X024285Y014400D01*
G37*
G36*
X024647Y014762D02*
X024885Y015000D01*
X025177Y014708D01*
X024939Y014470D01*
X024647Y014762D01*
G37*
G36*
X028839Y010928D02*
X028601Y010690D01*
X028309Y010982D01*
X028547Y011220D01*
X028839Y010928D01*
G37*
G36*
X028477Y010566D02*
X028239Y010328D01*
X027947Y010620D01*
X028185Y010858D01*
X028477Y010566D01*
G37*
X036719Y013648D03*
X037231Y013648D03*
X035263Y014672D03*
X034751Y014672D03*
X040420Y014357D03*
X040932Y014357D03*
X041759Y014357D03*
X042271Y014357D03*
D32*
X009712Y003885D03*
X010381Y003885D03*
X013255Y003885D03*
X013924Y003885D03*
X016798Y003885D03*
X017468Y003885D03*
X020342Y003885D03*
X021011Y003885D03*
X023885Y003885D03*
X024554Y003885D03*
X027428Y003885D03*
X028097Y003885D03*
X030971Y003885D03*
X031641Y003885D03*
X034515Y003885D03*
X035184Y003885D03*
X038058Y003885D03*
X038727Y003885D03*
X041641Y003885D03*
X042310Y003885D03*
D33*
X042842Y014140D03*
X042842Y014652D03*
X032645Y015755D03*
X032645Y016266D03*
X031660Y016266D03*
X031660Y015755D03*
X020282Y015794D03*
X020282Y015282D03*
X019653Y015282D03*
X019653Y015794D03*
D34*
X021109Y015755D03*
X021109Y015951D03*
X021109Y016148D03*
X021109Y016345D03*
X021109Y016542D03*
X021109Y016739D03*
X022605Y016739D03*
X022605Y016542D03*
X022605Y016345D03*
X022605Y016148D03*
X022605Y015951D03*
X022605Y015755D03*
D35*
X022349Y015499D03*
X022153Y015499D03*
X021956Y015499D03*
X021759Y015499D03*
X021562Y015499D03*
X021365Y015499D03*
X021365Y016995D03*
X021562Y016995D03*
X021759Y016995D03*
X021956Y016995D03*
X022153Y016995D03*
X022349Y016995D03*
D36*
X022241Y016709D02*
X021395Y016709D01*
X021395Y015784D01*
X022320Y015784D01*
X022320Y016621D01*
X022298Y016625D01*
X022279Y016634D01*
X022262Y016649D01*
X022250Y016667D01*
X022243Y016687D01*
X022241Y016709D01*
X022246Y016678D02*
X021395Y016678D01*
X021395Y016600D02*
X022320Y016600D01*
X022320Y016521D02*
X021395Y016521D01*
X021395Y016443D02*
X022320Y016443D01*
X022320Y016364D02*
X021395Y016364D01*
X021395Y016286D02*
X022320Y016286D01*
X022320Y016207D02*
X021395Y016207D01*
X021395Y016129D02*
X022320Y016129D01*
X022320Y016050D02*
X021395Y016050D01*
X021395Y015972D02*
X022320Y015972D01*
X022320Y015893D02*
X021395Y015893D01*
X021395Y015815D02*
X022320Y015815D01*
D37*
X007212Y011936D03*
X007212Y010164D03*
D38*
X008235Y010656D03*
X008235Y011444D03*
X008235Y012428D03*
X008235Y009672D03*
D39*
X007562Y008806D02*
X006862Y008806D01*
X006862Y013294D02*
X007562Y013294D01*
D40*
X014495Y016050D03*
X015007Y016050D03*
X009574Y009711D03*
X009062Y009711D03*
D41*
X019141Y015302D03*
X019141Y015814D03*
X018944Y016640D03*
X018944Y017152D03*
D42*
X019653Y017034D03*
X021621Y017428D03*
X024141Y016640D03*
X023826Y016010D03*
X022763Y015184D03*
X020755Y015262D03*
X020145Y013786D03*
X022645Y013176D03*
X022172Y012310D03*
X021523Y012310D03*
X021267Y011483D03*
X023471Y010420D03*
X023826Y009711D03*
X025401Y010026D03*
X025952Y010026D03*
X027527Y010262D03*
X028983Y010105D03*
X029495Y010302D03*
X029928Y010696D03*
X030637Y011680D03*
X031424Y012743D03*
X032448Y013924D03*
X032782Y014278D03*
X033294Y014298D03*
X031385Y014554D03*
X031070Y014160D03*
X029259Y013885D03*
X026719Y014003D03*
X026562Y014770D03*
X025558Y014869D03*
X024928Y014042D03*
X025538Y012113D03*
X025952Y011680D03*
X026345Y011306D03*
X024259Y011325D03*
X024377Y008963D03*
X017054Y009829D03*
X015991Y009829D03*
X016345Y010774D03*
X016857Y011778D03*
X013196Y013097D03*
X013393Y013570D03*
X014003Y013806D03*
X012999Y014416D03*
X012723Y015223D03*
X014062Y016010D03*
X016345Y013806D03*
X016857Y013806D03*
X012802Y012034D03*
X027605Y016010D03*
X033353Y015971D03*
X035243Y017349D03*
X041306Y014751D03*
X041897Y016010D03*
X037448Y014121D03*
X038196Y013373D03*
X037763Y012900D03*
X036542Y012625D03*
X034613Y011995D03*
X034121Y011995D03*
X034121Y010577D03*
X037290Y009987D03*
X039023Y010932D03*
X041306Y010979D03*
X041700Y010459D03*
X041857Y009633D03*
X043196Y009554D03*
X040676Y012231D03*
X039239Y012231D03*
X037290Y008963D03*
X035716Y003885D03*
X039259Y003885D03*
X042881Y003885D03*
X032172Y003885D03*
X028629Y003885D03*
X025086Y003885D03*
X021542Y003885D03*
X017999Y003885D03*
X014456Y003885D03*
X010912Y003885D03*
D43*
X011779Y011168D03*
X011779Y011680D03*
D44*
X016345Y011778D03*
X016345Y012487D03*
X016857Y012487D03*
X034121Y013038D03*
X034613Y013038D03*
X034121Y011286D03*
X041975Y011483D03*
X041975Y011955D03*
X042999Y011955D03*
X042999Y011483D03*
M02*
